<?xml version="1.0" encoding="UTF-8" standalone="no"?>
<!DOCTYPE svg PUBLIC "-//W3C//DTD SVG 1.1//EN"
 "http://www.w3.org/Graphics/SVG/1.1/DTD/svg11.dtd">
<!-- Generated by graphviz version 2.34.0 (20130915.1124)
 -->
<!-- Title: controllers_diagram Pages: 1 -->
<svg width="565pt" height="294pt"
 viewBox="0.00 0.00 565.38 294.00" xmlns="http://www.w3.org/2000/svg" xmlns:xlink="http://www.w3.org/1999/xlink">
<g id="graph0" class="graph" transform="scale(1 1) rotate(0) translate(4 290)">
<title>controllers_diagram</title>
<polygon fill="white" stroke="white" points="-4,4 -4,-290 561.375,-290 561.375,4 -4,4"/>
<!-- _diagram_info -->
<g id="node1" class="node"><title>_diagram_info</title>
<text text-anchor="start" x="358" y="-269" font-family="Times,serif" font-size="13.00">Controllers diagram</text>
<text text-anchor="start" x="358" y="-253.4" font-family="Times,serif" font-size="13.00">Date: Sep 15 2013 &#45; 12:35</text>
<text text-anchor="start" x="358" y="-237.8" font-family="Times,serif" font-size="13.00">Migration version: 20130913190657</text>
<text text-anchor="start" x="358" y="-222.2" font-family="Times,serif" font-size="13.00">Generated by RailRoady 1.1.1</text>
<text text-anchor="start" x="358" y="-206.6" font-family="Times,serif" font-size="13.00">http://railroady.prestonlee.com</text>
</g>
<!-- ApplicationController -->
<g id="node2" class="node"><title>ApplicationController</title>
<ellipse fill="none" stroke="black" cx="221.803" cy="-75.4692" rx="96.1448" ry="18"/>
<text text-anchor="middle" x="221.803" y="-69.8692" font-family="Times,serif" font-size="14.00">ApplicationController</text>
</g>
<!-- CollectionsController -->
<g id="node3" class="node"><title>CollectionsController</title>
<ellipse fill="none" stroke="black" cx="320.619" cy="-22.3725" rx="94.9386" ry="18"/>
<text text-anchor="middle" x="320.619" y="-16.7725" font-family="Times,serif" font-size="14.00">CollectionsController</text>
</g>
<!-- ApplicationController&#45;&gt;CollectionsController -->
<g id="edge1" class="edge"><title>ApplicationController&#45;&gt;CollectionsController</title>
<path fill="none" stroke="black" d="M253.613,-58.3768C263.399,-53.1189 274.243,-47.2917 284.307,-41.8843"/>
<polyline fill="none" stroke="black" points="288.869,-39.4329 284.465,-41.7996 "/>
</g>
<!-- DataTypesController -->
<g id="node4" class="node"><title>DataTypesController</title>
<ellipse fill="none" stroke="black" cx="126.771" cy="-18" rx="91.7704" ry="18"/>
<text text-anchor="middle" x="126.771" y="-12.4" font-family="Times,serif" font-size="14.00">DataTypesController</text>
</g>
<!-- ApplicationController&#45;&gt;DataTypesController -->
<g id="edge2" class="edge"><title>ApplicationController&#45;&gt;DataTypesController</title>
<path fill="none" stroke="black" d="M193.29,-58.2266C182.672,-51.8052 170.538,-44.4672 159.565,-37.8319"/>
<polyline fill="none" stroke="black" points="155.263,-35.2305 159.542,-37.8179 "/>
</g>
<!-- PropertiesController -->
<g id="node5" class="node"><title>PropertiesController</title>
<ellipse fill="none" stroke="black" cx="89.8858" cy="-121.256" rx="89.7718" ry="18"/>
<text text-anchor="middle" x="89.8858" y="-115.656" font-family="Times,serif" font-size="14.00">PropertiesController</text>
</g>
<!-- ApplicationController&#45;&gt;PropertiesController -->
<g id="edge3" class="edge"><title>ApplicationController&#45;&gt;PropertiesController</title>
<path fill="none" stroke="black" d="M176.035,-91.3546C164.445,-95.3774 151.934,-99.7197 140.135,-103.815"/>
<polyline fill="none" stroke="black" points="135.127,-105.553 139.851,-103.914 "/>
</g>
<!-- RecordsController -->
<g id="node6" class="node"><title>RecordsController</title>
<ellipse fill="none" stroke="black" cx="343.08" cy="-129.909" rx="82.2489" ry="18"/>
<text text-anchor="middle" x="343.08" y="-124.309" font-family="Times,serif" font-size="14.00">RecordsController</text>
</g>
<!-- ApplicationController&#45;&gt;RecordsController -->
<g id="edge4" class="edge"><title>ApplicationController&#45;&gt;RecordsController</title>
<path fill="none" stroke="black" d="M258.849,-92.0989C272.493,-98.2232 288.024,-105.195 302.002,-111.47"/>
<polyline fill="none" stroke="black" points="306.678,-113.569 302.116,-111.521 "/>
</g>
<!-- ThingsController -->
<g id="node7" class="node"><title>ThingsController</title>
<ellipse fill="none" stroke="black" cx="215.25" cy="-162.278" rx="77.6107" ry="18"/>
<text text-anchor="middle" x="215.25" y="-156.678" font-family="Times,serif" font-size="14.00">ThingsController</text>
</g>
<!-- ApplicationController&#45;&gt;ThingsController -->
<g id="edge5" class="edge"><title>ApplicationController&#45;&gt;ThingsController</title>
<path fill="none" stroke="black" d="M220.413,-93.8792C219.416,-107.088 218.065,-124.982 216.996,-139.155"/>
<polyline fill="none" stroke="black" points="216.615,-144.192 216.992,-139.207 "/>
</g>
</g>
</svg>
