<?xml version="1.0" encoding="UTF-8" standalone="no"?>
<!DOCTYPE svg PUBLIC "-//W3C//DTD SVG 1.1//EN"
 "http://www.w3.org/Graphics/SVG/1.1/DTD/svg11.dtd">
<!-- Generated by graphviz version 2.34.0 (20130915.1124)
 -->
<!-- Title: controllers_diagram Pages: 1 -->
<svg width="721pt" height="741pt"
 viewBox="0.00 0.00 721.38 741.39" xmlns="http://www.w3.org/2000/svg" xmlns:xlink="http://www.w3.org/1999/xlink">
<g id="graph0" class="graph" transform="scale(1 1) rotate(0) translate(4 737.389)">
<title>controllers_diagram</title>
<polygon fill="white" stroke="white" points="-4,4 -4,-737.389 717.375,-737.389 717.375,4 -4,4"/>
<!-- _diagram_info -->
<g id="node1" class="node"><title>_diagram_info</title>
<text text-anchor="start" x="514" y="-161" font-family="Times,serif" font-size="13.00">Controllers diagram</text>
<text text-anchor="start" x="514" y="-145.4" font-family="Times,serif" font-size="13.00">Date: Sep 15 2013 &#45; 12:35</text>
<text text-anchor="start" x="514" y="-129.8" font-family="Times,serif" font-size="13.00">Migration version: 20130913190657</text>
<text text-anchor="start" x="514" y="-114.2" font-family="Times,serif" font-size="13.00">Generated by RailRoady 1.1.1</text>
<text text-anchor="start" x="514" y="-98.6" font-family="Times,serif" font-size="13.00">http://railroady.prestonlee.com</text>
</g>
<!-- ApplicationController -->
<g id="node2" class="node"><title>ApplicationController</title>
<path fill="none" stroke="black" d="M284.2,-308.995C284.2,-308.995 399.842,-308.995 399.842,-308.995 405.842,-308.995 411.842,-314.995 411.842,-320.995 411.842,-320.995 411.842,-394.595 411.842,-394.595 411.842,-400.595 405.842,-406.595 399.842,-406.595 399.842,-406.595 284.2,-406.595 284.2,-406.595 278.2,-406.595 272.2,-400.595 272.2,-394.595 272.2,-394.595 272.2,-320.995 272.2,-320.995 272.2,-314.995 278.2,-308.995 284.2,-308.995"/>
<text text-anchor="middle" x="342.021" y="-388.595" font-family="Times,serif" font-size="14.00">ApplicationController</text>
<polyline fill="none" stroke="black" points="272.2,-381.795 411.842,-381.795 "/>
<polyline fill="none" stroke="black" points="272.2,-357.795 411.842,-357.795 "/>
<polyline fill="none" stroke="black" points="272.2,-333.795 411.842,-333.795 "/>
<text text-anchor="start" x="280.2" y="-315.795" font-family="Times,serif" font-size="14.00">_layout</text>
</g>
<!-- CollectionsController -->
<g id="node3" class="node"><title>CollectionsController</title>
<path fill="none" stroke="black" d="M302.866,-0.5C302.866,-0.5 416.184,-0.5 416.184,-0.5 422.184,-0.5 428.184,-6.5 428.184,-12.5 428.184,-12.5 428.184,-221.3 428.184,-221.3 428.184,-227.3 422.184,-233.3 416.184,-233.3 416.184,-233.3 302.866,-233.3 302.866,-233.3 296.866,-233.3 290.866,-227.3 290.866,-221.3 290.866,-221.3 290.866,-12.5 290.866,-12.5 290.866,-6.5 296.866,-0.5 302.866,-0.5"/>
<text text-anchor="middle" x="359.525" y="-215.3" font-family="Times,serif" font-size="14.00">CollectionsController</text>
<polyline fill="none" stroke="black" points="290.866,-208.5 428.184,-208.5 "/>
<text text-anchor="start" x="298.866" y="-190.5" font-family="Times,serif" font-size="14.00">create</text>
<text text-anchor="start" x="298.866" y="-173.7" font-family="Times,serif" font-size="14.00">destroy</text>
<text text-anchor="start" x="298.866" y="-156.9" font-family="Times,serif" font-size="14.00">edit</text>
<text text-anchor="start" x="298.866" y="-140.1" font-family="Times,serif" font-size="14.00">index</text>
<text text-anchor="start" x="298.866" y="-123.3" font-family="Times,serif" font-size="14.00">new</text>
<text text-anchor="start" x="298.866" y="-106.5" font-family="Times,serif" font-size="14.00">show</text>
<text text-anchor="start" x="298.866" y="-89.7" font-family="Times,serif" font-size="14.00">update</text>
<polyline fill="none" stroke="black" points="290.866,-82.9 428.184,-82.9 "/>
<polyline fill="none" stroke="black" points="290.866,-58.9 428.184,-58.9 "/>
<text text-anchor="start" x="298.866" y="-40.9" font-family="Times,serif" font-size="14.00">_layout</text>
<text text-anchor="start" x="298.866" y="-24.1" font-family="Times,serif" font-size="14.00">collection_params</text>
<text text-anchor="start" x="298.866" y="-7.3" font-family="Times,serif" font-size="14.00">set_collection</text>
</g>
<!-- ApplicationController&#45;&gt;CollectionsController -->
<g id="edge1" class="edge"><title>ApplicationController&#45;&gt;CollectionsController</title>
<path fill="none" stroke="black" d="M345.584,-308.756C347.068,-288.336 348.863,-263.629 350.665,-238.838"/>
<polyline fill="none" stroke="black" points="351.049,-233.549 350.687,-238.535 "/>
</g>
<!-- DataTypesController -->
<g id="node4" class="node"><title>DataTypesController</title>
<path fill="none" stroke="black" d="M24.8235,-5.7322C24.8235,-5.7322 134.032,-5.7322 134.032,-5.7322 140.032,-5.7322 146.032,-11.7322 146.032,-17.7322 146.032,-17.7322 146.032,-226.532 146.032,-226.532 146.032,-232.532 140.032,-238.532 134.032,-238.532 134.032,-238.532 24.8235,-238.532 24.8235,-238.532 18.8235,-238.532 12.8235,-232.532 12.8235,-226.532 12.8235,-226.532 12.8235,-17.7322 12.8235,-17.7322 12.8235,-11.7322 18.8235,-5.7322 24.8235,-5.7322"/>
<text text-anchor="middle" x="79.428" y="-220.532" font-family="Times,serif" font-size="14.00">DataTypesController</text>
<polyline fill="none" stroke="black" points="12.8235,-213.732 146.032,-213.732 "/>
<text text-anchor="start" x="20.8235" y="-195.732" font-family="Times,serif" font-size="14.00">create</text>
<text text-anchor="start" x="20.8235" y="-178.932" font-family="Times,serif" font-size="14.00">destroy</text>
<text text-anchor="start" x="20.8235" y="-162.132" font-family="Times,serif" font-size="14.00">edit</text>
<text text-anchor="start" x="20.8235" y="-145.332" font-family="Times,serif" font-size="14.00">index</text>
<text text-anchor="start" x="20.8235" y="-128.532" font-family="Times,serif" font-size="14.00">new</text>
<text text-anchor="start" x="20.8235" y="-111.732" font-family="Times,serif" font-size="14.00">show</text>
<text text-anchor="start" x="20.8235" y="-94.9322" font-family="Times,serif" font-size="14.00">update</text>
<polyline fill="none" stroke="black" points="12.8235,-88.1322 146.032,-88.1322 "/>
<polyline fill="none" stroke="black" points="12.8235,-64.1322 146.032,-64.1322 "/>
<text text-anchor="start" x="20.8235" y="-46.1322" font-family="Times,serif" font-size="14.00">_layout</text>
<text text-anchor="start" x="20.8235" y="-29.3322" font-family="Times,serif" font-size="14.00">data_type_params</text>
<text text-anchor="start" x="20.8235" y="-12.5322" font-family="Times,serif" font-size="14.00">set_data_type</text>
</g>
<!-- ApplicationController&#45;&gt;DataTypesController -->
<g id="edge2" class="edge"><title>ApplicationController&#45;&gt;DataTypesController</title>
<path fill="none" stroke="black" d="M287.612,-308.966C247.802,-273.239 193.431,-224.444 150.237,-185.68"/>
<polyline fill="none" stroke="black" points="146.357,-182.198 150.079,-185.537 "/>
</g>
<!-- PropertiesController -->
<g id="node5" class="node"><title>PropertiesController</title>
<path fill="none" stroke="black" d="M12,-259.051C12,-259.051 118.311,-259.051 118.311,-259.051 124.311,-259.051 130.311,-265.051 130.311,-271.051 130.311,-271.051 130.311,-479.851 130.311,-479.851 130.311,-485.851 124.311,-491.851 118.311,-491.851 118.311,-491.851 12,-491.851 12,-491.851 6,-491.851 0,-485.851 0,-479.851 0,-479.851 0,-271.051 0,-271.051 0,-265.051 6,-259.051 12,-259.051"/>
<text text-anchor="middle" x="65.1553" y="-473.851" font-family="Times,serif" font-size="14.00">PropertiesController</text>
<polyline fill="none" stroke="black" points="0,-467.051 130.311,-467.051 "/>
<text text-anchor="start" x="8" y="-449.051" font-family="Times,serif" font-size="14.00">create</text>
<text text-anchor="start" x="8" y="-432.251" font-family="Times,serif" font-size="14.00">destroy</text>
<text text-anchor="start" x="8" y="-415.451" font-family="Times,serif" font-size="14.00">edit</text>
<text text-anchor="start" x="8" y="-398.651" font-family="Times,serif" font-size="14.00">index</text>
<text text-anchor="start" x="8" y="-381.851" font-family="Times,serif" font-size="14.00">new</text>
<text text-anchor="start" x="8" y="-365.051" font-family="Times,serif" font-size="14.00">show</text>
<text text-anchor="start" x="8" y="-348.251" font-family="Times,serif" font-size="14.00">update</text>
<polyline fill="none" stroke="black" points="0,-341.451 130.311,-341.451 "/>
<polyline fill="none" stroke="black" points="0,-317.451 130.311,-317.451 "/>
<text text-anchor="start" x="8" y="-299.451" font-family="Times,serif" font-size="14.00">_layout</text>
<text text-anchor="start" x="8" y="-282.651" font-family="Times,serif" font-size="14.00">property_params</text>
<text text-anchor="start" x="8" y="-265.851" font-family="Times,serif" font-size="14.00">set_property</text>
</g>
<!-- ApplicationController&#45;&gt;PropertiesController -->
<g id="edge3" class="edge"><title>ApplicationController&#45;&gt;PropertiesController</title>
<path fill="none" stroke="black" d="M272.156,-362.251C230.439,-364.911 177.609,-368.28 135.761,-370.949"/>
<polyline fill="none" stroke="black" points="130.714,-371.271 135.704,-370.952 "/>
</g>
<!-- RecordsController -->
<g id="node6" class="node"><title>RecordsController</title>
<path fill="none" stroke="black" d="M316.159,-486.784C316.159,-486.784 411.58,-486.784 411.58,-486.784 417.58,-486.784 423.58,-492.784 423.58,-498.784 423.58,-498.784 423.58,-707.584 423.58,-707.584 423.58,-713.584 417.58,-719.584 411.58,-719.584 411.58,-719.584 316.159,-719.584 316.159,-719.584 310.159,-719.584 304.159,-713.584 304.159,-707.584 304.159,-707.584 304.159,-498.784 304.159,-498.784 304.159,-492.784 310.159,-486.784 316.159,-486.784"/>
<text text-anchor="middle" x="363.87" y="-701.584" font-family="Times,serif" font-size="14.00">RecordsController</text>
<polyline fill="none" stroke="black" points="304.159,-694.784 423.58,-694.784 "/>
<text text-anchor="start" x="312.159" y="-676.784" font-family="Times,serif" font-size="14.00">create</text>
<text text-anchor="start" x="312.159" y="-659.984" font-family="Times,serif" font-size="14.00">destroy</text>
<text text-anchor="start" x="312.159" y="-643.184" font-family="Times,serif" font-size="14.00">edit</text>
<text text-anchor="start" x="312.159" y="-626.384" font-family="Times,serif" font-size="14.00">index</text>
<text text-anchor="start" x="312.159" y="-609.584" font-family="Times,serif" font-size="14.00">new</text>
<text text-anchor="start" x="312.159" y="-592.784" font-family="Times,serif" font-size="14.00">show</text>
<text text-anchor="start" x="312.159" y="-575.984" font-family="Times,serif" font-size="14.00">update</text>
<polyline fill="none" stroke="black" points="304.159,-569.184 423.58,-569.184 "/>
<polyline fill="none" stroke="black" points="304.159,-545.184 423.58,-545.184 "/>
<text text-anchor="start" x="312.159" y="-527.184" font-family="Times,serif" font-size="14.00">_layout</text>
<text text-anchor="start" x="312.159" y="-510.384" font-family="Times,serif" font-size="14.00">record_params</text>
<text text-anchor="start" x="312.159" y="-493.584" font-family="Times,serif" font-size="14.00">set_record</text>
</g>
<!-- ApplicationController&#45;&gt;RecordsController -->
<g id="edge4" class="edge"><title>ApplicationController&#45;&gt;RecordsController</title>
<path fill="none" stroke="black" d="M346.39,-406.864C348.316,-428.499 350.674,-454.981 353.027,-481.407"/>
<polyline fill="none" stroke="black" points="353.497,-486.689 353.054,-481.709 "/>
</g>
<!-- ThingsController -->
<g id="node7" class="node"><title>ThingsController</title>
<path fill="none" stroke="black" d="M41.1205,-500.089C41.1205,-500.089 129.555,-500.089 129.555,-500.089 135.555,-500.089 141.555,-506.089 141.555,-512.089 141.555,-512.089 141.555,-720.889 141.555,-720.889 141.555,-726.889 135.555,-732.889 129.555,-732.889 129.555,-732.889 41.1205,-732.889 41.1205,-732.889 35.1205,-732.889 29.1205,-726.889 29.1205,-720.889 29.1205,-720.889 29.1205,-512.089 29.1205,-512.089 29.1205,-506.089 35.1205,-500.089 41.1205,-500.089"/>
<text text-anchor="middle" x="85.3378" y="-714.889" font-family="Times,serif" font-size="14.00">ThingsController</text>
<polyline fill="none" stroke="black" points="29.1205,-708.089 141.555,-708.089 "/>
<text text-anchor="start" x="37.1205" y="-690.089" font-family="Times,serif" font-size="14.00">collection_index</text>
<text text-anchor="start" x="37.1205" y="-673.289" font-family="Times,serif" font-size="14.00">create</text>
<text text-anchor="start" x="37.1205" y="-656.489" font-family="Times,serif" font-size="14.00">destroy</text>
<text text-anchor="start" x="37.1205" y="-639.689" font-family="Times,serif" font-size="14.00">edit</text>
<text text-anchor="start" x="37.1205" y="-622.889" font-family="Times,serif" font-size="14.00">index</text>
<text text-anchor="start" x="37.1205" y="-606.089" font-family="Times,serif" font-size="14.00">new_thing</text>
<text text-anchor="start" x="37.1205" y="-589.289" font-family="Times,serif" font-size="14.00">update</text>
<polyline fill="none" stroke="black" points="29.1205,-582.489 141.555,-582.489 "/>
<polyline fill="none" stroke="black" points="29.1205,-558.489 141.555,-558.489 "/>
<text text-anchor="start" x="37.1205" y="-540.489" font-family="Times,serif" font-size="14.00">_layout</text>
<text text-anchor="start" x="37.1205" y="-523.689" font-family="Times,serif" font-size="14.00">set_thing</text>
<text text-anchor="start" x="37.1205" y="-506.889" font-family="Times,serif" font-size="14.00">thing_params</text>
</g>
<!-- ApplicationController&#45;&gt;ThingsController -->
<g id="edge5" class="edge"><title>ApplicationController&#45;&gt;ThingsController</title>
<path fill="none" stroke="black" d="M293.439,-406.758C251.453,-449.073 190.598,-510.404 145.533,-555.822"/>
<polyline fill="none" stroke="black" points="141.77,-559.614 145.292,-556.065 "/>
</g>
</g>
</svg>
