<?xml version="1.0" encoding="UTF-8" standalone="no"?>
<!DOCTYPE svg PUBLIC "-//W3C//DTD SVG 1.1//EN"
 "http://www.w3.org/Graphics/SVG/1.1/DTD/svg11.dtd">
<!-- Generated by graphviz version 2.34.0 (20130915.1124)
 -->
<!-- Title: controllers_diagram Pages: 1 -->
<svg width="779pt" height="719pt"
 viewBox="0.00 0.00 779.38 719.31" xmlns="http://www.w3.org/2000/svg" xmlns:xlink="http://www.w3.org/1999/xlink">
<g id="graph0" class="graph" transform="scale(1 1) rotate(0) translate(4 715.307)">
<title>controllers_diagram</title>
<polygon fill="white" stroke="white" points="-4,4 -4,-715.307 775.375,-715.307 775.375,4 -4,4"/>
<!-- _diagram_info -->
<g id="node1" class="node"><title>_diagram_info</title>
<text text-anchor="start" x="572" y="-116" font-family="Times,serif" font-size="13.00">Controllers diagram</text>
<text text-anchor="start" x="572" y="-100.4" font-family="Times,serif" font-size="13.00">Date: Sep 16 2013 &#45; 20:59</text>
<text text-anchor="start" x="572" y="-84.8" font-family="Times,serif" font-size="13.00">Migration version: 20130916135233</text>
<text text-anchor="start" x="572" y="-69.2" font-family="Times,serif" font-size="13.00">Generated by RailRoady 1.1.1</text>
<text text-anchor="start" x="572" y="-53.6" font-family="Times,serif" font-size="13.00">http://railroady.prestonlee.com</text>
</g>
<!-- ApplicationController -->
<g id="node2" class="node"><title>ApplicationController</title>
<path fill="none" stroke="black" d="M186.247,-306.661C186.247,-306.661 301.889,-306.661 301.889,-306.661 307.889,-306.661 313.889,-312.661 313.889,-318.661 313.889,-318.661 313.889,-392.261 313.889,-392.261 313.889,-398.261 307.889,-404.261 301.889,-404.261 301.889,-404.261 186.247,-404.261 186.247,-404.261 180.247,-404.261 174.247,-398.261 174.247,-392.261 174.247,-392.261 174.247,-318.661 174.247,-318.661 174.247,-312.661 180.247,-306.661 186.247,-306.661"/>
<text text-anchor="middle" x="244.068" y="-386.261" font-family="Times,serif" font-size="14.00">ApplicationController</text>
<polyline fill="none" stroke="black" points="174.247,-379.461 313.889,-379.461 "/>
<polyline fill="none" stroke="black" points="174.247,-355.461 313.889,-355.461 "/>
<polyline fill="none" stroke="black" points="174.247,-331.461 313.889,-331.461 "/>
<text text-anchor="start" x="182.247" y="-313.461" font-family="Times,serif" font-size="14.00">_layout</text>
</g>
<!-- CollectionsController -->
<g id="node3" class="node"><title>CollectionsController</title>
<path fill="none" stroke="black" d="M354.656,-81.7823C354.656,-81.7823 467.973,-81.7823 467.973,-81.7823 473.973,-81.7823 479.973,-87.7823 479.973,-93.7823 479.973,-93.7823 479.973,-302.582 479.973,-302.582 479.973,-308.582 473.973,-314.582 467.973,-314.582 467.973,-314.582 354.656,-314.582 354.656,-314.582 348.656,-314.582 342.656,-308.582 342.656,-302.582 342.656,-302.582 342.656,-93.7823 342.656,-93.7823 342.656,-87.7823 348.656,-81.7823 354.656,-81.7823"/>
<text text-anchor="middle" x="411.314" y="-296.582" font-family="Times,serif" font-size="14.00">CollectionsController</text>
<polyline fill="none" stroke="black" points="342.656,-289.782 479.973,-289.782 "/>
<text text-anchor="start" x="350.656" y="-271.782" font-family="Times,serif" font-size="14.00">create</text>
<text text-anchor="start" x="350.656" y="-254.982" font-family="Times,serif" font-size="14.00">destroy</text>
<text text-anchor="start" x="350.656" y="-238.182" font-family="Times,serif" font-size="14.00">edit</text>
<text text-anchor="start" x="350.656" y="-221.382" font-family="Times,serif" font-size="14.00">index</text>
<text text-anchor="start" x="350.656" y="-204.582" font-family="Times,serif" font-size="14.00">new</text>
<text text-anchor="start" x="350.656" y="-187.782" font-family="Times,serif" font-size="14.00">show</text>
<text text-anchor="start" x="350.656" y="-170.982" font-family="Times,serif" font-size="14.00">update</text>
<polyline fill="none" stroke="black" points="342.656,-164.182 479.973,-164.182 "/>
<polyline fill="none" stroke="black" points="342.656,-140.182 479.973,-140.182 "/>
<text text-anchor="start" x="350.656" y="-122.182" font-family="Times,serif" font-size="14.00">_layout</text>
<text text-anchor="start" x="350.656" y="-105.382" font-family="Times,serif" font-size="14.00">collection_params</text>
<text text-anchor="start" x="350.656" y="-88.5823" font-family="Times,serif" font-size="14.00">set_collection</text>
</g>
<!-- ApplicationController&#45;&gt;CollectionsController -->
<g id="edge1" class="edge"><title>ApplicationController&#45;&gt;CollectionsController</title>
<path fill="none" stroke="black" d="M296.069,-306.559C309.594,-293.84 324.413,-279.904 338.787,-266.387"/>
<polyline fill="none" stroke="black" points="342.431,-262.96 338.788,-266.386 "/>
</g>
<!-- DataTypesController -->
<g id="node4" class="node"><title>DataTypesController</title>
<path fill="none" stroke="black" d="M192.666,-0.5C192.666,-0.5 301.875,-0.5 301.875,-0.5 307.875,-0.5 313.875,-6.5 313.875,-12.5 313.875,-12.5 313.875,-221.3 313.875,-221.3 313.875,-227.3 307.875,-233.3 301.875,-233.3 301.875,-233.3 192.666,-233.3 192.666,-233.3 186.666,-233.3 180.666,-227.3 180.666,-221.3 180.666,-221.3 180.666,-12.5 180.666,-12.5 180.666,-6.5 186.666,-0.5 192.666,-0.5"/>
<text text-anchor="middle" x="247.271" y="-215.3" font-family="Times,serif" font-size="14.00">DataTypesController</text>
<polyline fill="none" stroke="black" points="180.666,-208.5 313.875,-208.5 "/>
<text text-anchor="start" x="188.666" y="-190.5" font-family="Times,serif" font-size="14.00">create</text>
<text text-anchor="start" x="188.666" y="-173.7" font-family="Times,serif" font-size="14.00">destroy</text>
<text text-anchor="start" x="188.666" y="-156.9" font-family="Times,serif" font-size="14.00">edit</text>
<text text-anchor="start" x="188.666" y="-140.1" font-family="Times,serif" font-size="14.00">index</text>
<text text-anchor="start" x="188.666" y="-123.3" font-family="Times,serif" font-size="14.00">new</text>
<text text-anchor="start" x="188.666" y="-106.5" font-family="Times,serif" font-size="14.00">show</text>
<text text-anchor="start" x="188.666" y="-89.7" font-family="Times,serif" font-size="14.00">update</text>
<polyline fill="none" stroke="black" points="180.666,-82.9 313.875,-82.9 "/>
<polyline fill="none" stroke="black" points="180.666,-58.9 313.875,-58.9 "/>
<text text-anchor="start" x="188.666" y="-40.9" font-family="Times,serif" font-size="14.00">_layout</text>
<text text-anchor="start" x="188.666" y="-24.1" font-family="Times,serif" font-size="14.00">data_type_params</text>
<text text-anchor="start" x="188.666" y="-7.3" font-family="Times,serif" font-size="14.00">set_data_type</text>
</g>
<!-- ApplicationController&#45;&gt;DataTypesController -->
<g id="edge2" class="edge"><title>ApplicationController&#45;&gt;DataTypesController</title>
<path fill="none" stroke="black" d="M244.724,-306.609C244.99,-286.755 245.311,-262.847 245.634,-238.796"/>
<polyline fill="none" stroke="black" points="245.703,-233.663 245.636,-238.663 "/>
</g>
<!-- PropertiesController -->
<g id="node5" class="node"><title>PropertiesController</title>
<path fill="none" stroke="black" d="M31.4767,-400.364C31.4767,-400.364 137.787,-400.364 137.787,-400.364 143.787,-400.364 149.787,-406.364 149.787,-412.364 149.787,-412.364 149.787,-621.164 149.787,-621.164 149.787,-627.164 143.787,-633.164 137.787,-633.164 137.787,-633.164 31.4767,-633.164 31.4767,-633.164 25.4767,-633.164 19.4767,-627.164 19.4767,-621.164 19.4767,-621.164 19.4767,-412.364 19.4767,-412.364 19.4767,-406.364 25.4767,-400.364 31.4767,-400.364"/>
<text text-anchor="middle" x="84.6319" y="-615.164" font-family="Times,serif" font-size="14.00">PropertiesController</text>
<polyline fill="none" stroke="black" points="19.4767,-608.364 149.787,-608.364 "/>
<text text-anchor="start" x="27.4767" y="-590.364" font-family="Times,serif" font-size="14.00">create</text>
<text text-anchor="start" x="27.4767" y="-573.564" font-family="Times,serif" font-size="14.00">destroy</text>
<text text-anchor="start" x="27.4767" y="-556.764" font-family="Times,serif" font-size="14.00">edit</text>
<text text-anchor="start" x="27.4767" y="-539.964" font-family="Times,serif" font-size="14.00">index</text>
<text text-anchor="start" x="27.4767" y="-523.164" font-family="Times,serif" font-size="14.00">new</text>
<text text-anchor="start" x="27.4767" y="-506.364" font-family="Times,serif" font-size="14.00">show</text>
<text text-anchor="start" x="27.4767" y="-489.564" font-family="Times,serif" font-size="14.00">update</text>
<polyline fill="none" stroke="black" points="19.4767,-482.764 149.787,-482.764 "/>
<polyline fill="none" stroke="black" points="19.4767,-458.764 149.787,-458.764 "/>
<text text-anchor="start" x="27.4767" y="-440.764" font-family="Times,serif" font-size="14.00">_layout</text>
<text text-anchor="start" x="27.4767" y="-423.964" font-family="Times,serif" font-size="14.00">property_params</text>
<text text-anchor="start" x="27.4767" y="-407.164" font-family="Times,serif" font-size="14.00">set_property</text>
</g>
<!-- ApplicationController&#45;&gt;PropertiesController -->
<g id="edge3" class="edge"><title>ApplicationController&#45;&gt;PropertiesController</title>
<path fill="none" stroke="black" d="M195.799,-404.295C182.45,-417.801 167.698,-432.725 153.424,-447.167"/>
<polyline fill="none" stroke="black" points="149.806,-450.827 153.321,-447.271 "/>
</g>
<!-- RecordsController -->
<g id="node6" class="node"><title>RecordsController</title>
<path fill="none" stroke="black" d="M365.905,-389.603C365.905,-389.603 461.326,-389.603 461.326,-389.603 467.326,-389.603 473.326,-395.603 473.326,-401.603 473.326,-401.603 473.326,-610.403 473.326,-610.403 473.326,-616.403 467.326,-622.403 461.326,-622.403 461.326,-622.403 365.905,-622.403 365.905,-622.403 359.905,-622.403 353.905,-616.403 353.905,-610.403 353.905,-610.403 353.905,-401.603 353.905,-401.603 353.905,-395.603 359.905,-389.603 365.905,-389.603"/>
<text text-anchor="middle" x="413.615" y="-604.403" font-family="Times,serif" font-size="14.00">RecordsController</text>
<polyline fill="none" stroke="black" points="353.905,-597.603 473.326,-597.603 "/>
<text text-anchor="start" x="361.905" y="-579.603" font-family="Times,serif" font-size="14.00">create</text>
<text text-anchor="start" x="361.905" y="-562.803" font-family="Times,serif" font-size="14.00">destroy</text>
<text text-anchor="start" x="361.905" y="-546.003" font-family="Times,serif" font-size="14.00">edit</text>
<text text-anchor="start" x="361.905" y="-529.203" font-family="Times,serif" font-size="14.00">index</text>
<text text-anchor="start" x="361.905" y="-512.403" font-family="Times,serif" font-size="14.00">new</text>
<text text-anchor="start" x="361.905" y="-495.603" font-family="Times,serif" font-size="14.00">show</text>
<text text-anchor="start" x="361.905" y="-478.803" font-family="Times,serif" font-size="14.00">update</text>
<polyline fill="none" stroke="black" points="353.905,-472.003 473.326,-472.003 "/>
<polyline fill="none" stroke="black" points="353.905,-448.003 473.326,-448.003 "/>
<text text-anchor="start" x="361.905" y="-430.003" font-family="Times,serif" font-size="14.00">_layout</text>
<text text-anchor="start" x="361.905" y="-413.203" font-family="Times,serif" font-size="14.00">record_params</text>
<text text-anchor="start" x="361.905" y="-396.403" font-family="Times,serif" font-size="14.00">set_record</text>
</g>
<!-- ApplicationController&#45;&gt;RecordsController -->
<g id="edge4" class="edge"><title>ApplicationController&#45;&gt;RecordsController</title>
<path fill="none" stroke="black" d="M299.115,-404.337C315.386,-418.785 333.33,-434.717 350.089,-449.598"/>
<polyline fill="none" stroke="black" points="353.87,-452.955 350.131,-449.635 "/>
</g>
<!-- ThingsController -->
<g id="node7" class="node"><title>ThingsController</title>
<path fill="none" stroke="black" d="M213.15,-478.007C213.15,-478.007 301.584,-478.007 301.584,-478.007 307.584,-478.007 313.584,-484.007 313.584,-490.007 313.584,-490.007 313.584,-698.807 313.584,-698.807 313.584,-704.807 307.584,-710.807 301.584,-710.807 301.584,-710.807 213.15,-710.807 213.15,-710.807 207.15,-710.807 201.15,-704.807 201.15,-698.807 201.15,-698.807 201.15,-490.007 201.15,-490.007 201.15,-484.007 207.15,-478.007 213.15,-478.007"/>
<text text-anchor="middle" x="257.367" y="-692.807" font-family="Times,serif" font-size="14.00">ThingsController</text>
<polyline fill="none" stroke="black" points="201.15,-686.007 313.584,-686.007 "/>
<text text-anchor="start" x="209.15" y="-668.007" font-family="Times,serif" font-size="14.00">collection_index</text>
<text text-anchor="start" x="209.15" y="-651.207" font-family="Times,serif" font-size="14.00">create</text>
<text text-anchor="start" x="209.15" y="-634.407" font-family="Times,serif" font-size="14.00">destroy</text>
<text text-anchor="start" x="209.15" y="-617.607" font-family="Times,serif" font-size="14.00">edit</text>
<text text-anchor="start" x="209.15" y="-600.807" font-family="Times,serif" font-size="14.00">index</text>
<text text-anchor="start" x="209.15" y="-584.007" font-family="Times,serif" font-size="14.00">new_thing</text>
<text text-anchor="start" x="209.15" y="-567.207" font-family="Times,serif" font-size="14.00">update</text>
<polyline fill="none" stroke="black" points="201.15,-560.407 313.584,-560.407 "/>
<polyline fill="none" stroke="black" points="201.15,-536.407 313.584,-536.407 "/>
<text text-anchor="start" x="209.15" y="-518.407" font-family="Times,serif" font-size="14.00">_layout</text>
<text text-anchor="start" x="209.15" y="-501.607" font-family="Times,serif" font-size="14.00">set_thing</text>
<text text-anchor="start" x="209.15" y="-484.807" font-family="Times,serif" font-size="14.00">thing_params</text>
</g>
<!-- ApplicationController&#45;&gt;ThingsController -->
<g id="edge5" class="edge"><title>ApplicationController&#45;&gt;ThingsController</title>
<path fill="none" stroke="black" d="M246.792,-404.392C247.905,-424.404 249.248,-448.531 250.598,-472.777"/>
<polyline fill="none" stroke="black" points="250.886,-477.951 250.608,-472.959 "/>
</g>
<!-- ValidationTypesController -->
<g id="node8" class="node"><title>ValidationTypesController</title>
<path fill="none" stroke="black" d="M12,-82.7996C12,-82.7996 152.326,-82.7996 152.326,-82.7996 158.326,-82.7996 164.326,-88.7996 164.326,-94.7996 164.326,-94.7996 164.326,-303.6 164.326,-303.6 164.326,-309.6 158.326,-315.6 152.326,-315.6 152.326,-315.6 12,-315.6 12,-315.6 6,-315.6 0,-309.6 0,-303.6 0,-303.6 0,-94.7996 0,-94.7996 0,-88.7996 6,-82.7996 12,-82.7996"/>
<text text-anchor="middle" x="82.1631" y="-297.6" font-family="Times,serif" font-size="14.00">ValidationTypesController</text>
<polyline fill="none" stroke="black" points="0,-290.8 164.326,-290.8 "/>
<text text-anchor="start" x="8" y="-272.8" font-family="Times,serif" font-size="14.00">create</text>
<text text-anchor="start" x="8" y="-256" font-family="Times,serif" font-size="14.00">destroy</text>
<text text-anchor="start" x="8" y="-239.2" font-family="Times,serif" font-size="14.00">edit</text>
<text text-anchor="start" x="8" y="-222.4" font-family="Times,serif" font-size="14.00">index</text>
<text text-anchor="start" x="8" y="-205.6" font-family="Times,serif" font-size="14.00">new</text>
<text text-anchor="start" x="8" y="-188.8" font-family="Times,serif" font-size="14.00">show</text>
<text text-anchor="start" x="8" y="-172" font-family="Times,serif" font-size="14.00">update</text>
<polyline fill="none" stroke="black" points="0,-165.2 164.326,-165.2 "/>
<polyline fill="none" stroke="black" points="0,-141.2 164.326,-141.2 "/>
<text text-anchor="start" x="8" y="-123.2" font-family="Times,serif" font-size="14.00">_layout</text>
<text text-anchor="start" x="8" y="-106.4" font-family="Times,serif" font-size="14.00">set_validation_type</text>
<text text-anchor="start" x="8" y="-89.5996" font-family="Times,serif" font-size="14.00">validation_type_params</text>
</g>
<!-- ApplicationController&#45;&gt;ValidationTypesController -->
<g id="edge6" class="edge"><title>ApplicationController&#45;&gt;ValidationTypesController</title>
<path fill="none" stroke="black" d="M193.285,-306.447C185.251,-298.694 176.755,-290.494 168.183,-282.221"/>
<polyline fill="none" stroke="black" points="164.506,-278.672 168.104,-282.144 "/>
</g>
</g>
</svg>
