<?xml version="1.0" encoding="UTF-8" standalone="no"?>
<!DOCTYPE svg PUBLIC "-//W3C//DTD SVG 1.1//EN"
 "http://www.w3.org/Graphics/SVG/1.1/DTD/svg11.dtd">
<!-- Generated by graphviz version 2.34.0 (20130916.1407)
 -->
<!-- Title: controllers_diagram Pages: 1 -->
<svg width="1747pt" height="276pt"
 viewBox="0.00 0.00 1747.00 276.00" xmlns="http://www.w3.org/2000/svg" xmlns:xlink="http://www.w3.org/1999/xlink">
<g id="graph0" class="graph" transform="scale(1 1) rotate(0) translate(4 272)">
<title>controllers_diagram</title>
<polygon fill="white" stroke="white" points="-4,4 -4,-272 1743,-272 1743,4 -4,4"/>
<!-- ApplicationController -->
<g id="node1" class="node"><title>ApplicationController</title>
<path fill="none" stroke="black" d="M11.6479,-26C11.6479,-26 144.352,-26 144.352,-26 150.352,-26 156.352,-32 156.352,-38 156.352,-38 156.352,-230 156.352,-230 156.352,-236 150.352,-242 144.352,-242 144.352,-242 11.6479,-242 11.6479,-242 5.64795,-242 -0.352051,-236 -0.352051,-230 -0.352051,-230 -0.352051,-38 -0.352051,-38 -0.352051,-32 5.64795,-26 11.6479,-26"/>
<text text-anchor="middle" x="78" y="-224" font-family="Times,serif" font-size="14.00">ApplicationController</text>
<polyline fill="none" stroke="black" points="-0.352051,-217.2 156.352,-217.2 "/>
<text text-anchor="start" x="7.64795" y="-199.2" font-family="Times,serif" font-size="14.00">admin?</text>
<text text-anchor="start" x="7.64795" y="-182.4" font-family="Times,serif" font-size="14.00">current_user</text>
<text text-anchor="start" x="7.64795" y="-165.6" font-family="Times,serif" font-size="14.00">redirect_back_or_default</text>
<text text-anchor="start" x="7.64795" y="-148.8" font-family="Times,serif" font-size="14.00">require_admin</text>
<text text-anchor="start" x="7.64795" y="-132" font-family="Times,serif" font-size="14.00">require_superuser</text>
<text text-anchor="start" x="7.64795" y="-115.2" font-family="Times,serif" font-size="14.00">require_user</text>
<text text-anchor="start" x="7.64795" y="-98.4" font-family="Times,serif" font-size="14.00">store_location</text>
<text text-anchor="start" x="7.64795" y="-81.6" font-family="Times,serif" font-size="14.00">superuser?</text>
<polyline fill="none" stroke="black" points="-0.352051,-74.8 156.352,-74.8 "/>
<polyline fill="none" stroke="black" points="-0.352051,-50.8 156.352,-50.8 "/>
<text text-anchor="start" x="7.64795" y="-32.8" font-family="Times,serif" font-size="14.00">_layout</text>
</g>
<!-- CollectionsController -->
<g id="node2" class="node"><title>CollectionsController</title>
<path fill="none" stroke="black" d="M186.341,-17.6C186.341,-17.6 299.659,-17.6 299.659,-17.6 305.659,-17.6 311.659,-23.6 311.659,-29.6 311.659,-29.6 311.659,-238.4 311.659,-238.4 311.659,-244.4 305.659,-250.4 299.659,-250.4 299.659,-250.4 186.341,-250.4 186.341,-250.4 180.341,-250.4 174.341,-244.4 174.341,-238.4 174.341,-238.4 174.341,-29.6 174.341,-29.6 174.341,-23.6 180.341,-17.6 186.341,-17.6"/>
<text text-anchor="middle" x="243" y="-232.4" font-family="Times,serif" font-size="14.00">CollectionsController</text>
<polyline fill="none" stroke="black" points="174.341,-225.6 311.659,-225.6 "/>
<text text-anchor="start" x="182.341" y="-207.6" font-family="Times,serif" font-size="14.00">create</text>
<text text-anchor="start" x="182.341" y="-190.8" font-family="Times,serif" font-size="14.00">destroy</text>
<text text-anchor="start" x="182.341" y="-174" font-family="Times,serif" font-size="14.00">edit</text>
<text text-anchor="start" x="182.341" y="-157.2" font-family="Times,serif" font-size="14.00">index</text>
<text text-anchor="start" x="182.341" y="-140.4" font-family="Times,serif" font-size="14.00">new</text>
<text text-anchor="start" x="182.341" y="-123.6" font-family="Times,serif" font-size="14.00">show</text>
<text text-anchor="start" x="182.341" y="-106.8" font-family="Times,serif" font-size="14.00">update</text>
<polyline fill="none" stroke="black" points="174.341,-100 311.659,-100 "/>
<polyline fill="none" stroke="black" points="174.341,-76 311.659,-76 "/>
<text text-anchor="start" x="182.341" y="-58" font-family="Times,serif" font-size="14.00">_layout</text>
<text text-anchor="start" x="182.341" y="-41.2" font-family="Times,serif" font-size="14.00">collection_params</text>
<text text-anchor="start" x="182.341" y="-24.4" font-family="Times,serif" font-size="14.00">set_collection</text>
</g>
<!-- DataTypesController -->
<g id="node3" class="node"><title>DataTypesController</title>
<path fill="none" stroke="black" d="M341.396,-17.6C341.396,-17.6 450.604,-17.6 450.604,-17.6 456.604,-17.6 462.604,-23.6 462.604,-29.6 462.604,-29.6 462.604,-238.4 462.604,-238.4 462.604,-244.4 456.604,-250.4 450.604,-250.4 450.604,-250.4 341.396,-250.4 341.396,-250.4 335.396,-250.4 329.396,-244.4 329.396,-238.4 329.396,-238.4 329.396,-29.6 329.396,-29.6 329.396,-23.6 335.396,-17.6 341.396,-17.6"/>
<text text-anchor="middle" x="396" y="-232.4" font-family="Times,serif" font-size="14.00">DataTypesController</text>
<polyline fill="none" stroke="black" points="329.396,-225.6 462.604,-225.6 "/>
<text text-anchor="start" x="337.396" y="-207.6" font-family="Times,serif" font-size="14.00">create</text>
<text text-anchor="start" x="337.396" y="-190.8" font-family="Times,serif" font-size="14.00">destroy</text>
<text text-anchor="start" x="337.396" y="-174" font-family="Times,serif" font-size="14.00">edit</text>
<text text-anchor="start" x="337.396" y="-157.2" font-family="Times,serif" font-size="14.00">index</text>
<text text-anchor="start" x="337.396" y="-140.4" font-family="Times,serif" font-size="14.00">new</text>
<text text-anchor="start" x="337.396" y="-123.6" font-family="Times,serif" font-size="14.00">show</text>
<text text-anchor="start" x="337.396" y="-106.8" font-family="Times,serif" font-size="14.00">update</text>
<polyline fill="none" stroke="black" points="329.396,-100 462.604,-100 "/>
<polyline fill="none" stroke="black" points="329.396,-76 462.604,-76 "/>
<text text-anchor="start" x="337.396" y="-58" font-family="Times,serif" font-size="14.00">_layout</text>
<text text-anchor="start" x="337.396" y="-41.2" font-family="Times,serif" font-size="14.00">data_type_params</text>
<text text-anchor="start" x="337.396" y="-24.4" font-family="Times,serif" font-size="14.00">set_data_type</text>
</g>
<!-- ListsController -->
<g id="node4" class="node"><title>ListsController</title>
<path fill="none" stroke="black" d="M492.614,-17.6C492.614,-17.6 569.386,-17.6 569.386,-17.6 575.386,-17.6 581.386,-23.6 581.386,-29.6 581.386,-29.6 581.386,-238.4 581.386,-238.4 581.386,-244.4 575.386,-250.4 569.386,-250.4 569.386,-250.4 492.614,-250.4 492.614,-250.4 486.614,-250.4 480.614,-244.4 480.614,-238.4 480.614,-238.4 480.614,-29.6 480.614,-29.6 480.614,-23.6 486.614,-17.6 492.614,-17.6"/>
<text text-anchor="middle" x="531" y="-232.4" font-family="Times,serif" font-size="14.00">ListsController</text>
<polyline fill="none" stroke="black" points="480.614,-225.6 581.386,-225.6 "/>
<text text-anchor="start" x="488.614" y="-207.6" font-family="Times,serif" font-size="14.00">create</text>
<text text-anchor="start" x="488.614" y="-190.8" font-family="Times,serif" font-size="14.00">destroy</text>
<text text-anchor="start" x="488.614" y="-174" font-family="Times,serif" font-size="14.00">edit</text>
<text text-anchor="start" x="488.614" y="-157.2" font-family="Times,serif" font-size="14.00">index</text>
<text text-anchor="start" x="488.614" y="-140.4" font-family="Times,serif" font-size="14.00">new</text>
<text text-anchor="start" x="488.614" y="-123.6" font-family="Times,serif" font-size="14.00">show</text>
<text text-anchor="start" x="488.614" y="-106.8" font-family="Times,serif" font-size="14.00">update</text>
<polyline fill="none" stroke="black" points="480.614,-100 581.386,-100 "/>
<polyline fill="none" stroke="black" points="480.614,-76 581.386,-76 "/>
<text text-anchor="start" x="488.614" y="-58" font-family="Times,serif" font-size="14.00">_layout</text>
<text text-anchor="start" x="488.614" y="-41.2" font-family="Times,serif" font-size="14.00">list_params</text>
<text text-anchor="start" x="488.614" y="-24.4" font-family="Times,serif" font-size="14.00">set_list</text>
</g>
<!-- PropertiesController -->
<g id="node5" class="node"><title>PropertiesController</title>
<path fill="none" stroke="black" d="M611.845,-17.6C611.845,-17.6 718.155,-17.6 718.155,-17.6 724.155,-17.6 730.155,-23.6 730.155,-29.6 730.155,-29.6 730.155,-238.4 730.155,-238.4 730.155,-244.4 724.155,-250.4 718.155,-250.4 718.155,-250.4 611.845,-250.4 611.845,-250.4 605.845,-250.4 599.845,-244.4 599.845,-238.4 599.845,-238.4 599.845,-29.6 599.845,-29.6 599.845,-23.6 605.845,-17.6 611.845,-17.6"/>
<text text-anchor="middle" x="665" y="-232.4" font-family="Times,serif" font-size="14.00">PropertiesController</text>
<polyline fill="none" stroke="black" points="599.845,-225.6 730.155,-225.6 "/>
<text text-anchor="start" x="607.845" y="-207.6" font-family="Times,serif" font-size="14.00">create</text>
<text text-anchor="start" x="607.845" y="-190.8" font-family="Times,serif" font-size="14.00">destroy</text>
<text text-anchor="start" x="607.845" y="-174" font-family="Times,serif" font-size="14.00">edit</text>
<text text-anchor="start" x="607.845" y="-157.2" font-family="Times,serif" font-size="14.00">index</text>
<text text-anchor="start" x="607.845" y="-140.4" font-family="Times,serif" font-size="14.00">new</text>
<text text-anchor="start" x="607.845" y="-123.6" font-family="Times,serif" font-size="14.00">show</text>
<text text-anchor="start" x="607.845" y="-106.8" font-family="Times,serif" font-size="14.00">update</text>
<polyline fill="none" stroke="black" points="599.845,-100 730.155,-100 "/>
<polyline fill="none" stroke="black" points="599.845,-76 730.155,-76 "/>
<text text-anchor="start" x="607.845" y="-58" font-family="Times,serif" font-size="14.00">_layout</text>
<text text-anchor="start" x="607.845" y="-41.2" font-family="Times,serif" font-size="14.00">property_params</text>
<text text-anchor="start" x="607.845" y="-24.4" font-family="Times,serif" font-size="14.00">set_property</text>
</g>
<!-- RecordsController -->
<g id="node6" class="node"><title>RecordsController</title>
<path fill="none" stroke="black" d="M760.29,-17.6C760.29,-17.6 855.71,-17.6 855.71,-17.6 861.71,-17.6 867.71,-23.6 867.71,-29.6 867.71,-29.6 867.71,-238.4 867.71,-238.4 867.71,-244.4 861.71,-250.4 855.71,-250.4 855.71,-250.4 760.29,-250.4 760.29,-250.4 754.29,-250.4 748.29,-244.4 748.29,-238.4 748.29,-238.4 748.29,-29.6 748.29,-29.6 748.29,-23.6 754.29,-17.6 760.29,-17.6"/>
<text text-anchor="middle" x="808" y="-232.4" font-family="Times,serif" font-size="14.00">RecordsController</text>
<polyline fill="none" stroke="black" points="748.29,-225.6 867.71,-225.6 "/>
<text text-anchor="start" x="756.29" y="-207.6" font-family="Times,serif" font-size="14.00">create</text>
<text text-anchor="start" x="756.29" y="-190.8" font-family="Times,serif" font-size="14.00">destroy</text>
<text text-anchor="start" x="756.29" y="-174" font-family="Times,serif" font-size="14.00">edit</text>
<text text-anchor="start" x="756.29" y="-157.2" font-family="Times,serif" font-size="14.00">index</text>
<text text-anchor="start" x="756.29" y="-140.4" font-family="Times,serif" font-size="14.00">new</text>
<text text-anchor="start" x="756.29" y="-123.6" font-family="Times,serif" font-size="14.00">show</text>
<text text-anchor="start" x="756.29" y="-106.8" font-family="Times,serif" font-size="14.00">update</text>
<polyline fill="none" stroke="black" points="748.29,-100 867.71,-100 "/>
<polyline fill="none" stroke="black" points="748.29,-76 867.71,-76 "/>
<text text-anchor="start" x="756.29" y="-58" font-family="Times,serif" font-size="14.00">_layout</text>
<text text-anchor="start" x="756.29" y="-41.2" font-family="Times,serif" font-size="14.00">record_params</text>
<text text-anchor="start" x="756.29" y="-24.4" font-family="Times,serif" font-size="14.00">set_record</text>
</g>
<!-- SearchController -->
<g id="node7" class="node"><title>SearchController</title>
<path fill="none" stroke="black" d="M897.375,-76.4C897.375,-76.4 1150.62,-76.4 1150.62,-76.4 1156.62,-76.4 1162.62,-82.4 1162.62,-88.4 1162.62,-88.4 1162.62,-179.6 1162.62,-179.6 1162.62,-185.6 1156.62,-191.6 1150.62,-191.6 1150.62,-191.6 897.375,-191.6 897.375,-191.6 891.375,-191.6 885.375,-185.6 885.375,-179.6 885.375,-179.6 885.375,-88.4 885.375,-88.4 885.375,-82.4 891.375,-76.4 897.375,-76.4"/>
<text text-anchor="middle" x="1024" y="-173.6" font-family="Times,serif" font-size="14.00">SearchController</text>
<polyline fill="none" stroke="black" points="885.375,-166.8 1162.62,-166.8 "/>
<text text-anchor="start" x="893.375" y="-148.8" font-family="Times,serif" font-size="14.00">index</text>
<polyline fill="none" stroke="black" points="885.375,-142 1162.62,-142 "/>
<polyline fill="none" stroke="black" points="885.375,-118 1162.62,-118 "/>
<text text-anchor="start" x="893.375" y="-100" font-family="Times,serif" font-size="14.00">_layout</text>
<text text-anchor="start" x="893.375" y="-83.2" font-family="Times,serif" font-size="14.00">sanitize_string_for_elasticsearch_string_query</text>
</g>
<!-- SessionsController -->
<g id="node8" class="node"><title>SessionsController</title>
<path fill="none" stroke="black" d="M1193.11,-59.6C1193.11,-59.6 1290.89,-59.6 1290.89,-59.6 1296.89,-59.6 1302.89,-65.6 1302.89,-71.6 1302.89,-71.6 1302.89,-196.4 1302.89,-196.4 1302.89,-202.4 1296.89,-208.4 1290.89,-208.4 1290.89,-208.4 1193.11,-208.4 1193.11,-208.4 1187.11,-208.4 1181.11,-202.4 1181.11,-196.4 1181.11,-196.4 1181.11,-71.6 1181.11,-71.6 1181.11,-65.6 1187.11,-59.6 1193.11,-59.6"/>
<text text-anchor="middle" x="1242" y="-190.4" font-family="Times,serif" font-size="14.00">SessionsController</text>
<polyline fill="none" stroke="black" points="1181.11,-183.6 1302.89,-183.6 "/>
<text text-anchor="start" x="1189.11" y="-165.6" font-family="Times,serif" font-size="14.00">create</text>
<text text-anchor="start" x="1189.11" y="-148.8" font-family="Times,serif" font-size="14.00">destroy</text>
<text text-anchor="start" x="1189.11" y="-132" font-family="Times,serif" font-size="14.00">new</text>
<polyline fill="none" stroke="black" points="1181.11,-125.2 1302.89,-125.2 "/>
<polyline fill="none" stroke="black" points="1181.11,-101.2 1302.89,-101.2 "/>
<text text-anchor="start" x="1189.11" y="-83.2" font-family="Times,serif" font-size="14.00">_layout</text>
<text text-anchor="start" x="1189.11" y="-66.4" font-family="Times,serif" font-size="14.00">session_params</text>
</g>
<!-- ThingsController -->
<g id="node9" class="node"><title>ThingsController</title>
<path fill="none" stroke="black" d="M1332.78,-0.8C1332.78,-0.8 1421.22,-0.8 1421.22,-0.8 1427.22,-0.8 1433.22,-6.8 1433.22,-12.8 1433.22,-12.8 1433.22,-255.2 1433.22,-255.2 1433.22,-261.2 1427.22,-267.2 1421.22,-267.2 1421.22,-267.2 1332.78,-267.2 1332.78,-267.2 1326.78,-267.2 1320.78,-261.2 1320.78,-255.2 1320.78,-255.2 1320.78,-12.8 1320.78,-12.8 1320.78,-6.8 1326.78,-0.8 1332.78,-0.8"/>
<text text-anchor="middle" x="1377" y="-249.2" font-family="Times,serif" font-size="14.00">ThingsController</text>
<polyline fill="none" stroke="black" points="1320.78,-242.4 1433.22,-242.4 "/>
<text text-anchor="start" x="1328.78" y="-224.4" font-family="Times,serif" font-size="14.00">collection_index</text>
<text text-anchor="start" x="1328.78" y="-207.6" font-family="Times,serif" font-size="14.00">create</text>
<text text-anchor="start" x="1328.78" y="-190.8" font-family="Times,serif" font-size="14.00">destroy</text>
<text text-anchor="start" x="1328.78" y="-174" font-family="Times,serif" font-size="14.00">download_file</text>
<text text-anchor="start" x="1328.78" y="-157.2" font-family="Times,serif" font-size="14.00">edit</text>
<text text-anchor="start" x="1328.78" y="-140.4" font-family="Times,serif" font-size="14.00">index</text>
<text text-anchor="start" x="1328.78" y="-123.6" font-family="Times,serif" font-size="14.00">new_thing</text>
<text text-anchor="start" x="1328.78" y="-106.8" font-family="Times,serif" font-size="14.00">show</text>
<text text-anchor="start" x="1328.78" y="-90" font-family="Times,serif" font-size="14.00">update</text>
<polyline fill="none" stroke="black" points="1320.78,-83.2 1433.22,-83.2 "/>
<polyline fill="none" stroke="black" points="1320.78,-59.2 1433.22,-59.2 "/>
<text text-anchor="start" x="1328.78" y="-41.2" font-family="Times,serif" font-size="14.00">_layout</text>
<text text-anchor="start" x="1328.78" y="-24.4" font-family="Times,serif" font-size="14.00">set_thing</text>
<text text-anchor="start" x="1328.78" y="-7.6" font-family="Times,serif" font-size="14.00">thing_params</text>
</g>
<!-- UsersController -->
<g id="node10" class="node"><title>UsersController</title>
<path fill="none" stroke="black" d="M1463.29,-17.6C1463.29,-17.6 1544.71,-17.6 1544.71,-17.6 1550.71,-17.6 1556.71,-23.6 1556.71,-29.6 1556.71,-29.6 1556.71,-238.4 1556.71,-238.4 1556.71,-244.4 1550.71,-250.4 1544.71,-250.4 1544.71,-250.4 1463.29,-250.4 1463.29,-250.4 1457.29,-250.4 1451.29,-244.4 1451.29,-238.4 1451.29,-238.4 1451.29,-29.6 1451.29,-29.6 1451.29,-23.6 1457.29,-17.6 1463.29,-17.6"/>
<text text-anchor="middle" x="1504" y="-232.4" font-family="Times,serif" font-size="14.00">UsersController</text>
<polyline fill="none" stroke="black" points="1451.29,-225.6 1556.71,-225.6 "/>
<text text-anchor="start" x="1459.29" y="-207.6" font-family="Times,serif" font-size="14.00">create</text>
<text text-anchor="start" x="1459.29" y="-190.8" font-family="Times,serif" font-size="14.00">destroy</text>
<text text-anchor="start" x="1459.29" y="-174" font-family="Times,serif" font-size="14.00">edit</text>
<text text-anchor="start" x="1459.29" y="-157.2" font-family="Times,serif" font-size="14.00">index</text>
<text text-anchor="start" x="1459.29" y="-140.4" font-family="Times,serif" font-size="14.00">new</text>
<text text-anchor="start" x="1459.29" y="-123.6" font-family="Times,serif" font-size="14.00">show</text>
<text text-anchor="start" x="1459.29" y="-106.8" font-family="Times,serif" font-size="14.00">update</text>
<polyline fill="none" stroke="black" points="1451.29,-100 1556.71,-100 "/>
<polyline fill="none" stroke="black" points="1451.29,-76 1556.71,-76 "/>
<text text-anchor="start" x="1459.29" y="-58" font-family="Times,serif" font-size="14.00">_layout</text>
<text text-anchor="start" x="1459.29" y="-41.2" font-family="Times,serif" font-size="14.00">set_user</text>
<text text-anchor="start" x="1459.29" y="-24.4" font-family="Times,serif" font-size="14.00">user_params</text>
</g>
<!-- ValidationTypesController -->
<g id="node11" class="node"><title>ValidationTypesController</title>
<path fill="none" stroke="black" d="M1586.84,-17.6C1586.84,-17.6 1727.16,-17.6 1727.16,-17.6 1733.16,-17.6 1739.16,-23.6 1739.16,-29.6 1739.16,-29.6 1739.16,-238.4 1739.16,-238.4 1739.16,-244.4 1733.16,-250.4 1727.16,-250.4 1727.16,-250.4 1586.84,-250.4 1586.84,-250.4 1580.84,-250.4 1574.84,-244.4 1574.84,-238.4 1574.84,-238.4 1574.84,-29.6 1574.84,-29.6 1574.84,-23.6 1580.84,-17.6 1586.84,-17.6"/>
<text text-anchor="middle" x="1657" y="-232.4" font-family="Times,serif" font-size="14.00">ValidationTypesController</text>
<polyline fill="none" stroke="black" points="1574.84,-225.6 1739.16,-225.6 "/>
<text text-anchor="start" x="1582.84" y="-207.6" font-family="Times,serif" font-size="14.00">create</text>
<text text-anchor="start" x="1582.84" y="-190.8" font-family="Times,serif" font-size="14.00">destroy</text>
<text text-anchor="start" x="1582.84" y="-174" font-family="Times,serif" font-size="14.00">edit</text>
<text text-anchor="start" x="1582.84" y="-157.2" font-family="Times,serif" font-size="14.00">index</text>
<text text-anchor="start" x="1582.84" y="-140.4" font-family="Times,serif" font-size="14.00">new</text>
<text text-anchor="start" x="1582.84" y="-123.6" font-family="Times,serif" font-size="14.00">show</text>
<text text-anchor="start" x="1582.84" y="-106.8" font-family="Times,serif" font-size="14.00">update</text>
<polyline fill="none" stroke="black" points="1574.84,-100 1739.16,-100 "/>
<polyline fill="none" stroke="black" points="1574.84,-76 1739.16,-76 "/>
<text text-anchor="start" x="1582.84" y="-58" font-family="Times,serif" font-size="14.00">_layout</text>
<text text-anchor="start" x="1582.84" y="-41.2" font-family="Times,serif" font-size="14.00">set_validation_type</text>
<text text-anchor="start" x="1582.84" y="-24.4" font-family="Times,serif" font-size="14.00">validation_type_params</text>
</g>
</g>
</svg>
