<?xml version="1.0" encoding="UTF-8" standalone="no"?>
<!DOCTYPE svg PUBLIC "-//W3C//DTD SVG 1.1//EN"
 "http://www.w3.org/Graphics/SVG/1.1/DTD/svg11.dtd">
<!-- Generated by graphviz version 2.34.0 (20130916.1407)
 -->
<!-- Title: controllers_diagram Pages: 1 -->
<svg width="631pt" height="350pt"
 viewBox="0.00 0.00 631.38 350.00" xmlns="http://www.w3.org/2000/svg" xmlns:xlink="http://www.w3.org/1999/xlink">
<g id="graph0" class="graph" transform="scale(1 1) rotate(0) translate(4 346)">
<title>controllers_diagram</title>
<polygon fill="white" stroke="white" points="-4,4 -4,-346 627.375,-346 627.375,4 -4,4"/>
<!-- _diagram_info -->
<g id="node1" class="node"><title>_diagram_info</title>
<text text-anchor="start" x="424" y="-325" font-family="Times,serif" font-size="13.00">Controllers diagram</text>
<text text-anchor="start" x="424" y="-309.4" font-family="Times,serif" font-size="13.00">Date: Sep 16 2013 &#45; 16:02</text>
<text text-anchor="start" x="424" y="-293.8" font-family="Times,serif" font-size="13.00">Migration version: 20130916135233</text>
<text text-anchor="start" x="424" y="-278.2" font-family="Times,serif" font-size="13.00">Generated by RailRoady 1.1.1</text>
<text text-anchor="start" x="424" y="-262.6" font-family="Times,serif" font-size="13.00">http://railroady.prestonlee.com</text>
</g>
<!-- ApplicationController -->
<g id="node2" class="node"><title>ApplicationController</title>
<ellipse fill="none" stroke="black" cx="288.022" cy="-119.814" rx="96.1448" ry="18"/>
<text text-anchor="middle" x="288.022" y="-114.214" font-family="Times,serif" font-size="14.00">ApplicationController</text>
</g>
<!-- CollectionsController -->
<g id="node3" class="node"><title>CollectionsController</title>
<ellipse fill="none" stroke="black" cx="459.621" cy="-43.3155" rx="94.9386" ry="18"/>
<text text-anchor="middle" x="459.621" y="-37.7155" font-family="Times,serif" font-size="14.00">CollectionsController</text>
</g>
<!-- ApplicationController&#45;&gt;CollectionsController -->
<g id="edge1" class="edge"><title>ApplicationController&#45;&gt;CollectionsController</title>
<path fill="none" stroke="black" d="M325.68,-103.026C352.82,-90.9274 389.46,-74.5929 417.559,-62.0668"/>
<polyline fill="none" stroke="black" points="422.346,-59.9326 417.779,-61.9685 "/>
</g>
<!-- DataTypesController -->
<g id="node4" class="node"><title>DataTypesController</title>
<ellipse fill="none" stroke="black" cx="287.87" cy="-18" rx="91.7704" ry="18"/>
<text text-anchor="middle" x="287.87" y="-12.4" font-family="Times,serif" font-size="14.00">DataTypesController</text>
</g>
<!-- ApplicationController&#45;&gt;DataTypesController -->
<g id="edge2" class="edge"><title>ApplicationController&#45;&gt;DataTypesController</title>
<path fill="none" stroke="black" d="M287.995,-101.612C287.97,-84.817 287.932,-59.7866 287.905,-41.4902"/>
<polyline fill="none" stroke="black" points="287.897,-36.0447 287.904,-41.0447 "/>
</g>
<!-- PropertiesController -->
<g id="node5" class="node"><title>PropertiesController</title>
<ellipse fill="none" stroke="black" cx="114.056" cy="-196.395" rx="89.7718" ry="18"/>
<text text-anchor="middle" x="114.056" y="-190.795" font-family="Times,serif" font-size="14.00">PropertiesController</text>
</g>
<!-- ApplicationController&#45;&gt;PropertiesController -->
<g id="edge3" class="edge"><title>ApplicationController&#45;&gt;PropertiesController</title>
<path fill="none" stroke="black" d="M250.274,-136.431C222.595,-148.615 184.999,-165.165 156.316,-177.792"/>
<polyline fill="none" stroke="black" points="151.431,-179.942 156.007,-177.928 "/>
</g>
<!-- RecordsController -->
<g id="node6" class="node"><title>RecordsController</title>
<ellipse fill="none" stroke="black" cx="460.261" cy="-195.827" rx="82.2489" ry="18"/>
<text text-anchor="middle" x="460.261" y="-190.227" font-family="Times,serif" font-size="14.00">RecordsController</text>
</g>
<!-- ApplicationController&#45;&gt;RecordsController -->
<g id="edge4" class="edge"><title>ApplicationController&#45;&gt;RecordsController</title>
<path fill="none" stroke="black" d="M325.821,-136.495C353.249,-148.6 390.345,-164.971 418.622,-177.451"/>
<polyline fill="none" stroke="black" points="423.438,-179.576 418.863,-177.557 "/>
</g>
<!-- ThingsController -->
<g id="node7" class="node"><title>ThingsController</title>
<ellipse fill="none" stroke="black" cx="289.565" cy="-221.59" rx="77.6107" ry="18"/>
<text text-anchor="middle" x="289.565" y="-215.99" font-family="Times,serif" font-size="14.00">ThingsController</text>
</g>
<!-- ApplicationController&#45;&gt;ThingsController -->
<g id="edge5" class="edge"><title>ApplicationController&#45;&gt;ThingsController</title>
<path fill="none" stroke="black" d="M288.298,-138.01C288.553,-154.798 288.932,-179.819 289.209,-198.108"/>
<polyline fill="none" stroke="black" points="289.292,-203.552 289.216,-198.552 "/>
</g>
<!-- ValidationTypesController -->
<g id="node8" class="node"><title>ValidationTypesController</title>
<ellipse fill="none" stroke="black" cx="113.349" cy="-43.7129" rx="113.199" ry="18"/>
<text text-anchor="middle" x="113.349" y="-38.1129" font-family="Times,serif" font-size="14.00">ValidationTypesController</text>
</g>
<!-- ApplicationController&#45;&gt;ValidationTypesController -->
<g id="edge6" class="edge"><title>ApplicationController&#45;&gt;ValidationTypesController</title>
<path fill="none" stroke="black" d="M249.689,-103.113C222.349,-91.2016 185.535,-75.1625 157.052,-62.7534"/>
<polyline fill="none" stroke="black" points="152.196,-60.6377 156.78,-62.6348 "/>
</g>
</g>
</svg>
