<?xml version="1.0" encoding="UTF-8" standalone="no"?>
<!DOCTYPE svg PUBLIC "-//W3C//DTD SVG 1.1//EN"
 "http://www.w3.org/Graphics/SVG/1.1/DTD/svg11.dtd">
<!-- Generated by graphviz version 2.34.0 (20130915.1124)
 -->
<!-- Title: models_diagram Pages: 1 -->
<svg width="1345pt" height="830pt"
 viewBox="0.00 0.00 1344.66 830.00" xmlns="http://www.w3.org/2000/svg" xmlns:xlink="http://www.w3.org/1999/xlink">
<g id="graph0" class="graph" transform="scale(1 1) rotate(0) translate(4 826)">
<title>models_diagram</title>
<polygon fill="white" stroke="white" points="-4,4 -4,-826 1340.66,-826 1340.66,4 -4,4"/>
<!-- _diagram_info -->
<g id="node1" class="node"><title>_diagram_info</title>
<text text-anchor="start" x="189.971" y="-805" font-family="Times,serif" font-size="13.00">Models diagram</text>
<text text-anchor="start" x="189.971" y="-789.4" font-family="Times,serif" font-size="13.00">Date: Sep 16 2013 &#45; 20:59</text>
<text text-anchor="start" x="189.971" y="-773.8" font-family="Times,serif" font-size="13.00">Migration version: 20130916135233</text>
<text text-anchor="start" x="189.971" y="-758.2" font-family="Times,serif" font-size="13.00">Generated by RailRoady 1.1.1</text>
<text text-anchor="start" x="189.971" y="-742.6" font-family="Times,serif" font-size="13.00">http://railroady.prestonlee.com</text>
</g>
<!-- Collection -->
<g id="node2" class="node"><title>Collection</title>
<path fill="none" stroke="black" d="M213.153,-573.6C213.153,-573.6 322.164,-573.6 322.164,-573.6 328.164,-573.6 334.164,-579.6 334.164,-585.6 334.164,-585.6 334.164,-678.4 334.164,-678.4 334.164,-684.4 328.164,-690.4 322.164,-690.4 322.164,-690.4 213.153,-690.4 213.153,-690.4 207.153,-690.4 201.153,-684.4 201.153,-678.4 201.153,-678.4 201.153,-585.6 201.153,-585.6 201.153,-579.6 207.153,-573.6 213.153,-573.6"/>
<text text-anchor="middle" x="267.658" y="-672.4" font-family="Times,serif" font-size="14.00">Collection</text>
<polyline fill="none" stroke="black" points="201.153,-665.6 334.164,-665.6 "/>
<text text-anchor="start" x="209.153" y="-647.6" font-family="Times,serif" font-size="14.00">id :integer</text>
<text text-anchor="start" x="209.153" y="-630.8" font-family="Times,serif" font-size="14.00">name :string</text>
<text text-anchor="start" x="209.153" y="-614" font-family="Times,serif" font-size="14.00">slug :string</text>
<text text-anchor="start" x="209.153" y="-597.2" font-family="Times,serif" font-size="14.00">created_at :datetime</text>
<text text-anchor="start" x="209.153" y="-580.4" font-family="Times,serif" font-size="14.00">updated_at :datetime</text>
</g>
<!-- Property -->
<g id="node11" class="node"><title>Property</title>
<path fill="none" stroke="black" d="M58.984,-360.4C58.984,-360.4 170.333,-360.4 170.333,-360.4 176.333,-360.4 182.333,-366.4 182.333,-372.4 182.333,-372.4 182.333,-515.6 182.333,-515.6 182.333,-521.6 176.333,-527.6 170.333,-527.6 170.333,-527.6 58.984,-527.6 58.984,-527.6 52.984,-527.6 46.984,-521.6 46.984,-515.6 46.984,-515.6 46.984,-372.4 46.984,-372.4 46.984,-366.4 52.984,-360.4 58.984,-360.4"/>
<text text-anchor="middle" x="114.658" y="-509.6" font-family="Times,serif" font-size="14.00">Property</text>
<polyline fill="none" stroke="black" points="46.984,-502.8 182.333,-502.8 "/>
<text text-anchor="start" x="54.984" y="-484.8" font-family="Times,serif" font-size="14.00">id :integer</text>
<text text-anchor="start" x="54.984" y="-468" font-family="Times,serif" font-size="14.00">name :string</text>
<text text-anchor="start" x="54.984" y="-451.2" font-family="Times,serif" font-size="14.00">slug :string</text>
<text text-anchor="start" x="54.984" y="-434.4" font-family="Times,serif" font-size="14.00">help :text</text>
<text text-anchor="start" x="54.984" y="-417.6" font-family="Times,serif" font-size="14.00">data_type_id :integer</text>
<text text-anchor="start" x="54.984" y="-400.8" font-family="Times,serif" font-size="14.00">collection_id :integer</text>
<text text-anchor="start" x="54.984" y="-384" font-family="Times,serif" font-size="14.00">created_at :datetime</text>
<text text-anchor="start" x="54.984" y="-367.2" font-family="Times,serif" font-size="14.00">updated_at :datetime</text>
</g>
<!-- Collection&#45;&gt;Property -->
<g id="edge2" class="edge"><title>Collection&#45;&gt;Property</title>
<path fill="none" stroke="#dac88d" d="M215.199,-567.225C206.748,-556.952 197.862,-546.149 189.013,-535.393"/>
<ellipse fill="none" stroke="#dac88d" cx="217.755" cy="-570.333" rx="4.00002" ry="4.00002"/>
<polygon fill="#dac88d" stroke="#dac88d" points="188.937,-535.3 186.06,-524.718 185.761,-531.438 182.584,-527.577 182.584,-527.577 182.584,-527.577 185.761,-531.438 179.109,-530.435 188.937,-535.3 188.937,-535.3"/>
</g>
<!-- Thing -->
<g id="node13" class="node"><title>Thing</title>
<path fill="none" stroke="black" d="M402.984,-394C402.984,-394 514.333,-394 514.333,-394 520.333,-394 526.333,-400 526.333,-406 526.333,-406 526.333,-482 526.333,-482 526.333,-488 520.333,-494 514.333,-494 514.333,-494 402.984,-494 402.984,-494 396.984,-494 390.984,-488 390.984,-482 390.984,-482 390.984,-406 390.984,-406 390.984,-400 396.984,-394 402.984,-394"/>
<text text-anchor="middle" x="458.658" y="-476" font-family="Times,serif" font-size="14.00">Thing</text>
<polyline fill="none" stroke="black" points="390.984,-469.2 526.333,-469.2 "/>
<text text-anchor="start" x="398.984" y="-451.2" font-family="Times,serif" font-size="14.00">id :integer</text>
<text text-anchor="start" x="398.984" y="-434.4" font-family="Times,serif" font-size="14.00">collection_id :integer</text>
<text text-anchor="start" x="398.984" y="-417.6" font-family="Times,serif" font-size="14.00">created_at :datetime</text>
<text text-anchor="start" x="398.984" y="-400.8" font-family="Times,serif" font-size="14.00">updated_at :datetime</text>
</g>
<!-- Collection&#45;&gt;Thing -->
<g id="edge1" class="edge"><title>Collection&#45;&gt;Thing</title>
<path fill="none" stroke="#f57c25" d="M332.656,-567.704C354.826,-546.115 379.445,-522.139 400.998,-501.151"/>
<ellipse fill="none" stroke="#f57c25" cx="329.65" cy="-570.632" rx="4.00002" ry="4.00002"/>
<polygon fill="#f57c25" stroke="#f57c25" points="401.017,-501.132 411.321,-497.379 404.599,-497.644 408.182,-494.155 408.182,-494.155 408.182,-494.155 404.599,-497.644 405.042,-490.932 401.017,-501.132 401.017,-501.132"/>
</g>
<!-- Content -->
<g id="node3" class="node"><title>Content</title>
<path fill="none" stroke="black" d="M753.205,-172.8C753.205,-172.8 880.112,-172.8 880.112,-172.8 886.112,-172.8 892.112,-178.8 892.112,-184.8 892.112,-184.8 892.112,-311.2 892.112,-311.2 892.112,-317.2 886.112,-323.2 880.112,-323.2 880.112,-323.2 753.205,-323.2 753.205,-323.2 747.205,-323.2 741.205,-317.2 741.205,-311.2 741.205,-311.2 741.205,-184.8 741.205,-184.8 741.205,-178.8 747.205,-172.8 753.205,-172.8"/>
<text text-anchor="middle" x="816.658" y="-305.2" font-family="Times,serif" font-size="14.00">Content</text>
<polyline fill="none" stroke="black" points="741.205,-298.4 892.112,-298.4 "/>
<text text-anchor="start" x="749.205" y="-280.4" font-family="Times,serif" font-size="14.00">id :integer</text>
<text text-anchor="start" x="749.205" y="-263.6" font-family="Times,serif" font-size="14.00">thing_id :integer</text>
<text text-anchor="start" x="749.205" y="-246.8" font-family="Times,serif" font-size="14.00">property_id :integer</text>
<text text-anchor="start" x="749.205" y="-230" font-family="Times,serif" font-size="14.00">contentable_id :integer</text>
<text text-anchor="start" x="749.205" y="-213.2" font-family="Times,serif" font-size="14.00">contentable_type :string</text>
<text text-anchor="start" x="749.205" y="-196.4" font-family="Times,serif" font-size="14.00">created_at :datetime</text>
<text text-anchor="start" x="749.205" y="-179.6" font-family="Times,serif" font-size="14.00">updated_at :datetime</text>
</g>
<!-- ContentBoolean -->
<g id="node4" class="node"><title>ContentBoolean</title>
<path fill="none" stroke="black" d="M876.153,-394C876.153,-394 985.164,-394 985.164,-394 991.164,-394 997.164,-400 997.164,-406 997.164,-406 997.164,-482 997.164,-482 997.164,-488 991.164,-494 985.164,-494 985.164,-494 876.153,-494 876.153,-494 870.153,-494 864.153,-488 864.153,-482 864.153,-482 864.153,-406 864.153,-406 864.153,-400 870.153,-394 876.153,-394"/>
<text text-anchor="middle" x="930.658" y="-476" font-family="Times,serif" font-size="14.00">ContentBoolean</text>
<polyline fill="none" stroke="black" points="864.153,-469.2 997.164,-469.2 "/>
<text text-anchor="start" x="872.153" y="-451.2" font-family="Times,serif" font-size="14.00">id :integer</text>
<text text-anchor="start" x="872.153" y="-434.4" font-family="Times,serif" font-size="14.00">value :boolean</text>
<text text-anchor="start" x="872.153" y="-417.6" font-family="Times,serif" font-size="14.00">created_at :datetime</text>
<text text-anchor="start" x="872.153" y="-400.8" font-family="Times,serif" font-size="14.00">updated_at :datetime</text>
</g>
<!-- ContentBoolean&#45;&gt;Content -->
<g id="edge5" class="edge"><title>ContentBoolean&#45;&gt;Content</title>
<path fill="none" stroke="#1876d4" d="M897.549,-386.657C887.222,-369.082 875.618,-349.334 864.491,-330.4"/>
<ellipse fill="none" stroke="#1876d4" cx="899.717" cy="-390.346" rx="4.00002" ry="4.00002"/>
<ellipse fill="#1876d4" stroke="#1876d4" cx="862.444" cy="-326.916" rx="4.00002" ry="4.00002"/>
</g>
<!-- ContentDatetime -->
<g id="node5" class="node"><title>ContentDatetime</title>
<path fill="none" stroke="black" d="M1027.15,-394C1027.15,-394 1136.16,-394 1136.16,-394 1142.16,-394 1148.16,-400 1148.16,-406 1148.16,-406 1148.16,-482 1148.16,-482 1148.16,-488 1142.16,-494 1136.16,-494 1136.16,-494 1027.15,-494 1027.15,-494 1021.15,-494 1015.15,-488 1015.15,-482 1015.15,-482 1015.15,-406 1015.15,-406 1015.15,-400 1021.15,-394 1027.15,-394"/>
<text text-anchor="middle" x="1081.66" y="-476" font-family="Times,serif" font-size="14.00">ContentDatetime</text>
<polyline fill="none" stroke="black" points="1015.15,-469.2 1148.16,-469.2 "/>
<text text-anchor="start" x="1023.15" y="-451.2" font-family="Times,serif" font-size="14.00">id :integer</text>
<text text-anchor="start" x="1023.15" y="-434.4" font-family="Times,serif" font-size="14.00">value :datetime</text>
<text text-anchor="start" x="1023.15" y="-417.6" font-family="Times,serif" font-size="14.00">created_at :datetime</text>
<text text-anchor="start" x="1023.15" y="-400.8" font-family="Times,serif" font-size="14.00">updated_at :datetime</text>
</g>
<!-- ContentDatetime&#45;&gt;Content -->
<g id="edge7" class="edge"><title>ContentDatetime&#45;&gt;Content</title>
<path fill="none" stroke="#46294d" d="M1035.22,-387.577C1025.91,-377.865 1015.85,-368.243 1005.66,-360 973.206,-333.745 933.862,-309.61 899.491,-290.598"/>
<ellipse fill="none" stroke="#46294d" cx="1038.18" cy="-390.712" rx="4.00002" ry="4.00002"/>
<ellipse fill="#46294d" stroke="#46294d" cx="895.744" cy="-288.543" rx="4.00002" ry="4.00002"/>
</g>
<!-- ContentFile -->
<g id="node6" class="node"><title>ContentFile</title>
<path fill="none" stroke="black" d="M1178.49,-368.8C1178.49,-368.8 1324.82,-368.8 1324.82,-368.8 1330.82,-368.8 1336.82,-374.8 1336.82,-380.8 1336.82,-380.8 1336.82,-507.2 1336.82,-507.2 1336.82,-513.2 1330.82,-519.2 1324.82,-519.2 1324.82,-519.2 1178.49,-519.2 1178.49,-519.2 1172.49,-519.2 1166.49,-513.2 1166.49,-507.2 1166.49,-507.2 1166.49,-380.8 1166.49,-380.8 1166.49,-374.8 1172.49,-368.8 1178.49,-368.8"/>
<text text-anchor="middle" x="1251.66" y="-501.2" font-family="Times,serif" font-size="14.00">ContentFile</text>
<polyline fill="none" stroke="black" points="1166.49,-494.4 1336.82,-494.4 "/>
<text text-anchor="start" x="1174.49" y="-476.4" font-family="Times,serif" font-size="14.00">id :integer</text>
<text text-anchor="start" x="1174.49" y="-459.6" font-family="Times,serif" font-size="14.00">value_file_name :string</text>
<text text-anchor="start" x="1174.49" y="-442.8" font-family="Times,serif" font-size="14.00">value_content_type :string</text>
<text text-anchor="start" x="1174.49" y="-426" font-family="Times,serif" font-size="14.00">value_file_size :integer</text>
<text text-anchor="start" x="1174.49" y="-409.2" font-family="Times,serif" font-size="14.00">value_updated_at :datetime</text>
<text text-anchor="start" x="1174.49" y="-392.4" font-family="Times,serif" font-size="14.00">created_at :datetime</text>
<text text-anchor="start" x="1174.49" y="-375.6" font-family="Times,serif" font-size="14.00">updated_at :datetime</text>
</g>
<!-- ContentFile&#45;&gt;Content -->
<g id="edge9" class="edge"><title>ContentFile&#45;&gt;Content</title>
<path fill="none" stroke="#d674e9" d="M1163.63,-364.157C1161.32,-362.715 1158.99,-361.326 1156.66,-360 1075.18,-313.691 971.59,-283.403 900.286,-266.343"/>
<ellipse fill="none" stroke="#d674e9" cx="1167.19" cy="-366.463" rx="4.00002" ry="4.00002"/>
<ellipse fill="#d674e9" stroke="#d674e9" cx="896.082" cy="-265.349" rx="4.00001" ry="4.00001"/>
</g>
<!-- ContentFixnum -->
<g id="node7" class="node"><title>ContentFixnum</title>
<path fill="none" stroke="black" d="M441.153,-582C441.153,-582 550.164,-582 550.164,-582 556.164,-582 562.164,-588 562.164,-594 562.164,-594 562.164,-670 562.164,-670 562.164,-676 556.164,-682 550.164,-682 550.164,-682 441.153,-682 441.153,-682 435.153,-682 429.153,-676 429.153,-670 429.153,-670 429.153,-594 429.153,-594 429.153,-588 435.153,-582 441.153,-582"/>
<text text-anchor="middle" x="495.658" y="-664" font-family="Times,serif" font-size="14.00">ContentFixnum</text>
<polyline fill="none" stroke="black" points="429.153,-657.2 562.164,-657.2 "/>
<text text-anchor="start" x="437.153" y="-639.2" font-family="Times,serif" font-size="14.00">id :integer</text>
<text text-anchor="start" x="437.153" y="-622.4" font-family="Times,serif" font-size="14.00">value :integer</text>
<text text-anchor="start" x="437.153" y="-605.6" font-family="Times,serif" font-size="14.00">created_at :datetime</text>
<text text-anchor="start" x="437.153" y="-588.8" font-family="Times,serif" font-size="14.00">updated_at :datetime</text>
</g>
<!-- ContentFixnum&#45;&gt;Content -->
<g id="edge11" class="edge"><title>ContentFixnum&#45;&gt;Content</title>
<path fill="none" stroke="#07f451" d="M531.464,-575.222C568.934,-518.579 630.942,-429.545 693.658,-360 706.384,-345.888 720.733,-331.668 735.02,-318.335"/>
<ellipse fill="none" stroke="#07f451" cx="529.219" cy="-578.626" rx="4.00002" ry="4.00002"/>
<ellipse fill="#07f451" stroke="#07f451" cx="738.198" cy="-315.395" rx="4.00002" ry="4.00002"/>
</g>
<!-- ContentString -->
<g id="node8" class="node"><title>ContentString</title>
<path fill="none" stroke="black" d="M592.153,-582C592.153,-582 701.164,-582 701.164,-582 707.164,-582 713.164,-588 713.164,-594 713.164,-594 713.164,-670 713.164,-670 713.164,-676 707.164,-682 701.164,-682 701.164,-682 592.153,-682 592.153,-682 586.153,-682 580.153,-676 580.153,-670 580.153,-670 580.153,-594 580.153,-594 580.153,-588 586.153,-582 592.153,-582"/>
<text text-anchor="middle" x="646.658" y="-664" font-family="Times,serif" font-size="14.00">ContentString</text>
<polyline fill="none" stroke="black" points="580.153,-657.2 713.164,-657.2 "/>
<text text-anchor="start" x="588.153" y="-639.2" font-family="Times,serif" font-size="14.00">id :integer</text>
<text text-anchor="start" x="588.153" y="-622.4" font-family="Times,serif" font-size="14.00">value :string</text>
<text text-anchor="start" x="588.153" y="-605.6" font-family="Times,serif" font-size="14.00">created_at :datetime</text>
<text text-anchor="start" x="588.153" y="-588.8" font-family="Times,serif" font-size="14.00">updated_at :datetime</text>
</g>
<!-- ContentString&#45;&gt;Content -->
<g id="edge13" class="edge"><title>ContentString&#45;&gt;Content</title>
<path fill="none" stroke="#dc7258" d="M671.876,-574.334C700.569,-509.859 747.67,-404.02 780.323,-330.648"/>
<ellipse fill="none" stroke="#dc7258" cx="670.161" cy="-578.188" rx="4.00002" ry="4.00002"/>
<ellipse fill="#dc7258" stroke="#dc7258" cx="782.008" cy="-326.861" rx="4.00002" ry="4.00002"/>
</g>
<!-- ContentText -->
<g id="node9" class="node"><title>ContentText</title>
<path fill="none" stroke="black" d="M743.153,-582C743.153,-582 852.164,-582 852.164,-582 858.164,-582 864.164,-588 864.164,-594 864.164,-594 864.164,-670 864.164,-670 864.164,-676 858.164,-682 852.164,-682 852.164,-682 743.153,-682 743.153,-682 737.153,-682 731.153,-676 731.153,-670 731.153,-670 731.153,-594 731.153,-594 731.153,-588 737.153,-582 743.153,-582"/>
<text text-anchor="middle" x="797.658" y="-664" font-family="Times,serif" font-size="14.00">ContentText</text>
<polyline fill="none" stroke="black" points="731.153,-657.2 864.164,-657.2 "/>
<text text-anchor="start" x="739.153" y="-639.2" font-family="Times,serif" font-size="14.00">id :integer</text>
<text text-anchor="start" x="739.153" y="-622.4" font-family="Times,serif" font-size="14.00">value :text</text>
<text text-anchor="start" x="739.153" y="-605.6" font-family="Times,serif" font-size="14.00">created_at :datetime</text>
<text text-anchor="start" x="739.153" y="-588.8" font-family="Times,serif" font-size="14.00">updated_at :datetime</text>
</g>
<!-- ContentText&#45;&gt;Content -->
<g id="edge15" class="edge"><title>ContentText&#45;&gt;Content</title>
<path fill="none" stroke="#dd40e8" d="M800.517,-573.52C803.715,-509.223 808.922,-404.533 812.555,-331.505"/>
<ellipse fill="none" stroke="#dd40e8" cx="800.302" cy="-577.847" rx="4" ry="4"/>
<ellipse fill="#dd40e8" stroke="#dd40e8" cx="812.769" cy="-327.202" rx="4" ry="4"/>
</g>
<!-- DataType -->
<g id="node10" class="node"><title>DataType</title>
<path fill="none" stroke="black" d="M58.2013,-565.2C58.2013,-565.2 171.115,-565.2 171.115,-565.2 177.115,-565.2 183.115,-571.2 183.115,-577.2 183.115,-577.2 183.115,-686.8 183.115,-686.8 183.115,-692.8 177.115,-698.8 171.115,-698.8 171.115,-698.8 58.2013,-698.8 58.2013,-698.8 52.2013,-698.8 46.2013,-692.8 46.2013,-686.8 46.2013,-686.8 46.2013,-577.2 46.2013,-577.2 46.2013,-571.2 52.2013,-565.2 58.2013,-565.2"/>
<text text-anchor="middle" x="114.658" y="-680.8" font-family="Times,serif" font-size="14.00">DataType</text>
<polyline fill="none" stroke="black" points="46.2013,-674 183.115,-674 "/>
<text text-anchor="start" x="54.2013" y="-656" font-family="Times,serif" font-size="14.00">id :integer</text>
<text text-anchor="start" x="54.2013" y="-639.2" font-family="Times,serif" font-size="14.00">friendly_name :string</text>
<text text-anchor="start" x="54.2013" y="-622.4" font-family="Times,serif" font-size="14.00">name :string</text>
<text text-anchor="start" x="54.2013" y="-605.6" font-family="Times,serif" font-size="14.00">help :text</text>
<text text-anchor="start" x="54.2013" y="-588.8" font-family="Times,serif" font-size="14.00">created_at :datetime</text>
<text text-anchor="start" x="54.2013" y="-572" font-family="Times,serif" font-size="14.00">updated_at :datetime</text>
</g>
<!-- DataType&#45;&gt;Property -->
<g id="edge17" class="edge"><title>DataType&#45;&gt;Property</title>
<path fill="none" stroke="#9e9940" d="M114.658,-557.119C114.658,-550.775 114.658,-544.307 114.658,-537.841"/>
<ellipse fill="none" stroke="#9e9940" cx="114.658" cy="-561.162" rx="4" ry="4"/>
<polygon fill="#9e9940" stroke="#9e9940" points="114.658,-537.697 119.158,-527.697 114.658,-532.697 114.658,-527.697 114.658,-527.697 114.658,-527.697 114.658,-532.697 110.158,-527.697 114.658,-537.697 114.658,-537.697"/>
</g>
<!-- PropertyValidation -->
<g id="node12" class="node"><title>PropertyValidation</title>
<path fill="none" stroke="black" d="M146.039,-1.2C146.039,-1.2 289.277,-1.2 289.277,-1.2 295.277,-1.2 301.277,-7.2 301.277,-13.2 301.277,-13.2 301.277,-122.8 301.277,-122.8 301.277,-128.8 295.277,-134.8 289.277,-134.8 289.277,-134.8 146.039,-134.8 146.039,-134.8 140.039,-134.8 134.039,-128.8 134.039,-122.8 134.039,-122.8 134.039,-13.2 134.039,-13.2 134.039,-7.2 140.039,-1.2 146.039,-1.2"/>
<text text-anchor="middle" x="217.658" y="-116.8" font-family="Times,serif" font-size="14.00">PropertyValidation</text>
<polyline fill="none" stroke="black" points="134.039,-110 301.277,-110 "/>
<text text-anchor="start" x="142.039" y="-92" font-family="Times,serif" font-size="14.00">id :integer</text>
<text text-anchor="start" x="142.039" y="-75.2" font-family="Times,serif" font-size="14.00">validation_type_id :integer</text>
<text text-anchor="start" x="142.039" y="-58.4" font-family="Times,serif" font-size="14.00">property_id :integer</text>
<text text-anchor="start" x="142.039" y="-41.6" font-family="Times,serif" font-size="14.00">value :string</text>
<text text-anchor="start" x="142.039" y="-24.8" font-family="Times,serif" font-size="14.00">created_at :datetime</text>
<text text-anchor="start" x="142.039" y="-8" font-family="Times,serif" font-size="14.00">updated_at :datetime</text>
</g>
<!-- Property&#45;&gt;PropertyValidation -->
<g id="edge19" class="edge"><title>Property&#45;&gt;PropertyValidation</title>
<path fill="none" stroke="#c9f367" d="M185.31,-353.13C190.525,-343.651 195.119,-333.863 198.658,-324 219.58,-265.695 223.339,-195.192 222.429,-143.109"/>
<ellipse fill="none" stroke="#c9f367" cx="183.191" cy="-356.84" rx="4.00002" ry="4.00002"/>
<ellipse fill="#c9f367" stroke="#c9f367" cx="222.335" cy="-138.912" rx="4" ry="4"/>
</g>
<!-- ValidationType -->
<g id="node14" class="node"><title>ValidationType</title>
<path fill="none" stroke="black" d="M51.6012,-172.8C51.6012,-172.8 177.715,-172.8 177.715,-172.8 183.715,-172.8 189.715,-178.8 189.715,-184.8 189.715,-184.8 189.715,-311.2 189.715,-311.2 189.715,-317.2 183.715,-323.2 177.715,-323.2 177.715,-323.2 51.6012,-323.2 51.6012,-323.2 45.6012,-323.2 39.6012,-317.2 39.6012,-311.2 39.6012,-311.2 39.6012,-184.8 39.6012,-184.8 39.6012,-178.8 45.6012,-172.8 51.6012,-172.8"/>
<text text-anchor="middle" x="114.658" y="-305.2" font-family="Times,serif" font-size="14.00">ValidationType</text>
<polyline fill="none" stroke="black" points="39.6012,-298.4 189.715,-298.4 "/>
<text text-anchor="start" x="47.6012" y="-280.4" font-family="Times,serif" font-size="14.00">id :integer</text>
<text text-anchor="start" x="47.6012" y="-263.6" font-family="Times,serif" font-size="14.00">friendly_name :string</text>
<text text-anchor="start" x="47.6012" y="-246.8" font-family="Times,serif" font-size="14.00">name :string</text>
<text text-anchor="start" x="47.6012" y="-230" font-family="Times,serif" font-size="14.00">help :text</text>
<text text-anchor="start" x="47.6012" y="-213.2" font-family="Times,serif" font-size="14.00">requires_value :boolean</text>
<text text-anchor="start" x="47.6012" y="-196.4" font-family="Times,serif" font-size="14.00">created_at :datetime</text>
<text text-anchor="start" x="47.6012" y="-179.6" font-family="Times,serif" font-size="14.00">updated_at :datetime</text>
</g>
<!-- Property&#45;&gt;ValidationType -->
<g id="edge20" class="edge"><title>Property&#45;&gt;ValidationType</title>
<path fill="none" stroke="#f6aea0" d="M107.92,-352.085C107.893,-345.15 107.912,-338.172 107.978,-331.296"/>
<ellipse fill="none" stroke="#f6aea0" cx="107.947" cy="-356.164" rx="4" ry="4"/>
<ellipse fill="#f6aea0" stroke="#f6aea0" cx="108.027" cy="-327.278" rx="4" ry="4"/>
</g>
<!-- Thing&#45;&gt;Content -->
<g id="edge23" class="edge"><title>Thing&#45;&gt;Content</title>
<path fill="none" stroke="#dad30a" d="M533.719,-402.325C591.65,-370.932 671.807,-327.495 732.018,-294.867"/>
<ellipse fill="none" stroke="#dad30a" cx="529.933" cy="-404.376" rx="4.00002" ry="4.00002"/>
<polygon fill="#dad30a" stroke="#dad30a" points="732.335,-294.695 743.271,-293.887 736.731,-292.313 741.127,-289.93 741.127,-289.93 741.127,-289.93 736.731,-292.313 738.983,-285.974 732.335,-294.695 732.335,-294.695"/>
</g>
<!-- ValidationType&#45;&gt;Property -->
<g id="edge26" class="edge"><title>ValidationType&#45;&gt;Property</title>
<path fill="none" stroke="#80f9fd" d="M121.359,-333.654C121.403,-339.093 121.417,-344.584 121.403,-350.058"/>
<polygon fill="#80f9fd" stroke="#80f9fd" points="121.355,-333.278 125.741,-323.227 121.298,-328.278 121.241,-323.278 121.241,-323.278 121.241,-323.278 121.298,-328.278 116.741,-323.33 121.355,-333.278 121.355,-333.278"/>
<polygon fill="#80f9fd" stroke="#80f9fd" points="121.403,-350.164 116.844,-360.137 121.373,-355.164 121.344,-360.164 121.344,-360.164 121.344,-360.164 121.373,-355.164 125.844,-360.19 121.403,-350.164 121.403,-350.164"/>
</g>
<!-- ValidationType&#45;&gt;PropertyValidation -->
<g id="edge25" class="edge"><title>ValidationType&#45;&gt;PropertyValidation</title>
<path fill="none" stroke="#7d28d7" d="M161.825,-165.489C165.987,-158.295 170.188,-151.037 174.316,-143.902"/>
<ellipse fill="none" stroke="#7d28d7" cx="159.746" cy="-169.081" rx="4.00002" ry="4.00002"/>
<polygon fill="#7d28d7" stroke="#7d28d7" points="174.491,-143.6 183.394,-137.199 176.995,-139.272 179.499,-134.945 179.499,-134.945 179.499,-134.945 176.995,-139.272 175.604,-132.691 174.491,-143.6 174.491,-143.6"/>
</g>
<!-- ActiveRecord::Base -->
<g id="node15" class="node"><title>ActiveRecord::Base</title>
<ellipse fill="none" stroke="black" cx="495.658" cy="-779" rx="88.2033" ry="18"/>
<text text-anchor="middle" x="495.658" y="-773.4" font-family="Times,serif" font-size="14.00">ActiveRecord::Base</text>
</g>
<!-- ActiveRecord::Base&#45;&gt;Collection -->
<g id="edge3" class="edge"><title>ActiveRecord::Base&#45;&gt;Collection</title>
<path fill="none" stroke="black" d="M461.561,-762.357C431.029,-747.785 385.522,-724.653 348.658,-700 345.425,-697.838 342.169,-695.571 338.916,-693.233"/>
<polyline fill="none" stroke="black" points="334.485,-690.002 338.525,-692.948 "/>
</g>
<!-- ActiveRecord::Base&#45;&gt;Content -->
<g id="edge4" class="edge"><title>ActiveRecord::Base&#45;&gt;Content</title>
<path fill="none" stroke="black" d="M578.634,-772.75C678.198,-764.519 836.311,-744.637 872.658,-700 910.824,-653.129 886.546,-622.827 872.658,-564 868.548,-546.59 859.936,-545.092 854.658,-528 834.427,-462.484 824.958,-385.003 820.531,-328.338"/>
<polyline fill="none" stroke="black" points="820.144,-323.265 820.524,-328.25 "/>
</g>
<!-- ActiveRecord::Base&#45;&gt;ContentBoolean -->
<g id="edge6" class="edge"><title>ActiveRecord::Base&#45;&gt;ContentBoolean</title>
<path fill="none" stroke="black" d="M580.21,-773.628C687.525,-766.186 863.876,-746.992 906.658,-700 955.767,-646.06 951.792,-556.536 942.601,-499.185"/>
<polyline fill="none" stroke="black" points="941.756,-494.082 942.573,-499.015 "/>
</g>
<!-- ActiveRecord::Base&#45;&gt;ContentDatetime -->
<g id="edge8" class="edge"><title>ActiveRecord::Base&#45;&gt;ContentDatetime</title>
<path fill="none" stroke="black" d="M577.846,-772.105C690.274,-762.634 884.598,-740.816 941.658,-700 1009.98,-651.13 1048.62,-558.122 1067.31,-498.959"/>
<polyline fill="none" stroke="black" points="1068.84,-494.051 1067.35,-498.825 "/>
</g>
<!-- ActiveRecord::Base&#45;&gt;ContentFile -->
<g id="edge10" class="edge"><title>ActiveRecord::Base&#45;&gt;ContentFile</title>
<path fill="none" stroke="black" d="M577.046,-771.96C701.763,-761.644 933.415,-737.986 1006.66,-700 1085.96,-658.873 1154.26,-582.116 1198.45,-523.519"/>
<polyline fill="none" stroke="black" points="1201.59,-519.333 1198.59,-523.333 "/>
</g>
<!-- ActiveRecord::Base&#45;&gt;ContentFixnum -->
<g id="edge12" class="edge"><title>ActiveRecord::Base&#45;&gt;ContentFixnum</title>
<path fill="none" stroke="black" d="M495.658,-760.797C495.658,-742.723 495.658,-713.359 495.658,-687.334"/>
<polyline fill="none" stroke="black" points="495.658,-682.177 495.658,-687.177 "/>
</g>
<!-- ActiveRecord::Base&#45;&gt;ContentString -->
<g id="edge14" class="edge"><title>ActiveRecord::Base&#45;&gt;ContentString</title>
<path fill="none" stroke="black" d="M513.275,-761.083C532.485,-742.637 564.187,-712.194 591.866,-685.616"/>
<polyline fill="none" stroke="black" points="595.568,-682.06 591.961,-685.524 "/>
</g>
<!-- ActiveRecord::Base&#45;&gt;ContentText -->
<g id="edge16" class="edge"><title>ActiveRecord::Base&#45;&gt;ContentText</title>
<path fill="none" stroke="black" d="M552.141,-765.074C599.515,-752.73 667.859,-731.337 721.658,-700 728.959,-695.748 736.195,-690.732 743.134,-685.39"/>
<polyline fill="none" stroke="black" points="747.415,-682.026 743.484,-685.116 "/>
</g>
<!-- ActiveRecord::Base&#45;&gt;DataType -->
<g id="edge18" class="edge"><title>ActiveRecord::Base&#45;&gt;DataType</title>
<path fill="none" stroke="black" d="M463.692,-762.064C444.87,-753.251 420.37,-742.751 397.658,-736 308.568,-709.516 275.568,-739.969 191.658,-700 190.468,-699.433 189.283,-698.843 188.102,-698.231"/>
<polyline fill="none" stroke="black" points="183.573,-695.765 187.965,-698.156 "/>
</g>
<!-- ActiveRecord::Base&#45;&gt;Property -->
<g id="edge21" class="edge"><title>ActiveRecord::Base&#45;&gt;Property</title>
<path fill="none" stroke="black" d="M465.176,-762.067C446.251,-752.909 421.14,-742.053 397.658,-736 319.804,-715.931 91.6065,-759.612 37.6583,-700 -3.91769,-654.059 19.1176,-586.357 50.521,-532.257"/>
<polyline fill="none" stroke="black" points="53.1881,-527.727 50.6511,-532.036 "/>
</g>
<!-- ActiveRecord::Base&#45;&gt;PropertyValidation -->
<g id="edge22" class="edge"><title>ActiveRecord::Base&#45;&gt;PropertyValidation</title>
<path fill="none" stroke="black" d="M468.959,-761.65C448.295,-747.686 420.453,-725.797 403.658,-700 342.422,-605.942 265.578,-284.372 233.187,-140.077"/>
<polyline fill="none" stroke="black" points="232.054,-135.02 233.147,-139.899 "/>
</g>
<!-- ActiveRecord::Base&#45;&gt;Thing -->
<g id="edge24" class="edge"><title>ActiveRecord::Base&#45;&gt;Thing</title>
<path fill="none" stroke="black" d="M471.751,-761.622C453.633,-747.643 430.127,-725.746 419.658,-700 392.884,-634.156 414.298,-551.944 434.441,-498.966"/>
<polyline fill="none" stroke="black" points="436.26,-494.25 434.46,-498.915 "/>
</g>
<!-- ActiveRecord::Base&#45;&gt;ValidationType -->
<g id="edge27" class="edge"><title>ActiveRecord::Base&#45;&gt;ValidationType</title>
<path fill="none" stroke="black" d="M465.19,-762.011C446.271,-752.832 421.16,-741.974 397.658,-736 314.164,-714.774 69.6783,-763.683 11.6583,-700 -22.3971,-662.621 28.4706,-383.927 37.6583,-360 41.8515,-349.08 47.3334,-338.202 53.4428,-327.763"/>
<polyline fill="none" stroke="black" points="56.0976,-323.318 53.5339,-327.611 "/>
</g>
</g>
</svg>
