<?xml version="1.0" encoding="UTF-8" standalone="no"?>
<!DOCTYPE svg PUBLIC "-//W3C//DTD SVG 1.1//EN"
 "http://www.w3.org/Graphics/SVG/1.1/DTD/svg11.dtd">
<!-- Generated by graphviz version 2.34.0 (20130915.1124)
 -->
<!-- Title: models_diagram Pages: 1 -->
<svg width="1215pt" height="382pt"
 viewBox="0.00 0.00 1214.69 382.00" xmlns="http://www.w3.org/2000/svg" xmlns:xlink="http://www.w3.org/1999/xlink">
<g id="graph0" class="graph" transform="scale(1 1) rotate(0) translate(4 378)">
<title>models_diagram</title>
<polygon fill="white" stroke="white" points="-4,4 -4,-378 1210.69,-378 1210.69,4 -4,4"/>
<!-- _diagram_info -->
<g id="node1" class="node"><title>_diagram_info</title>
<text text-anchor="start" x="102" y="-357" font-family="Times,serif" font-size="13.00">Models diagram</text>
<text text-anchor="start" x="102" y="-341.4" font-family="Times,serif" font-size="13.00">Date: Sep 16 2013 &#45; 20:59</text>
<text text-anchor="start" x="102" y="-325.8" font-family="Times,serif" font-size="13.00">Migration version: 20130916135233</text>
<text text-anchor="start" x="102" y="-310.2" font-family="Times,serif" font-size="13.00">Generated by RailRoady 1.1.1</text>
<text text-anchor="start" x="102" y="-294.6" font-family="Times,serif" font-size="13.00">http://railroady.prestonlee.com</text>
</g>
<!-- Collection -->
<g id="node2" class="node"><title>Collection</title>
<ellipse fill="none" stroke="black" cx="190.688" cy="-234" rx="50.9029" ry="18"/>
<text text-anchor="middle" x="190.688" y="-228.4" font-family="Times,serif" font-size="14.00">Collection</text>
</g>
<!-- Property -->
<g id="node11" class="node"><title>Property</title>
<ellipse fill="none" stroke="black" cx="72.6878" cy="-162" rx="43.942" ry="18"/>
<text text-anchor="middle" x="72.6878" y="-156.4" font-family="Times,serif" font-size="14.00">Property</text>
</g>
<!-- Collection&#45;&gt;Property -->
<g id="edge2" class="edge"><title>Collection&#45;&gt;Property</title>
<path fill="none" stroke="#d99dd1" d="M158.733,-214.044C142.293,-204.291 122.277,-192.417 105.688,-182.576"/>
<ellipse fill="none" stroke="#d99dd1" cx="162.223" cy="-216.114" rx="4.00002" ry="4.00002"/>
<polygon fill="#d99dd1" stroke="#d99dd1" points="105.47,-182.447 99.1654,-173.475 101.17,-179.896 96.8695,-177.345 96.8695,-177.345 96.8695,-177.345 101.17,-179.896 94.5735,-181.215 105.47,-182.447 105.47,-182.447"/>
</g>
<!-- Thing -->
<g id="node13" class="node"><title>Thing</title>
<ellipse fill="none" stroke="black" cx="331.688" cy="-162" rx="34.1558" ry="18"/>
<text text-anchor="middle" x="331.688" y="-156.4" font-family="Times,serif" font-size="14.00">Thing</text>
</g>
<!-- Collection&#45;&gt;Thing -->
<g id="edge1" class="edge"><title>Collection&#45;&gt;Thing</title>
<path fill="none" stroke="#e9de7e" d="M226.475,-215.233C248.551,-204.274 276.678,-190.31 298.296,-179.578"/>
<ellipse fill="none" stroke="#e9de7e" cx="222.804" cy="-217.056" rx="4.00002" ry="4.00002"/>
<polygon fill="#e9de7e" stroke="#e9de7e" points="298.467,-179.493 309.425,-179.077 302.946,-177.269 307.424,-175.046 307.424,-175.046 307.424,-175.046 302.946,-177.269 305.423,-171.015 298.467,-179.493 298.467,-179.493"/>
</g>
<!-- Content -->
<g id="node3" class="node"><title>Content</title>
<ellipse fill="none" stroke="black" cx="708.688" cy="-90" rx="41.4224" ry="18"/>
<text text-anchor="middle" x="708.688" y="-84.4" font-family="Times,serif" font-size="14.00">Content</text>
</g>
<!-- ContentBoolean -->
<g id="node4" class="node"><title>ContentBoolean</title>
<ellipse fill="none" stroke="black" cx="829.688" cy="-162" rx="73.1975" ry="18"/>
<text text-anchor="middle" x="829.688" y="-156.4" font-family="Times,serif" font-size="14.00">ContentBoolean</text>
</g>
<!-- ContentBoolean&#45;&gt;Content -->
<g id="edge5" class="edge"><title>ContentBoolean&#45;&gt;Content</title>
<path fill="none" stroke="#ecdf23" d="M795.116,-141C777.668,-130.906 756.673,-118.76 739.745,-108.967"/>
<ellipse fill="none" stroke="#ecdf23" cx="798.769" cy="-143.113" rx="4.00002" ry="4.00002"/>
<ellipse fill="#ecdf23" stroke="#ecdf23" cx="736.223" cy="-106.93" rx="4.00002" ry="4.00002"/>
</g>
<!-- ContentDatetime -->
<g id="node5" class="node"><title>ContentDatetime</title>
<ellipse fill="none" stroke="black" cx="998.688" cy="-162" rx="77.0125" ry="18"/>
<text text-anchor="middle" x="998.688" y="-156.4" font-family="Times,serif" font-size="14.00">ContentDatetime</text>
</g>
<!-- ContentDatetime&#45;&gt;Content -->
<g id="edge7" class="edge"><title>ContentDatetime&#45;&gt;Content</title>
<path fill="none" stroke="#cd1447" d="M939.095,-146.615C883.503,-133.197 801.888,-113.497 752.189,-101.5"/>
<ellipse fill="none" stroke="#cd1447" cx="943.287" cy="-147.627" rx="4.00001" ry="4.00001"/>
<ellipse fill="#cd1447" stroke="#cd1447" cx="748.084" cy="-100.51" rx="4.00001" ry="4.00001"/>
</g>
<!-- ContentFile -->
<g id="node6" class="node"><title>ContentFile</title>
<ellipse fill="none" stroke="black" cx="1150.69" cy="-162" rx="56.4569" ry="18"/>
<text text-anchor="middle" x="1150.69" y="-156.4" font-family="Times,serif" font-size="14.00">ContentFile</text>
</g>
<!-- ContentFile&#45;&gt;Content -->
<g id="edge9" class="edge"><title>ContentFile&#45;&gt;Content</title>
<path fill="none" stroke="#60fdf4" d="M1101.22,-147.62C1095.66,-146.308 1090.07,-145.069 1084.69,-144 967.638,-120.752 828.117,-103.881 756.432,-95.9931"/>
<ellipse fill="none" stroke="#60fdf4" cx="1105.42" cy="-148.641" rx="4.00001" ry="4.00001"/>
<ellipse fill="#60fdf4" stroke="#60fdf4" cx="752.428" cy="-95.5558" rx="4.00001" ry="4.00001"/>
</g>
<!-- ContentFixnum -->
<g id="node7" class="node"><title>ContentFixnum</title>
<ellipse fill="none" stroke="black" cx="407.688" cy="-234" rx="71.4985" ry="18"/>
<text text-anchor="middle" x="407.688" y="-228.4" font-family="Times,serif" font-size="14.00">ContentFixnum</text>
</g>
<!-- ContentFixnum&#45;&gt;Content -->
<g id="edge11" class="edge"><title>ContentFixnum&#45;&gt;Content</title>
<path fill="none" stroke="#33345c" d="M447.183,-214.368C506.606,-186.334 618.03,-133.769 674.301,-107.223"/>
<ellipse fill="none" stroke="#33345c" cx="443.518" cy="-216.097" rx="4.00002" ry="4.00002"/>
<ellipse fill="#33345c" stroke="#33345c" cx="677.919" cy="-105.515" rx="4.00002" ry="4.00002"/>
</g>
<!-- ContentString -->
<g id="node8" class="node"><title>ContentString</title>
<ellipse fill="none" stroke="black" cx="562.688" cy="-234" rx="65.3376" ry="18"/>
<text text-anchor="middle" x="562.688" y="-228.4" font-family="Times,serif" font-size="14.00">ContentString</text>
</g>
<!-- ContentString&#45;&gt;Content -->
<g id="edge13" class="edge"><title>ContentString&#45;&gt;Content</title>
<path fill="none" stroke="#b3ed90" d="M585.744,-210.576C613.467,-183.612 659.651,-138.694 686.829,-112.26"/>
<ellipse fill="none" stroke="#b3ed90" cx="582.589" cy="-213.644" rx="4.00002" ry="4.00002"/>
<ellipse fill="#b3ed90" stroke="#b3ed90" cx="689.786" cy="-109.384" rx="4.00002" ry="4.00002"/>
</g>
<!-- ContentText -->
<g id="node9" class="node"><title>ContentText</title>
<ellipse fill="none" stroke="black" cx="704.688" cy="-234" rx="58.4558" ry="18"/>
<text text-anchor="middle" x="704.688" y="-228.4" font-family="Times,serif" font-size="14.00">ContentText</text>
</g>
<!-- ContentText&#45;&gt;Content -->
<g id="edge15" class="edge"><title>ContentText&#45;&gt;Content</title>
<path fill="none" stroke="#2190a7" d="M705.404,-207.558C706.131,-181.771 707.248,-142.104 707.974,-116.35"/>
<ellipse fill="none" stroke="#2190a7" cx="705.283" cy="-211.873" rx="4" ry="4"/>
<ellipse fill="#2190a7" stroke="#2190a7" cx="708.091" cy="-112.188" rx="4" ry="4"/>
</g>
<!-- DataType -->
<g id="node10" class="node"><title>DataType</title>
<ellipse fill="none" stroke="black" cx="72.6878" cy="-234" rx="48.1508" ry="18"/>
<text text-anchor="middle" x="72.6878" y="-228.4" font-family="Times,serif" font-size="14.00">DataType</text>
</g>
<!-- DataType&#45;&gt;Property -->
<g id="edge17" class="edge"><title>DataType&#45;&gt;Property</title>
<path fill="none" stroke="#f35f87" d="M72.6878,-207.64C72.6878,-202.063 72.6878,-196.132 72.6878,-190.476"/>
<ellipse fill="none" stroke="#f35f87" cx="72.6879" cy="-211.697" rx="4" ry="4"/>
<polygon fill="#f35f87" stroke="#f35f87" points="72.6879,-190.104 77.1878,-180.104 72.6879,-185.104 72.6878,-180.104 72.6878,-180.104 72.6878,-180.104 72.6879,-185.104 68.1878,-180.104 72.6879,-190.104 72.6879,-190.104"/>
</g>
<!-- PropertyValidation -->
<g id="node12" class="node"><title>PropertyValidation</title>
<ellipse fill="none" stroke="black" cx="170.688" cy="-18" rx="83.4806" ry="18"/>
<text text-anchor="middle" x="170.688" y="-12.4" font-family="Times,serif" font-size="14.00">PropertyValidation</text>
</g>
<!-- Property&#45;&gt;PropertyValidation -->
<g id="edge19" class="edge"><title>Property&#45;&gt;PropertyValidation</title>
<path fill="none" stroke="#fd7568" d="M108.938,-144.082C123.985,-135.323 140.319,-123.238 150.688,-108 163.513,-89.1524 168.239,-63.3597 169.918,-44.3921"/>
<ellipse fill="none" stroke="#fd7568" cx="105.183" cy="-146.17" rx="4.00002" ry="4.00002"/>
<ellipse fill="#fd7568" stroke="#fd7568" cx="170.213" cy="-40.1971" rx="4" ry="4"/>
</g>
<!-- ValidationType -->
<g id="node14" class="node"><title>ValidationType</title>
<ellipse fill="none" stroke="black" cx="72.6878" cy="-90" rx="69.3473" ry="18"/>
<text text-anchor="middle" x="72.6878" y="-84.4" font-family="Times,serif" font-size="14.00">ValidationType</text>
</g>
<!-- Property&#45;&gt;ValidationType -->
<g id="edge20" class="edge"><title>Property&#45;&gt;ValidationType</title>
<path fill="none" stroke="#87fb94" d="M66.1882,-135.987C65.8636,-129.676 65.8546,-122.892 66.1612,-116.554"/>
<ellipse fill="none" stroke="#87fb94" cx="66.5024" cy="-140.067" rx="4" ry="4"/>
<ellipse fill="#87fb94" stroke="#87fb94" cx="66.4792" cy="-112.264" rx="4" ry="4"/>
</g>
<!-- Thing&#45;&gt;Content -->
<g id="edge23" class="edge"><title>Thing&#45;&gt;Content</title>
<path fill="none" stroke="#6ac795" d="M371.272,-153.65C441.209,-140.664 586.319,-113.721 661.398,-99.7806"/>
<ellipse fill="none" stroke="#6ac795" cx="367.115" cy="-154.422" rx="4.00001" ry="4.00001"/>
<polygon fill="#6ac795" stroke="#6ac795" points="661.68,-99.7283 672.333,-102.327 666.596,-98.8155 671.512,-97.9027 671.512,-97.9027 671.512,-97.9027 666.596,-98.8155 670.69,-93.4783 661.68,-99.7283 661.68,-99.7283"/>
</g>
<!-- ValidationType&#45;&gt;Property -->
<g id="edge26" class="edge"><title>ValidationType&#45;&gt;Property</title>
<path fill="none" stroke="#037552" d="M79.2926,-118.355C79.4909,-123.499 79.4861,-128.873 79.2784,-134.005"/>
<polygon fill="#037552" stroke="#037552" points="79.2856,-118.252 83.0901,-107.967 78.9431,-113.264 78.6006,-108.275 78.6006,-108.275 78.6006,-108.275 78.9431,-113.264 74.1112,-108.584 79.2856,-118.252 79.2856,-118.252"/>
<polygon fill="#037552" stroke="#037552" points="79.2732,-134.08 74.0773,-143.737 78.9196,-139.067 78.5661,-144.055 78.5661,-144.055 78.5661,-144.055 78.9196,-139.067 83.0548,-144.373 79.2732,-134.08 79.2732,-134.08"/>
</g>
<!-- ValidationType&#45;&gt;PropertyValidation -->
<g id="edge25" class="edge"><title>ValidationType&#45;&gt;PropertyValidation</title>
<path fill="none" stroke="#29e508" d="M101.927,-68.1145C113.72,-59.6912 127.347,-49.9576 139.344,-41.3884"/>
<ellipse fill="none" stroke="#29e508" cx="98.6723" cy="-70.4397" rx="4.00002" ry="4.00002"/>
<polygon fill="#29e508" stroke="#29e508" points="139.605,-41.2022 150.358,-39.0516 143.673,-38.296 147.742,-35.3898 147.742,-35.3898 147.742,-35.3898 143.673,-38.296 145.127,-31.728 139.605,-41.2022 139.605,-41.2022"/>
</g>
<!-- ActiveRecord::Base -->
<g id="node15" class="node"><title>ActiveRecord::Base</title>
<ellipse fill="none" stroke="black" cx="407.688" cy="-331" rx="88.2033" ry="18"/>
<text text-anchor="middle" x="407.688" y="-325.4" font-family="Times,serif" font-size="14.00">ActiveRecord::Base</text>
</g>
<!-- ActiveRecord::Base&#45;&gt;Collection -->
<g id="edge3" class="edge"><title>ActiveRecord::Base&#45;&gt;Collection</title>
<path fill="none" stroke="black" d="M371.855,-314.313C331.599,-296.689 266.645,-268.253 226.428,-250.646"/>
<polyline fill="none" stroke="black" points="221.649,-248.554 226.229,-250.56 "/>
</g>
<!-- ActiveRecord::Base&#45;&gt;Content -->
<g id="edge4" class="edge"><title>ActiveRecord::Base&#45;&gt;Content</title>
<path fill="none" stroke="black" d="M489.515,-324.164C585.767,-315.398 736.898,-295.035 771.688,-252 781.747,-239.557 776.47,-231.269 771.688,-216 765.866,-197.411 756.117,-197.046 746.688,-180 734.497,-157.961 723.554,-131.216 716.577,-112.832"/>
<polyline fill="none" stroke="black" points="714.716,-107.88 716.475,-112.561 "/>
</g>
<!-- ActiveRecord::Base&#45;&gt;ContentBoolean -->
<g id="edge6" class="edge"><title>ActiveRecord::Base&#45;&gt;ContentBoolean</title>
<path fill="none" stroke="black" d="M489.357,-324.056C592.155,-314.918 760.757,-293.897 805.688,-252 823.953,-234.968 828.868,-205.629 829.922,-185.316"/>
<polyline fill="none" stroke="black" points="830.119,-180.102 829.93,-185.099 "/>
</g>
<!-- ActiveRecord::Base&#45;&gt;ContentDatetime -->
<g id="edge8" class="edge"><title>ActiveRecord::Base&#45;&gt;ContentDatetime</title>
<path fill="none" stroke="black" d="M486.11,-322.661C572.235,-312.97 713.714,-292.21 829.688,-252 881.561,-234.015 937.025,-202.067 969.739,-181.739"/>
<polyline fill="none" stroke="black" points="974.005,-179.074 969.765,-181.723 "/>
</g>
<!-- ActiveRecord::Base&#45;&gt;ContentFile -->
<g id="edge10" class="edge"><title>ActiveRecord::Base&#45;&gt;ContentFile</title>
<path fill="none" stroke="black" d="M482.883,-321.379C577.161,-309.72 743.329,-286.354 882.688,-252 965.462,-231.595 1059.44,-197.847 1111.21,-178.297"/>
<polyline fill="none" stroke="black" points="1116.09,-176.45 1111.41,-178.221 "/>
</g>
<!-- ActiveRecord::Base&#45;&gt;ContentFixnum -->
<g id="edge12" class="edge"><title>ActiveRecord::Base&#45;&gt;ContentFixnum</title>
<path fill="none" stroke="black" d="M407.688,-312.576C407.688,-297.041 407.688,-274.217 407.688,-257.345"/>
<polyline fill="none" stroke="black" points="407.688,-252.314 407.688,-257.314 "/>
</g>
<!-- ActiveRecord::Base&#45;&gt;ContentString -->
<g id="edge14" class="edge"><title>ActiveRecord::Base&#45;&gt;ContentString</title>
<path fill="none" stroke="black" d="M434.333,-313.669C461.693,-296.9 504.191,-270.853 532.709,-253.374"/>
<polyline fill="none" stroke="black" points="537.161,-250.645 532.898,-253.258 "/>
</g>
<!-- ActiveRecord::Base&#45;&gt;ContentText -->
<g id="edge16" class="edge"><title>ActiveRecord::Base&#45;&gt;ContentText</title>
<path fill="none" stroke="black" d="M453.119,-315.468C509.431,-297.456 604.761,-266.963 660.494,-249.136"/>
<polyline fill="none" stroke="black" points="665.43,-247.557 660.668,-249.081 "/>
</g>
<!-- ActiveRecord::Base&#45;&gt;DataType -->
<g id="edge18" class="edge"><title>ActiveRecord::Base&#45;&gt;DataType</title>
<path fill="none" stroke="black" d="M375.213,-314.075C356.429,-305.376 332.135,-294.985 309.688,-288 232.204,-263.889 209.476,-271.431 130.688,-252 125.228,-250.653 119.512,-249.126 113.887,-247.551"/>
<polyline fill="none" stroke="black" points="108.756,-246.097 113.566,-247.461 "/>
</g>
<!-- ActiveRecord::Base&#45;&gt;Property -->
<g id="edge21" class="edge"><title>ActiveRecord::Base&#45;&gt;Property</title>
<path fill="none" stroke="black" d="M376.721,-314.045C357.83,-304.997 332.922,-294.265 309.688,-288 246.136,-270.865 59.3105,-301.29 15.6878,-252 -4.08432,-229.659 24.2527,-199.795 47.5636,-180.976"/>
<polyline fill="none" stroke="black" points="51.5485,-177.825 47.6267,-180.927 "/>
</g>
<!-- ActiveRecord::Base&#45;&gt;PropertyValidation -->
<g id="edge22" class="edge"><title>ActiveRecord::Base&#45;&gt;PropertyValidation</title>
<path fill="none" stroke="black" d="M384.954,-313.35C365.69,-298.564 338.034,-275.682 317.688,-252 256.941,-181.293 203.487,-83.1981 181.431,-40.4"/>
<polyline fill="none" stroke="black" points="179.146,-35.9459 181.429,-40.3947 "/>
</g>
<!-- ActiveRecord::Base&#45;&gt;Thing -->
<g id="edge24" class="edge"><title>ActiveRecord::Base&#45;&gt;Thing</title>
<path fill="none" stroke="black" d="M381.853,-313.701C362.62,-299.911 337.843,-278.229 326.688,-252 317.553,-230.521 320.917,-203.46 325.223,-184.849"/>
<polyline fill="none" stroke="black" points="326.453,-179.835 325.262,-184.691 "/>
</g>
<!-- ActiveRecord::Base&#45;&gt;ValidationType -->
<g id="edge27" class="edge"><title>ActiveRecord::Base&#45;&gt;ValidationType</title>
<path fill="none" stroke="black" d="M376.73,-314.011C357.843,-304.952 332.934,-294.218 309.688,-288 243.971,-270.421 50.8737,-302.853 5.68782,-252 -9.55554,-234.845 10.3507,-161.559 19.6878,-144 26.4297,-131.321 37.2074,-119.725 47.2888,-110.634"/>
<polyline fill="none" stroke="black" points="51.2556,-107.149 47.4991,-110.449 "/>
</g>
</g>
</svg>
