<?xml version="1.0" encoding="UTF-8" standalone="no"?>
<!DOCTYPE svg PUBLIC "-//W3C//DTD SVG 1.1//EN"
 "http://www.w3.org/Graphics/SVG/1.1/DTD/svg11.dtd">
<!-- Generated by graphviz version 2.34.0 (20130916.1407)
 -->
<!-- Title: models_diagram Pages: 1 -->
<svg width="1840pt" height="774pt"
 viewBox="0.00 0.00 1839.60 774.00" xmlns="http://www.w3.org/2000/svg" xmlns:xlink="http://www.w3.org/1999/xlink">
<g id="graph0" class="graph" transform="scale(1 1) rotate(0) translate(4 770)">
<title>models_diagram</title>
<polygon fill="white" stroke="white" points="-4,4 -4,-770 1835.6,-770 1835.6,4 -4,4"/>
<!-- Collection -->
<g id="node1" class="node"><title>Collection</title>
<path fill="none" stroke="black" d="M893.099,-623.6C893.099,-623.6 1002.11,-623.6 1002.11,-623.6 1008.11,-623.6 1014.11,-629.6 1014.11,-635.6 1014.11,-635.6 1014.11,-728.4 1014.11,-728.4 1014.11,-734.4 1008.11,-740.4 1002.11,-740.4 1002.11,-740.4 893.099,-740.4 893.099,-740.4 887.099,-740.4 881.099,-734.4 881.099,-728.4 881.099,-728.4 881.099,-635.6 881.099,-635.6 881.099,-629.6 887.099,-623.6 893.099,-623.6"/>
<text text-anchor="middle" x="947.605" y="-722.4" font-family="Times,serif" font-size="14.00">Collection</text>
<polyline fill="none" stroke="black" points="881.099,-715.6 1014.11,-715.6 "/>
<text text-anchor="start" x="889.099" y="-697.6" font-family="Times,serif" font-size="14.00">id :integer</text>
<text text-anchor="start" x="889.099" y="-680.8" font-family="Times,serif" font-size="14.00">name :string</text>
<text text-anchor="start" x="889.099" y="-664" font-family="Times,serif" font-size="14.00">slug :string</text>
<text text-anchor="start" x="889.099" y="-647.2" font-family="Times,serif" font-size="14.00">created_at :datetime</text>
<text text-anchor="start" x="889.099" y="-630.4" font-family="Times,serif" font-size="14.00">updated_at :datetime</text>
</g>
<!-- Property -->
<g id="node15" class="node"><title>Property</title>
<path fill="none" stroke="black" d="M190.537,-360.6C190.537,-360.6 302.672,-360.6 302.672,-360.6 308.672,-360.6 314.672,-366.6 314.672,-372.6 314.672,-372.6 314.672,-549.4 314.672,-549.4 314.672,-555.4 308.672,-561.4 302.672,-561.4 302.672,-561.4 190.537,-561.4 190.537,-561.4 184.537,-561.4 178.537,-555.4 178.537,-549.4 178.537,-549.4 178.537,-372.6 178.537,-372.6 178.537,-366.6 184.537,-360.6 190.537,-360.6"/>
<text text-anchor="middle" x="246.605" y="-543.4" font-family="Times,serif" font-size="14.00">Property</text>
<polyline fill="none" stroke="black" points="178.537,-536.6 314.672,-536.6 "/>
<text text-anchor="start" x="186.537" y="-518.6" font-family="Times,serif" font-size="14.00">id :integer</text>
<text text-anchor="start" x="186.537" y="-501.8" font-family="Times,serif" font-size="14.00">name :string</text>
<text text-anchor="start" x="186.537" y="-485" font-family="Times,serif" font-size="14.00">slug :string</text>
<text text-anchor="start" x="186.537" y="-468.2" font-family="Times,serif" font-size="14.00">help :text</text>
<text text-anchor="start" x="186.537" y="-451.4" font-family="Times,serif" font-size="14.00">hide :boolean</text>
<text text-anchor="start" x="186.537" y="-434.6" font-family="Times,serif" font-size="14.00">data_type_id :integer</text>
<text text-anchor="start" x="186.537" y="-417.8" font-family="Times,serif" font-size="14.00">collection_id :integer</text>
<text text-anchor="start" x="186.537" y="-401" font-family="Times,serif" font-size="14.00">validation_id :integer</text>
<text text-anchor="start" x="186.537" y="-384.2" font-family="Times,serif" font-size="14.00">created_at :datetime</text>
<text text-anchor="start" x="186.537" y="-367.4" font-family="Times,serif" font-size="14.00">updated_at :datetime</text>
</g>
<!-- Collection&#45;&gt;Property -->
<g id="edge2" class="edge"><title>Collection&#45;&gt;Property</title>
<path fill="none" stroke="#87424f" d="M872.846,-673.444C727.926,-657.723 414.988,-618.22 323.605,-562 323.512,-561.943 323.418,-561.885 323.325,-561.827"/>
<ellipse fill="none" stroke="#87424f" cx="876.905" cy="-673.881" rx="4.00001" ry="4.00001"/>
<polygon fill="#87424f" stroke="#87424f" points="323.117,-561.685 317.41,-552.321 318.992,-558.859 314.867,-556.033 314.867,-556.033 314.867,-556.033 318.992,-558.859 312.324,-559.746 323.117,-561.685 323.117,-561.685"/>
</g>
<!-- Thing -->
<g id="node17" class="node"><title>Thing</title>
<path fill="none" stroke="black" d="M1590.93,-402.6C1590.93,-402.6 1702.28,-402.6 1702.28,-402.6 1708.28,-402.6 1714.28,-408.6 1714.28,-414.6 1714.28,-414.6 1714.28,-507.4 1714.28,-507.4 1714.28,-513.4 1708.28,-519.4 1702.28,-519.4 1702.28,-519.4 1590.93,-519.4 1590.93,-519.4 1584.93,-519.4 1578.93,-513.4 1578.93,-507.4 1578.93,-507.4 1578.93,-414.6 1578.93,-414.6 1578.93,-408.6 1584.93,-402.6 1590.93,-402.6"/>
<text text-anchor="middle" x="1646.6" y="-501.4" font-family="Times,serif" font-size="14.00">Thing</text>
<polyline fill="none" stroke="black" points="1578.93,-494.6 1714.28,-494.6 "/>
<text text-anchor="start" x="1586.93" y="-476.6" font-family="Times,serif" font-size="14.00">id :integer</text>
<text text-anchor="start" x="1586.93" y="-459.8" font-family="Times,serif" font-size="14.00">collection_id :integer</text>
<text text-anchor="start" x="1586.93" y="-443" font-family="Times,serif" font-size="14.00">user_id :integer</text>
<text text-anchor="start" x="1586.93" y="-426.2" font-family="Times,serif" font-size="14.00">created_at :datetime</text>
<text text-anchor="start" x="1586.93" y="-409.4" font-family="Times,serif" font-size="14.00">updated_at :datetime</text>
</g>
<!-- Collection&#45;&gt;Thing -->
<g id="edge1" class="edge"><title>Collection&#45;&gt;Thing</title>
<path fill="none" stroke="#76adac" d="M1022.13,-673.419C1166.58,-657.653 1478.52,-618.073 1569.6,-562 1583.82,-553.248 1596.4,-540.849 1607.05,-527.748"/>
<ellipse fill="none" stroke="#76adac" cx="1018.09" cy="-673.856" rx="4.00001" ry="4.00001"/>
<polygon fill="#76adac" stroke="#76adac" points="1607.3,-527.426 1616.98,-522.285 1610.36,-523.476 1613.43,-519.526 1613.43,-519.526 1613.43,-519.526 1610.36,-523.476 1609.87,-516.767 1607.3,-527.426 1607.3,-527.426"/>
</g>
<!-- Content -->
<g id="node2" class="node"><title>Content</title>
<path fill="none" stroke="black" d="M978.151,-172.8C978.151,-172.8 1105.06,-172.8 1105.06,-172.8 1111.06,-172.8 1117.06,-178.8 1117.06,-184.8 1117.06,-184.8 1117.06,-311.2 1117.06,-311.2 1117.06,-317.2 1111.06,-323.2 1105.06,-323.2 1105.06,-323.2 978.151,-323.2 978.151,-323.2 972.151,-323.2 966.151,-317.2 966.151,-311.2 966.151,-311.2 966.151,-184.8 966.151,-184.8 966.151,-178.8 972.151,-172.8 978.151,-172.8"/>
<text text-anchor="middle" x="1041.6" y="-305.2" font-family="Times,serif" font-size="14.00">Content</text>
<polyline fill="none" stroke="black" points="966.151,-298.4 1117.06,-298.4 "/>
<text text-anchor="start" x="974.151" y="-280.4" font-family="Times,serif" font-size="14.00">id :integer</text>
<text text-anchor="start" x="974.151" y="-263.6" font-family="Times,serif" font-size="14.00">thing_id :integer</text>
<text text-anchor="start" x="974.151" y="-246.8" font-family="Times,serif" font-size="14.00">property_id :integer</text>
<text text-anchor="start" x="974.151" y="-230" font-family="Times,serif" font-size="14.00">contentable_id :integer</text>
<text text-anchor="start" x="974.151" y="-213.2" font-family="Times,serif" font-size="14.00">contentable_type :string</text>
<text text-anchor="start" x="974.151" y="-196.4" font-family="Times,serif" font-size="14.00">created_at :datetime</text>
<text text-anchor="start" x="974.151" y="-179.6" font-family="Times,serif" font-size="14.00">updated_at :datetime</text>
</g>
<!-- ContentBoolean -->
<g id="node3" class="node"><title>ContentBoolean</title>
<path fill="none" stroke="black" d="M345.099,-411C345.099,-411 454.11,-411 454.11,-411 460.11,-411 466.11,-417 466.11,-423 466.11,-423 466.11,-499 466.11,-499 466.11,-505 460.11,-511 454.11,-511 454.11,-511 345.099,-511 345.099,-511 339.099,-511 333.099,-505 333.099,-499 333.099,-499 333.099,-423 333.099,-423 333.099,-417 339.099,-411 345.099,-411"/>
<text text-anchor="middle" x="399.605" y="-493" font-family="Times,serif" font-size="14.00">ContentBoolean</text>
<polyline fill="none" stroke="black" points="333.099,-486.2 466.11,-486.2 "/>
<text text-anchor="start" x="341.099" y="-468.2" font-family="Times,serif" font-size="14.00">id :integer</text>
<text text-anchor="start" x="341.099" y="-451.4" font-family="Times,serif" font-size="14.00">value :boolean</text>
<text text-anchor="start" x="341.099" y="-434.6" font-family="Times,serif" font-size="14.00">created_at :datetime</text>
<text text-anchor="start" x="341.099" y="-417.8" font-family="Times,serif" font-size="14.00">updated_at :datetime</text>
</g>
<!-- ContentBoolean&#45;&gt;Content -->
<g id="edge3" class="edge"><title>ContentBoolean&#45;&gt;Content</title>
<path fill="none" stroke="#d0919b" d="M430.749,-403.832C442.466,-387.378 457.233,-370.899 474.605,-360 554.113,-310.118 820.391,-273.847 957.875,-257.944"/>
<ellipse fill="none" stroke="#d0919b" cx="428.181" cy="-407.569" rx="4.00002" ry="4.00002"/>
<ellipse fill="#d0919b" stroke="#d0919b" cx="961.962" cy="-257.475" rx="4.00001" ry="4.00001"/>
</g>
<!-- ContentDatetime -->
<g id="node4" class="node"><title>ContentDatetime</title>
<path fill="none" stroke="black" d="M496.099,-411C496.099,-411 605.11,-411 605.11,-411 611.11,-411 617.11,-417 617.11,-423 617.11,-423 617.11,-499 617.11,-499 617.11,-505 611.11,-511 605.11,-511 605.11,-511 496.099,-511 496.099,-511 490.099,-511 484.099,-505 484.099,-499 484.099,-499 484.099,-423 484.099,-423 484.099,-417 490.099,-411 496.099,-411"/>
<text text-anchor="middle" x="550.605" y="-493" font-family="Times,serif" font-size="14.00">ContentDatetime</text>
<polyline fill="none" stroke="black" points="484.099,-486.2 617.11,-486.2 "/>
<text text-anchor="start" x="492.099" y="-468.2" font-family="Times,serif" font-size="14.00">id :integer</text>
<text text-anchor="start" x="492.099" y="-451.4" font-family="Times,serif" font-size="14.00">value :datetime</text>
<text text-anchor="start" x="492.099" y="-434.6" font-family="Times,serif" font-size="14.00">created_at :datetime</text>
<text text-anchor="start" x="492.099" y="-417.8" font-family="Times,serif" font-size="14.00">updated_at :datetime</text>
</g>
<!-- ContentDatetime&#45;&gt;Content -->
<g id="edge4" class="edge"><title>ContentDatetime&#45;&gt;Content</title>
<path fill="none" stroke="#2521ec" d="M583.252,-403.847C595.073,-387.655 609.733,-371.325 626.605,-360 727.79,-292.084 868.877,-265.645 957.706,-255.405"/>
<ellipse fill="none" stroke="#2521ec" cx="580.67" cy="-407.497" rx="4.00002" ry="4.00002"/>
<ellipse fill="#2521ec" stroke="#2521ec" cx="961.895" cy="-254.937" rx="4.00001" ry="4.00001"/>
</g>
<!-- ContentFile -->
<g id="node5" class="node"><title>ContentFile</title>
<path fill="none" stroke="black" d="M647.441,-377.4C647.441,-377.4 793.769,-377.4 793.769,-377.4 799.769,-377.4 805.769,-383.4 805.769,-389.4 805.769,-389.4 805.769,-532.6 805.769,-532.6 805.769,-538.6 799.769,-544.6 793.769,-544.6 793.769,-544.6 647.441,-544.6 647.441,-544.6 641.441,-544.6 635.441,-538.6 635.441,-532.6 635.441,-532.6 635.441,-389.4 635.441,-389.4 635.441,-383.4 641.441,-377.4 647.441,-377.4"/>
<text text-anchor="middle" x="720.605" y="-526.6" font-family="Times,serif" font-size="14.00">ContentFile</text>
<polyline fill="none" stroke="black" points="635.441,-519.8 805.769,-519.8 "/>
<text text-anchor="start" x="643.441" y="-501.8" font-family="Times,serif" font-size="14.00">id :integer</text>
<text text-anchor="start" x="643.441" y="-485" font-family="Times,serif" font-size="14.00">value_file_name :string</text>
<text text-anchor="start" x="643.441" y="-468.2" font-family="Times,serif" font-size="14.00">value_content_type :string</text>
<text text-anchor="start" x="643.441" y="-451.4" font-family="Times,serif" font-size="14.00">value_file_size :string</text>
<text text-anchor="start" x="643.441" y="-434.6" font-family="Times,serif" font-size="14.00">value_updated_at :datetime</text>
<text text-anchor="start" x="643.441" y="-417.8" font-family="Times,serif" font-size="14.00">value_fingerprint :string</text>
<text text-anchor="start" x="643.441" y="-401" font-family="Times,serif" font-size="14.00">created_at :datetime</text>
<text text-anchor="start" x="643.441" y="-384.2" font-family="Times,serif" font-size="14.00">updated_at :datetime</text>
</g>
<!-- ContentFile&#45;&gt;Content -->
<g id="edge5" class="edge"><title>ContentFile&#45;&gt;Content</title>
<path fill="none" stroke="#a514ee" d="M799.812,-371.798C804.671,-367.644 809.616,-363.68 814.605,-360 858.664,-327.499 913.715,-300.307 958.569,-280.971"/>
<ellipse fill="none" stroke="#a514ee" cx="796.713" cy="-374.515" rx="4.00002" ry="4.00002"/>
<ellipse fill="#a514ee" stroke="#a514ee" cx="962.282" cy="-279.385" rx="4.00002" ry="4.00002"/>
</g>
<!-- ContentFixnum -->
<g id="node6" class="node"><title>ContentFixnum</title>
<path fill="none" stroke="black" d="M836.099,-411C836.099,-411 945.11,-411 945.11,-411 951.11,-411 957.11,-417 957.11,-423 957.11,-423 957.11,-499 957.11,-499 957.11,-505 951.11,-511 945.11,-511 945.11,-511 836.099,-511 836.099,-511 830.099,-511 824.099,-505 824.099,-499 824.099,-499 824.099,-423 824.099,-423 824.099,-417 830.099,-411 836.099,-411"/>
<text text-anchor="middle" x="890.605" y="-493" font-family="Times,serif" font-size="14.00">ContentFixnum</text>
<polyline fill="none" stroke="black" points="824.099,-486.2 957.11,-486.2 "/>
<text text-anchor="start" x="832.099" y="-468.2" font-family="Times,serif" font-size="14.00">id :integer</text>
<text text-anchor="start" x="832.099" y="-451.4" font-family="Times,serif" font-size="14.00">value :integer</text>
<text text-anchor="start" x="832.099" y="-434.6" font-family="Times,serif" font-size="14.00">created_at :datetime</text>
<text text-anchor="start" x="832.099" y="-417.8" font-family="Times,serif" font-size="14.00">updated_at :datetime</text>
</g>
<!-- ContentFixnum&#45;&gt;Content -->
<g id="edge6" class="edge"><title>ContentFixnum&#45;&gt;Content</title>
<path fill="none" stroke="#ca27db" d="M930.474,-404.289C946.711,-381.6 965.801,-354.924 983.534,-330.145"/>
<ellipse fill="none" stroke="#ca27db" cx="928.145" cy="-407.543" rx="4.00002" ry="4.00002"/>
<ellipse fill="#ca27db" stroke="#ca27db" cx="985.925" cy="-326.804" rx="4.00002" ry="4.00002"/>
</g>
<!-- ContentList -->
<g id="node7" class="node"><title>ContentList</title>
<path fill="none" stroke="black" d="M987.099,-411C987.099,-411 1096.11,-411 1096.11,-411 1102.11,-411 1108.11,-417 1108.11,-423 1108.11,-423 1108.11,-499 1108.11,-499 1108.11,-505 1102.11,-511 1096.11,-511 1096.11,-511 987.099,-511 987.099,-511 981.099,-511 975.099,-505 975.099,-499 975.099,-499 975.099,-423 975.099,-423 975.099,-417 981.099,-411 987.099,-411"/>
<text text-anchor="middle" x="1041.6" y="-493" font-family="Times,serif" font-size="14.00">ContentList</text>
<polyline fill="none" stroke="black" points="975.099,-486.2 1108.11,-486.2 "/>
<text text-anchor="start" x="983.099" y="-468.2" font-family="Times,serif" font-size="14.00">id :integer</text>
<text text-anchor="start" x="983.099" y="-451.4" font-family="Times,serif" font-size="14.00">value :text</text>
<text text-anchor="start" x="983.099" y="-434.6" font-family="Times,serif" font-size="14.00">created_at :datetime</text>
<text text-anchor="start" x="983.099" y="-417.8" font-family="Times,serif" font-size="14.00">updated_at :datetime</text>
</g>
<!-- ContentList&#45;&gt;Content -->
<g id="edge7" class="edge"><title>ContentList&#45;&gt;Content</title>
<path fill="none" stroke="#cc1b11" d="M1041.6,-402.705C1041.6,-380.797 1041.6,-355.356 1041.6,-331.553"/>
<ellipse fill="none" stroke="#cc1b11" cx="1041.6" cy="-406.796" rx="4" ry="4"/>
<ellipse fill="#cc1b11" stroke="#cc1b11" cx="1041.6" cy="-327.551" rx="4" ry="4"/>
</g>
<!-- ContentMarkdown -->
<g id="node8" class="node"><title>ContentMarkdown</title>
<path fill="none" stroke="black" d="M1138.1,-411C1138.1,-411 1247.11,-411 1247.11,-411 1253.11,-411 1259.11,-417 1259.11,-423 1259.11,-423 1259.11,-499 1259.11,-499 1259.11,-505 1253.11,-511 1247.11,-511 1247.11,-511 1138.1,-511 1138.1,-511 1132.1,-511 1126.1,-505 1126.1,-499 1126.1,-499 1126.1,-423 1126.1,-423 1126.1,-417 1132.1,-411 1138.1,-411"/>
<text text-anchor="middle" x="1192.6" y="-493" font-family="Times,serif" font-size="14.00">ContentMarkdown</text>
<polyline fill="none" stroke="black" points="1126.1,-486.2 1259.11,-486.2 "/>
<text text-anchor="start" x="1134.1" y="-468.2" font-family="Times,serif" font-size="14.00">id :integer</text>
<text text-anchor="start" x="1134.1" y="-451.4" font-family="Times,serif" font-size="14.00">value :text</text>
<text text-anchor="start" x="1134.1" y="-434.6" font-family="Times,serif" font-size="14.00">created_at :datetime</text>
<text text-anchor="start" x="1134.1" y="-417.8" font-family="Times,serif" font-size="14.00">updated_at :datetime</text>
</g>
<!-- ContentMarkdown&#45;&gt;Content -->
<g id="edge8" class="edge"><title>ContentMarkdown&#45;&gt;Content</title>
<path fill="none" stroke="#8055a3" d="M1152.74,-404.289C1136.5,-381.6 1117.41,-354.924 1099.68,-330.145"/>
<ellipse fill="none" stroke="#8055a3" cx="1155.06" cy="-407.543" rx="4.00002" ry="4.00002"/>
<ellipse fill="#8055a3" stroke="#8055a3" cx="1097.28" cy="-326.804" rx="4.00002" ry="4.00002"/>
</g>
<!-- ContentString -->
<g id="node9" class="node"><title>ContentString</title>
<path fill="none" stroke="black" d="M1289.1,-411C1289.1,-411 1398.11,-411 1398.11,-411 1404.11,-411 1410.11,-417 1410.11,-423 1410.11,-423 1410.11,-499 1410.11,-499 1410.11,-505 1404.11,-511 1398.11,-511 1398.11,-511 1289.1,-511 1289.1,-511 1283.1,-511 1277.1,-505 1277.1,-499 1277.1,-499 1277.1,-423 1277.1,-423 1277.1,-417 1283.1,-411 1289.1,-411"/>
<text text-anchor="middle" x="1343.6" y="-493" font-family="Times,serif" font-size="14.00">ContentString</text>
<polyline fill="none" stroke="black" points="1277.1,-486.2 1410.11,-486.2 "/>
<text text-anchor="start" x="1285.1" y="-468.2" font-family="Times,serif" font-size="14.00">id :integer</text>
<text text-anchor="start" x="1285.1" y="-451.4" font-family="Times,serif" font-size="14.00">value :string</text>
<text text-anchor="start" x="1285.1" y="-434.6" font-family="Times,serif" font-size="14.00">created_at :datetime</text>
<text text-anchor="start" x="1285.1" y="-417.8" font-family="Times,serif" font-size="14.00">updated_at :datetime</text>
</g>
<!-- ContentString&#45;&gt;Content -->
<g id="edge9" class="edge"><title>ContentString&#45;&gt;Content</title>
<path fill="none" stroke="#0e165a" d="M1308.34,-404.187C1296.69,-388.58 1282.78,-372.49 1267.6,-360 1225.17,-325.064 1169.89,-297.667 1124.63,-278.832"/>
<ellipse fill="none" stroke="#0e165a" cx="1310.84" cy="-407.604" rx="4.00002" ry="4.00002"/>
<ellipse fill="#0e165a" stroke="#0e165a" cx="1120.86" cy="-277.286" rx="4.00002" ry="4.00002"/>
</g>
<!-- ContentText -->
<g id="node10" class="node"><title>ContentText</title>
<path fill="none" stroke="black" d="M1440.1,-411C1440.1,-411 1549.11,-411 1549.11,-411 1555.11,-411 1561.11,-417 1561.11,-423 1561.11,-423 1561.11,-499 1561.11,-499 1561.11,-505 1555.11,-511 1549.11,-511 1549.11,-511 1440.1,-511 1440.1,-511 1434.1,-511 1428.1,-505 1428.1,-499 1428.1,-499 1428.1,-423 1428.1,-423 1428.1,-417 1434.1,-411 1440.1,-411"/>
<text text-anchor="middle" x="1494.6" y="-493" font-family="Times,serif" font-size="14.00">ContentText</text>
<polyline fill="none" stroke="black" points="1428.1,-486.2 1561.11,-486.2 "/>
<text text-anchor="start" x="1436.1" y="-468.2" font-family="Times,serif" font-size="14.00">id :integer</text>
<text text-anchor="start" x="1436.1" y="-451.4" font-family="Times,serif" font-size="14.00">value :text</text>
<text text-anchor="start" x="1436.1" y="-434.6" font-family="Times,serif" font-size="14.00">created_at :datetime</text>
<text text-anchor="start" x="1436.1" y="-417.8" font-family="Times,serif" font-size="14.00">updated_at :datetime</text>
</g>
<!-- ContentText&#45;&gt;Content -->
<g id="edge10" class="edge"><title>ContentText&#45;&gt;Content</title>
<path fill="none" stroke="#bd7ae8" d="M1461.62,-403.874C1449.82,-387.769 1435.26,-371.48 1418.6,-360 1329.68,-298.686 1206.56,-270.757 1125.55,-258.369"/>
<ellipse fill="none" stroke="#bd7ae8" cx="1464.19" cy="-407.489" rx="4.00002" ry="4.00002"/>
<ellipse fill="#bd7ae8" stroke="#bd7ae8" cx="1121.31" cy="-257.737" rx="4.00001" ry="4.00001"/>
</g>
<!-- DataList -->
<g id="node11" class="node"><title>DataList</title>
<path fill="none" stroke="black" d="M20.0995,-181.2C20.0995,-181.2 129.11,-181.2 129.11,-181.2 135.11,-181.2 141.11,-187.2 141.11,-193.2 141.11,-193.2 141.11,-302.8 141.11,-302.8 141.11,-308.8 135.11,-314.8 129.11,-314.8 129.11,-314.8 20.0995,-314.8 20.0995,-314.8 14.0995,-314.8 8.09948,-308.8 8.09948,-302.8 8.09948,-302.8 8.09948,-193.2 8.09948,-193.2 8.09948,-187.2 14.0995,-181.2 20.0995,-181.2"/>
<text text-anchor="middle" x="74.6049" y="-296.8" font-family="Times,serif" font-size="14.00">DataList</text>
<polyline fill="none" stroke="black" points="8.09948,-290 141.11,-290 "/>
<text text-anchor="start" x="16.0995" y="-272" font-family="Times,serif" font-size="14.00">id :integer</text>
<text text-anchor="start" x="16.0995" y="-255.2" font-family="Times,serif" font-size="14.00">list_id :integer</text>
<text text-anchor="start" x="16.0995" y="-238.4" font-family="Times,serif" font-size="14.00">property_id :integer</text>
<text text-anchor="start" x="16.0995" y="-221.6" font-family="Times,serif" font-size="14.00">multiple :boolean</text>
<text text-anchor="start" x="16.0995" y="-204.8" font-family="Times,serif" font-size="14.00">created_at :datetime</text>
<text text-anchor="start" x="16.0995" y="-188" font-family="Times,serif" font-size="14.00">updated_at :datetime</text>
</g>
<!-- DataType -->
<g id="node12" class="node"><title>DataType</title>
<path fill="none" stroke="black" d="M190.148,-615.2C190.148,-615.2 303.062,-615.2 303.062,-615.2 309.062,-615.2 315.062,-621.2 315.062,-627.2 315.062,-627.2 315.062,-736.8 315.062,-736.8 315.062,-742.8 309.062,-748.8 303.062,-748.8 303.062,-748.8 190.148,-748.8 190.148,-748.8 184.148,-748.8 178.148,-742.8 178.148,-736.8 178.148,-736.8 178.148,-627.2 178.148,-627.2 178.148,-621.2 184.148,-615.2 190.148,-615.2"/>
<text text-anchor="middle" x="246.605" y="-730.8" font-family="Times,serif" font-size="14.00">DataType</text>
<polyline fill="none" stroke="black" points="178.148,-724 315.062,-724 "/>
<text text-anchor="start" x="186.148" y="-706" font-family="Times,serif" font-size="14.00">id :integer</text>
<text text-anchor="start" x="186.148" y="-689.2" font-family="Times,serif" font-size="14.00">friendly_name :string</text>
<text text-anchor="start" x="186.148" y="-672.4" font-family="Times,serif" font-size="14.00">name :string</text>
<text text-anchor="start" x="186.148" y="-655.6" font-family="Times,serif" font-size="14.00">help :text</text>
<text text-anchor="start" x="186.148" y="-638.8" font-family="Times,serif" font-size="14.00">created_at :datetime</text>
<text text-anchor="start" x="186.148" y="-622" font-family="Times,serif" font-size="14.00">updated_at :datetime</text>
</g>
<!-- DataType&#45;&gt;Property -->
<g id="edge11" class="edge"><title>DataType&#45;&gt;Property</title>
<path fill="none" stroke="#299f72" d="M246.605,-606.972C246.605,-595.541 246.605,-583.532 246.605,-571.522"/>
<ellipse fill="none" stroke="#299f72" cx="246.605" cy="-610.996" rx="4" ry="4"/>
<polygon fill="#299f72" stroke="#299f72" points="246.605,-571.446 251.105,-561.446 246.605,-566.446 246.605,-561.446 246.605,-561.446 246.605,-561.446 246.605,-566.446 242.105,-561.446 246.605,-571.446 246.605,-571.446"/>
</g>
<!-- List -->
<g id="node13" class="node"><title>List</title>
<path fill="none" stroke="black" d="M39.0995,-615.2C39.0995,-615.2 148.11,-615.2 148.11,-615.2 154.11,-615.2 160.11,-621.2 160.11,-627.2 160.11,-627.2 160.11,-736.8 160.11,-736.8 160.11,-742.8 154.11,-748.8 148.11,-748.8 148.11,-748.8 39.0995,-748.8 39.0995,-748.8 33.0995,-748.8 27.0995,-742.8 27.0995,-736.8 27.0995,-736.8 27.0995,-627.2 27.0995,-627.2 27.0995,-621.2 33.0995,-615.2 39.0995,-615.2"/>
<text text-anchor="middle" x="93.6049" y="-730.8" font-family="Times,serif" font-size="14.00">List</text>
<polyline fill="none" stroke="black" points="27.0995,-724 160.11,-724 "/>
<text text-anchor="start" x="35.0995" y="-706" font-family="Times,serif" font-size="14.00">id :integer</text>
<text text-anchor="start" x="35.0995" y="-689.2" font-family="Times,serif" font-size="14.00">name :string</text>
<text text-anchor="start" x="35.0995" y="-672.4" font-family="Times,serif" font-size="14.00">slug :string</text>
<text text-anchor="start" x="35.0995" y="-655.6" font-family="Times,serif" font-size="14.00">user_id :integer</text>
<text text-anchor="start" x="35.0995" y="-638.8" font-family="Times,serif" font-size="14.00">created_at :datetime</text>
<text text-anchor="start" x="35.0995" y="-622" font-family="Times,serif" font-size="14.00">updated_at :datetime</text>
</g>
<!-- List&#45;&gt;DataList -->
<g id="edge13" class="edge"><title>List&#45;&gt;DataList</title>
<path fill="none" stroke="#1471a2" d="M38.0387,-607.986C29.6168,-593.444 22.2118,-577.773 17.6049,-562 -7.56613,-475.823 -3.4913,-447.264 17.6049,-360 20.5169,-347.954 24.9739,-335.749 30.1399,-324.057"/>
<ellipse fill="none" stroke="#1471a2" cx="40.1954" cy="-611.596" rx="4.00002" ry="4.00002"/>
<polygon fill="#1471a2" stroke="#1471a2" points="30.2217,-323.88 38.5034,-316.692 32.3204,-319.342 34.419,-314.804 34.419,-314.804 34.419,-314.804 32.3204,-319.342 30.3345,-312.915 30.2217,-323.88 30.2217,-323.88"/>
</g>
<!-- ListValue -->
<g id="node14" class="node"><title>ListValue</title>
<path fill="none" stroke="black" d="M39.0995,-402.6C39.0995,-402.6 148.11,-402.6 148.11,-402.6 154.11,-402.6 160.11,-408.6 160.11,-414.6 160.11,-414.6 160.11,-507.4 160.11,-507.4 160.11,-513.4 154.11,-519.4 148.11,-519.4 148.11,-519.4 39.0995,-519.4 39.0995,-519.4 33.0995,-519.4 27.0995,-513.4 27.0995,-507.4 27.0995,-507.4 27.0995,-414.6 27.0995,-414.6 27.0995,-408.6 33.0995,-402.6 39.0995,-402.6"/>
<text text-anchor="middle" x="93.6049" y="-501.4" font-family="Times,serif" font-size="14.00">ListValue</text>
<polyline fill="none" stroke="black" points="27.0995,-494.6 160.11,-494.6 "/>
<text text-anchor="start" x="35.0995" y="-476.6" font-family="Times,serif" font-size="14.00">id :integer</text>
<text text-anchor="start" x="35.0995" y="-459.8" font-family="Times,serif" font-size="14.00">value :text</text>
<text text-anchor="start" x="35.0995" y="-443" font-family="Times,serif" font-size="14.00">list_id :integer</text>
<text text-anchor="start" x="35.0995" y="-426.2" font-family="Times,serif" font-size="14.00">created_at :datetime</text>
<text text-anchor="start" x="35.0995" y="-409.4" font-family="Times,serif" font-size="14.00">updated_at :datetime</text>
</g>
<!-- List&#45;&gt;ListValue -->
<g id="edge12" class="edge"><title>List&#45;&gt;ListValue</title>
<path fill="none" stroke="#238ff9" d="M93.6049,-606.694C93.6049,-581.836 93.6049,-554.269 93.6049,-529.923"/>
<ellipse fill="none" stroke="#238ff9" cx="93.6049" cy="-610.996" rx="4" ry="4"/>
<polygon fill="#238ff9" stroke="#238ff9" points="93.6049,-529.704 98.1049,-519.704 93.6049,-524.704 93.6049,-519.704 93.6049,-519.704 93.6049,-519.704 93.6049,-524.704 89.1049,-519.704 93.6049,-529.704 93.6049,-529.704"/>
</g>
<!-- List&#45;&gt;Property -->
<g id="edge14" class="edge"><title>List&#45;&gt;Property</title>
<path fill="none" stroke="#de496d" d="M145.493,-606.729C154.134,-594.36 163.245,-581.318 172.315,-568.337"/>
<polygon fill="#de496d" stroke="#de496d" points="145.445,-606.798 136.028,-612.419 142.581,-610.897 139.717,-614.996 139.717,-614.996 139.717,-614.996 142.581,-610.897 143.406,-617.573 145.445,-606.798 145.445,-606.798"/>
<polygon fill="#de496d" stroke="#de496d" points="172.536,-568.019 181.952,-562.399 175.4,-563.921 178.264,-559.822 178.264,-559.822 178.264,-559.822 175.4,-563.921 174.575,-557.245 172.536,-568.019 172.536,-568.019"/>
</g>
<!-- Property&#45;&gt;DataList -->
<g id="edge17" class="edge"><title>Property&#45;&gt;DataList</title>
<path fill="none" stroke="#1c977a" d="M173.229,-365.71C171.677,-363.787 170.135,-361.882 168.605,-360 158.712,-347.83 148.086,-335.031 137.666,-322.625"/>
<ellipse fill="none" stroke="#1c977a" cx="176.026" cy="-369.191" rx="4.00002" ry="4.00002"/>
<polygon fill="#1c977a" stroke="#1c977a" points="137.653,-322.61 134.655,-312.062 134.433,-318.786 131.212,-314.961 131.212,-314.961 131.212,-314.961 134.433,-318.786 127.77,-317.859 137.653,-322.61 137.653,-322.61"/>
</g>
<!-- Validation -->
<g id="node19" class="node"><title>Validation</title>
<path fill="none" stroke="black" d="M173.986,-1.2C173.986,-1.2 317.224,-1.2 317.224,-1.2 323.224,-1.2 329.224,-7.2 329.224,-13.2 329.224,-13.2 329.224,-122.8 329.224,-122.8 329.224,-128.8 323.224,-134.8 317.224,-134.8 317.224,-134.8 173.986,-134.8 173.986,-134.8 167.986,-134.8 161.986,-128.8 161.986,-122.8 161.986,-122.8 161.986,-13.2 161.986,-13.2 161.986,-7.2 167.986,-1.2 173.986,-1.2"/>
<text text-anchor="middle" x="245.605" y="-116.8" font-family="Times,serif" font-size="14.00">Validation</text>
<polyline fill="none" stroke="black" points="161.986,-110 329.224,-110 "/>
<text text-anchor="start" x="169.986" y="-92" font-family="Times,serif" font-size="14.00">id :integer</text>
<text text-anchor="start" x="169.986" y="-75.2" font-family="Times,serif" font-size="14.00">validation_type_id :integer</text>
<text text-anchor="start" x="169.986" y="-58.4" font-family="Times,serif" font-size="14.00">property_id :integer</text>
<text text-anchor="start" x="169.986" y="-41.6" font-family="Times,serif" font-size="14.00">value :string</text>
<text text-anchor="start" x="169.986" y="-24.8" font-family="Times,serif" font-size="14.00">created_at :datetime</text>
<text text-anchor="start" x="169.986" y="-8" font-family="Times,serif" font-size="14.00">updated_at :datetime</text>
</g>
<!-- Property&#45;&gt;Validation -->
<g id="edge15" class="edge"><title>Property&#45;&gt;Validation</title>
<path fill="none" stroke="#dfbea7" d="M218.049,-352.544C216.252,-342.944 214.721,-333.329 213.605,-324 205.583,-256.922 203.469,-238.791 213.605,-172 214.967,-163.027 216.96,-153.759 219.297,-144.631"/>
<ellipse fill="none" stroke="#dfbea7" cx="218.852" cy="-356.672" rx="4.00001" ry="4.00001"/>
<polygon fill="#dfbea7" stroke="#dfbea7" points="219.344,-144.454 226.297,-135.974 220.649,-139.627 221.953,-134.8 221.953,-134.8 221.953,-134.8 220.649,-139.627 217.609,-133.626 219.344,-144.454 219.344,-144.454"/>
</g>
<!-- ValidationType -->
<g id="node20" class="node"><title>ValidationType</title>
<path fill="none" stroke="black" d="M234.548,-172.8C234.548,-172.8 360.662,-172.8 360.662,-172.8 366.662,-172.8 372.662,-178.8 372.662,-184.8 372.662,-184.8 372.662,-311.2 372.662,-311.2 372.662,-317.2 366.662,-323.2 360.662,-323.2 360.662,-323.2 234.548,-323.2 234.548,-323.2 228.548,-323.2 222.548,-317.2 222.548,-311.2 222.548,-311.2 222.548,-184.8 222.548,-184.8 222.548,-178.8 228.548,-172.8 234.548,-172.8"/>
<text text-anchor="middle" x="297.605" y="-305.2" font-family="Times,serif" font-size="14.00">ValidationType</text>
<polyline fill="none" stroke="black" points="222.548,-298.4 372.662,-298.4 "/>
<text text-anchor="start" x="230.548" y="-280.4" font-family="Times,serif" font-size="14.00">id :integer</text>
<text text-anchor="start" x="230.548" y="-263.6" font-family="Times,serif" font-size="14.00">friendly_name :string</text>
<text text-anchor="start" x="230.548" y="-246.8" font-family="Times,serif" font-size="14.00">name :string</text>
<text text-anchor="start" x="230.548" y="-230" font-family="Times,serif" font-size="14.00">help :text</text>
<text text-anchor="start" x="230.548" y="-213.2" font-family="Times,serif" font-size="14.00">requires_value :boolean</text>
<text text-anchor="start" x="230.548" y="-196.4" font-family="Times,serif" font-size="14.00">created_at :datetime</text>
<text text-anchor="start" x="230.548" y="-179.6" font-family="Times,serif" font-size="14.00">updated_at :datetime</text>
</g>
<!-- Property&#45;&gt;ValidationType -->
<g id="edge16" class="edge"><title>Property&#45;&gt;ValidationType</title>
<path fill="none" stroke="#b30c68" d="M273.093,-350.411C274.479,-344.677 275.861,-338.959 277.223,-333.325"/>
<polygon fill="#b30c68" stroke="#b30c68" points="273.036,-350.65 266.312,-359.313 271.861,-355.51 270.686,-360.37 270.686,-360.37 270.686,-360.37 271.861,-355.51 275.06,-361.427 273.036,-350.65 273.036,-350.65"/>
<polygon fill="#b30c68" stroke="#b30c68" points="277.299,-333.009 284.023,-324.347 278.474,-328.149 279.649,-323.289 279.649,-323.289 279.649,-323.289 278.474,-328.149 275.275,-322.232 277.299,-333.009 277.299,-333.009"/>
</g>
<!-- Square::Person -->
<g id="node16" class="node"><title>Square::Person</title>
<polygon fill="none" stroke="black" points="1731.22,-657.2 1731.22,-706.8 1831.99,-706.8 1831.99,-657.2 1731.22,-657.2"/>
<text text-anchor="middle" x="1781.6" y="-688.8" font-family="Times,serif" font-size="14.00">Square::Person</text>
<polyline fill="none" stroke="black" points="1731.22,-682 1831.99,-682 "/>
<text text-anchor="middle" x="1781.6" y="-664" font-family="Times,serif" font-size="14.00"> </text>
</g>
<!-- Thing&#45;&gt;Content -->
<g id="edge18" class="edge"><title>Thing&#45;&gt;Content</title>
<path fill="none" stroke="#199cc1" d="M1607.95,-395.707C1597.09,-382.135 1584.19,-369.165 1569.6,-360 1431.73,-273.386 1237.66,-253.218 1127.27,-249.195"/>
<ellipse fill="none" stroke="#199cc1" cx="1610.67" cy="-399.237" rx="4.00002" ry="4.00002"/>
<polygon fill="#199cc1" stroke="#199cc1" points="1127.18,-249.192 1117.33,-244.367 1122.18,-249.028 1117.19,-248.864 1117.19,-248.864 1117.19,-248.864 1122.18,-249.028 1117.04,-253.362 1127.18,-249.192 1127.18,-249.192"/>
</g>
<!-- User -->
<g id="node18" class="node"><title>User</title>
<path fill="none" stroke="black" d="M1592.1,-598.4C1592.1,-598.4 1701.11,-598.4 1701.11,-598.4 1707.11,-598.4 1713.11,-604.4 1713.11,-610.4 1713.11,-610.4 1713.11,-753.6 1713.11,-753.6 1713.11,-759.6 1707.11,-765.6 1701.11,-765.6 1701.11,-765.6 1592.1,-765.6 1592.1,-765.6 1586.1,-765.6 1580.1,-759.6 1580.1,-753.6 1580.1,-753.6 1580.1,-610.4 1580.1,-610.4 1580.1,-604.4 1586.1,-598.4 1592.1,-598.4"/>
<text text-anchor="middle" x="1646.6" y="-747.6" font-family="Times,serif" font-size="14.00">User</text>
<polyline fill="none" stroke="black" points="1580.1,-740.8 1713.11,-740.8 "/>
<text text-anchor="start" x="1588.1" y="-722.8" font-family="Times,serif" font-size="14.00">id :integer</text>
<text text-anchor="start" x="1588.1" y="-706" font-family="Times,serif" font-size="14.00">username :string</text>
<text text-anchor="start" x="1588.1" y="-689.2" font-family="Times,serif" font-size="14.00">firstname :string</text>
<text text-anchor="start" x="1588.1" y="-672.4" font-family="Times,serif" font-size="14.00">lastname :string</text>
<text text-anchor="start" x="1588.1" y="-655.6" font-family="Times,serif" font-size="14.00">admin :boolean</text>
<text text-anchor="start" x="1588.1" y="-638.8" font-family="Times,serif" font-size="14.00">superuser :boolean</text>
<text text-anchor="start" x="1588.1" y="-622" font-family="Times,serif" font-size="14.00">created_at :datetime</text>
<text text-anchor="start" x="1588.1" y="-605.2" font-family="Times,serif" font-size="14.00">updated_at :datetime</text>
</g>
<!-- User&#45;&gt;Thing -->
<g id="edge19" class="edge"><title>User&#45;&gt;Thing</title>
<path fill="none" stroke="#64ad6b" d="M1646.6,-590.174C1646.6,-569.964 1646.6,-548.88 1646.6,-529.786"/>
<ellipse fill="none" stroke="#64ad6b" cx="1646.6" cy="-594.205" rx="4" ry="4"/>
<polygon fill="#64ad6b" stroke="#64ad6b" points="1646.6,-529.701 1651.1,-519.701 1646.6,-524.701 1646.6,-519.701 1646.6,-519.701 1646.6,-519.701 1646.6,-524.701 1642.1,-519.701 1646.6,-529.701 1646.6,-529.701"/>
</g>
<!-- ValidationType&#45;&gt;Validation -->
<g id="edge20" class="edge"><title>ValidationType&#45;&gt;Validation</title>
<path fill="none" stroke="#1dc39b" d="M273.534,-164.603C271.582,-157.923 269.616,-151.193 267.68,-144.565"/>
<ellipse fill="none" stroke="#1dc39b" cx="274.732" cy="-168.704" rx="4.00001" ry="4.00001"/>
<polygon fill="#1dc39b" stroke="#1dc39b" points="267.674,-144.544 269.189,-133.683 266.272,-139.744 264.87,-134.945 264.87,-134.945 264.87,-134.945 266.272,-139.744 260.55,-136.207 267.674,-144.544 267.674,-144.544"/>
</g>
</g>
</svg>
