<?xml version="1.0" encoding="UTF-8" standalone="no"?>
<!DOCTYPE svg PUBLIC "-//W3C//DTD SVG 1.1//EN"
 "http://www.w3.org/Graphics/SVG/1.1/DTD/svg11.dtd">
<!-- Generated by graphviz version 2.34.0 (20130915.1124)
 -->
<!-- Title: models_diagram Pages: 1 -->
<svg width="1201pt" height="658pt"
 viewBox="0.00 0.00 1201.00 658.00" xmlns="http://www.w3.org/2000/svg" xmlns:xlink="http://www.w3.org/1999/xlink">
<g id="graph0" class="graph" transform="scale(1 1) rotate(0) translate(4 654)">
<title>models_diagram</title>
<polygon fill="white" stroke="white" points="-4,4 -4,-654 1197,-654 1197,4 -4,4"/>
<!-- _diagram_info -->
<g id="node1" class="node"><title>_diagram_info</title>
<text text-anchor="start" x="251.312" y="-633" font-family="Times,serif" font-size="13.00">Models diagram</text>
<text text-anchor="start" x="251.312" y="-617.4" font-family="Times,serif" font-size="13.00">Date: Sep 15 2013 &#45; 12:35</text>
<text text-anchor="start" x="251.312" y="-601.8" font-family="Times,serif" font-size="13.00">Migration version: 20130913190657</text>
<text text-anchor="start" x="251.312" y="-586.2" font-family="Times,serif" font-size="13.00">Generated by RailRoady 1.1.1</text>
<text text-anchor="start" x="251.312" y="-570.6" font-family="Times,serif" font-size="13.00">http://railroady.prestonlee.com</text>
</g>
<!-- Collection -->
<g id="node2" class="node"><title>Collection</title>
<path fill="none" stroke="black" d="M204.495,-401.6C204.495,-401.6 313.505,-401.6 313.505,-401.6 319.505,-401.6 325.505,-407.6 325.505,-413.6 325.505,-413.6 325.505,-506.4 325.505,-506.4 325.505,-512.4 319.505,-518.4 313.505,-518.4 313.505,-518.4 204.495,-518.4 204.495,-518.4 198.495,-518.4 192.495,-512.4 192.495,-506.4 192.495,-506.4 192.495,-413.6 192.495,-413.6 192.495,-407.6 198.495,-401.6 204.495,-401.6"/>
<text text-anchor="middle" x="259" y="-500.4" font-family="Times,serif" font-size="14.00">Collection</text>
<polyline fill="none" stroke="black" points="192.495,-493.6 325.505,-493.6 "/>
<text text-anchor="start" x="200.495" y="-475.6" font-family="Times,serif" font-size="14.00">id :integer</text>
<text text-anchor="start" x="200.495" y="-458.8" font-family="Times,serif" font-size="14.00">name :string</text>
<text text-anchor="start" x="200.495" y="-442" font-family="Times,serif" font-size="14.00">slug :string</text>
<text text-anchor="start" x="200.495" y="-425.2" font-family="Times,serif" font-size="14.00">created_at :datetime</text>
<text text-anchor="start" x="200.495" y="-408.4" font-family="Times,serif" font-size="14.00">updated_at :datetime</text>
</g>
<!-- Property -->
<g id="node12" class="node"><title>Property</title>
<path fill="none" stroke="black" d="M68.3257,-188.4C68.3257,-188.4 179.674,-188.4 179.674,-188.4 185.674,-188.4 191.674,-194.4 191.674,-200.4 191.674,-200.4 191.674,-343.6 191.674,-343.6 191.674,-349.6 185.674,-355.6 179.674,-355.6 179.674,-355.6 68.3257,-355.6 68.3257,-355.6 62.3257,-355.6 56.3257,-349.6 56.3257,-343.6 56.3257,-343.6 56.3257,-200.4 56.3257,-200.4 56.3257,-194.4 62.3257,-188.4 68.3257,-188.4"/>
<text text-anchor="middle" x="124" y="-337.6" font-family="Times,serif" font-size="14.00">Property</text>
<polyline fill="none" stroke="black" points="56.3257,-330.8 191.674,-330.8 "/>
<text text-anchor="start" x="64.3257" y="-312.8" font-family="Times,serif" font-size="14.00">id :integer</text>
<text text-anchor="start" x="64.3257" y="-296" font-family="Times,serif" font-size="14.00">name :string</text>
<text text-anchor="start" x="64.3257" y="-279.2" font-family="Times,serif" font-size="14.00">slug :string</text>
<text text-anchor="start" x="64.3257" y="-262.4" font-family="Times,serif" font-size="14.00">help :text</text>
<text text-anchor="start" x="64.3257" y="-245.6" font-family="Times,serif" font-size="14.00">data_type_id :integer</text>
<text text-anchor="start" x="64.3257" y="-228.8" font-family="Times,serif" font-size="14.00">collection_id :integer</text>
<text text-anchor="start" x="64.3257" y="-212" font-family="Times,serif" font-size="14.00">created_at :datetime</text>
<text text-anchor="start" x="64.3257" y="-195.2" font-family="Times,serif" font-size="14.00">updated_at :datetime</text>
</g>
<!-- Collection&#45;&gt;Property -->
<g id="edge2" class="edge"><title>Collection&#45;&gt;Property</title>
<path fill="none" stroke="#2f4b5b" d="M212.494,-394.926C205.295,-385.007 197.742,-374.601 190.211,-364.224"/>
<ellipse fill="none" stroke="#2f4b5b" cx="214.86" cy="-398.185" rx="4.00002" ry="4.00002"/>
<polygon fill="#2f4b5b" stroke="#2f4b5b" points="190.056,-364.011 187.824,-353.275 187.119,-359.964 184.182,-355.918 184.182,-355.918 184.182,-355.918 187.119,-359.964 180.541,-358.561 190.056,-364.011 190.056,-364.011"/>
</g>
<!-- Thing -->
<g id="node13" class="node"><title>Thing</title>
<path fill="none" stroke="black" d="M221.326,-222C221.326,-222 332.674,-222 332.674,-222 338.674,-222 344.674,-228 344.674,-234 344.674,-234 344.674,-310 344.674,-310 344.674,-316 338.674,-322 332.674,-322 332.674,-322 221.326,-322 221.326,-322 215.326,-322 209.326,-316 209.326,-310 209.326,-310 209.326,-234 209.326,-234 209.326,-228 215.326,-222 221.326,-222"/>
<text text-anchor="middle" x="277" y="-304" font-family="Times,serif" font-size="14.00">Thing</text>
<polyline fill="none" stroke="black" points="209.326,-297.2 344.674,-297.2 "/>
<text text-anchor="start" x="217.326" y="-279.2" font-family="Times,serif" font-size="14.00">id :integer</text>
<text text-anchor="start" x="217.326" y="-262.4" font-family="Times,serif" font-size="14.00">collection_id :integer</text>
<text text-anchor="start" x="217.326" y="-245.6" font-family="Times,serif" font-size="14.00">created_at :datetime</text>
<text text-anchor="start" x="217.326" y="-228.8" font-family="Times,serif" font-size="14.00">updated_at :datetime</text>
</g>
<!-- Collection&#45;&gt;Thing -->
<g id="edge1" class="edge"><title>Collection&#45;&gt;Thing</title>
<path fill="none" stroke="#3a52cd" d="M265.362,-393.261C267.282,-373.423 269.377,-351.769 271.254,-332.372"/>
<ellipse fill="none" stroke="#3a52cd" cx="264.957" cy="-397.441" rx="4" ry="4"/>
<polygon fill="#3a52cd" stroke="#3a52cd" points="271.28,-332.109 276.722,-322.589 271.761,-327.132 272.243,-322.155 272.243,-322.155 272.243,-322.155 271.761,-327.132 267.764,-321.722 271.28,-332.109 271.28,-332.109"/>
</g>
<!-- Content -->
<g id="node3" class="node"><title>Content</title>
<path fill="none" stroke="black" d="M725.546,-0.8C725.546,-0.8 852.454,-0.8 852.454,-0.8 858.454,-0.8 864.454,-6.8 864.454,-12.8 864.454,-12.8 864.454,-139.2 864.454,-139.2 864.454,-145.2 858.454,-151.2 852.454,-151.2 852.454,-151.2 725.546,-151.2 725.546,-151.2 719.546,-151.2 713.546,-145.2 713.546,-139.2 713.546,-139.2 713.546,-12.8 713.546,-12.8 713.546,-6.8 719.546,-0.8 725.546,-0.8"/>
<text text-anchor="middle" x="789" y="-133.2" font-family="Times,serif" font-size="14.00">Content</text>
<polyline fill="none" stroke="black" points="713.546,-126.4 864.454,-126.4 "/>
<text text-anchor="start" x="721.546" y="-108.4" font-family="Times,serif" font-size="14.00">id :integer</text>
<text text-anchor="start" x="721.546" y="-91.6" font-family="Times,serif" font-size="14.00">thing_id :integer</text>
<text text-anchor="start" x="721.546" y="-74.8" font-family="Times,serif" font-size="14.00">property_id :integer</text>
<text text-anchor="start" x="721.546" y="-58" font-family="Times,serif" font-size="14.00">contentable_id :integer</text>
<text text-anchor="start" x="721.546" y="-41.2" font-family="Times,serif" font-size="14.00">contentable_type :string</text>
<text text-anchor="start" x="721.546" y="-24.4" font-family="Times,serif" font-size="14.00">created_at :datetime</text>
<text text-anchor="start" x="721.546" y="-7.6" font-family="Times,serif" font-size="14.00">updated_at :datetime</text>
</g>
<!-- ContentBoolean -->
<g id="node4" class="node"><title>ContentBoolean</title>
<path fill="none" stroke="black" d="M413.495,-222C413.495,-222 522.505,-222 522.505,-222 528.505,-222 534.505,-228 534.505,-234 534.505,-234 534.505,-310 534.505,-310 534.505,-316 528.505,-322 522.505,-322 522.505,-322 413.495,-322 413.495,-322 407.495,-322 401.495,-316 401.495,-310 401.495,-310 401.495,-234 401.495,-234 401.495,-228 407.495,-222 413.495,-222"/>
<text text-anchor="middle" x="468" y="-304" font-family="Times,serif" font-size="14.00">ContentBoolean</text>
<polyline fill="none" stroke="black" points="401.495,-297.2 534.505,-297.2 "/>
<text text-anchor="start" x="409.495" y="-279.2" font-family="Times,serif" font-size="14.00">id :integer</text>
<text text-anchor="start" x="409.495" y="-262.4" font-family="Times,serif" font-size="14.00">value :boolean</text>
<text text-anchor="start" x="409.495" y="-245.6" font-family="Times,serif" font-size="14.00">created_at :datetime</text>
<text text-anchor="start" x="409.495" y="-228.8" font-family="Times,serif" font-size="14.00">updated_at :datetime</text>
</g>
<!-- ContentBoolean&#45;&gt;Content -->
<g id="edge5" class="edge"><title>ContentBoolean&#45;&gt;Content</title>
<path fill="none" stroke="#1b1cce" d="M511.756,-216.001C521.363,-205.905 531.98,-196.034 543,-188 592.608,-151.835 655.876,-123.613 705.827,-104.677"/>
<ellipse fill="none" stroke="#1b1cce" cx="508.944" cy="-219.028" rx="4.00002" ry="4.00002"/>
<ellipse fill="#1b1cce" stroke="#1b1cce" cx="709.665" cy="-103.238" rx="4.00001" ry="4.00001"/>
</g>
<!-- ContentDatetime -->
<g id="node5" class="node"><title>ContentDatetime</title>
<path fill="none" stroke="black" d="M564.495,-222C564.495,-222 673.505,-222 673.505,-222 679.505,-222 685.505,-228 685.505,-234 685.505,-234 685.505,-310 685.505,-310 685.505,-316 679.505,-322 673.505,-322 673.505,-322 564.495,-322 564.495,-322 558.495,-322 552.495,-316 552.495,-310 552.495,-310 552.495,-234 552.495,-234 552.495,-228 558.495,-222 564.495,-222"/>
<text text-anchor="middle" x="619" y="-304" font-family="Times,serif" font-size="14.00">ContentDatetime</text>
<polyline fill="none" stroke="black" points="552.495,-297.2 685.505,-297.2 "/>
<text text-anchor="start" x="560.495" y="-279.2" font-family="Times,serif" font-size="14.00">id :integer</text>
<text text-anchor="start" x="560.495" y="-262.4" font-family="Times,serif" font-size="14.00">value :datetime</text>
<text text-anchor="start" x="560.495" y="-245.6" font-family="Times,serif" font-size="14.00">created_at :datetime</text>
<text text-anchor="start" x="560.495" y="-228.8" font-family="Times,serif" font-size="14.00">updated_at :datetime</text>
</g>
<!-- ContentDatetime&#45;&gt;Content -->
<g id="edge7" class="edge"><title>ContentDatetime&#45;&gt;Content</title>
<path fill="none" stroke="#bae3da" d="M667.465,-215.693C683.332,-197.586 701.296,-177.086 718.451,-157.509"/>
<ellipse fill="none" stroke="#bae3da" cx="664.754" cy="-218.786" rx="4.00002" ry="4.00002"/>
<ellipse fill="#bae3da" stroke="#bae3da" cx="721.109" cy="-154.475" rx="4.00002" ry="4.00002"/>
</g>
<!-- ContentFile -->
<g id="node6" class="node"><title>ContentFile</title>
<path fill="none" stroke="black" d="M715.836,-196.8C715.836,-196.8 862.164,-196.8 862.164,-196.8 868.164,-196.8 874.164,-202.8 874.164,-208.8 874.164,-208.8 874.164,-335.2 874.164,-335.2 874.164,-341.2 868.164,-347.2 862.164,-347.2 862.164,-347.2 715.836,-347.2 715.836,-347.2 709.836,-347.2 703.836,-341.2 703.836,-335.2 703.836,-335.2 703.836,-208.8 703.836,-208.8 703.836,-202.8 709.836,-196.8 715.836,-196.8"/>
<text text-anchor="middle" x="789" y="-329.2" font-family="Times,serif" font-size="14.00">ContentFile</text>
<polyline fill="none" stroke="black" points="703.836,-322.4 874.164,-322.4 "/>
<text text-anchor="start" x="711.836" y="-304.4" font-family="Times,serif" font-size="14.00">id :integer</text>
<text text-anchor="start" x="711.836" y="-287.6" font-family="Times,serif" font-size="14.00">value_file_name :string</text>
<text text-anchor="start" x="711.836" y="-270.8" font-family="Times,serif" font-size="14.00">value_content_type :string</text>
<text text-anchor="start" x="711.836" y="-254" font-family="Times,serif" font-size="14.00">value_file_size :integer</text>
<text text-anchor="start" x="711.836" y="-237.2" font-family="Times,serif" font-size="14.00">value_updated_at :datetime</text>
<text text-anchor="start" x="711.836" y="-220.4" font-family="Times,serif" font-size="14.00">created_at :datetime</text>
<text text-anchor="start" x="711.836" y="-203.6" font-family="Times,serif" font-size="14.00">updated_at :datetime</text>
</g>
<!-- ContentFile&#45;&gt;Content -->
<g id="edge9" class="edge"><title>ContentFile&#45;&gt;Content</title>
<path fill="none" stroke="#a212d0" d="M789,-188.479C789,-178.82 789,-168.964 789,-159.308"/>
<ellipse fill="none" stroke="#a212d0" cx="789" cy="-192.549" rx="4" ry="4"/>
<ellipse fill="#a212d0" stroke="#a212d0" cx="789" cy="-155.251" rx="4" ry="4"/>
</g>
<!-- ContentFixnum -->
<g id="node7" class="node"><title>ContentFixnum</title>
<path fill="none" stroke="black" d="M904.495,-222C904.495,-222 1013.51,-222 1013.51,-222 1019.51,-222 1025.51,-228 1025.51,-234 1025.51,-234 1025.51,-310 1025.51,-310 1025.51,-316 1019.51,-322 1013.51,-322 1013.51,-322 904.495,-322 904.495,-322 898.495,-322 892.495,-316 892.495,-310 892.495,-310 892.495,-234 892.495,-234 892.495,-228 898.495,-222 904.495,-222"/>
<text text-anchor="middle" x="959" y="-304" font-family="Times,serif" font-size="14.00">ContentFixnum</text>
<polyline fill="none" stroke="black" points="892.495,-297.2 1025.51,-297.2 "/>
<text text-anchor="start" x="900.495" y="-279.2" font-family="Times,serif" font-size="14.00">id :integer</text>
<text text-anchor="start" x="900.495" y="-262.4" font-family="Times,serif" font-size="14.00">value :integer</text>
<text text-anchor="start" x="900.495" y="-245.6" font-family="Times,serif" font-size="14.00">created_at :datetime</text>
<text text-anchor="start" x="900.495" y="-228.8" font-family="Times,serif" font-size="14.00">updated_at :datetime</text>
</g>
<!-- ContentFixnum&#45;&gt;Content -->
<g id="edge11" class="edge"><title>ContentFixnum&#45;&gt;Content</title>
<path fill="none" stroke="#5999cd" d="M910.535,-215.693C894.668,-197.586 876.704,-177.086 859.549,-157.509"/>
<ellipse fill="none" stroke="#5999cd" cx="913.246" cy="-218.786" rx="4.00002" ry="4.00002"/>
<ellipse fill="#5999cd" stroke="#5999cd" cx="856.891" cy="-154.475" rx="4.00002" ry="4.00002"/>
</g>
<!-- ContentInteger -->
<g id="node8" class="node"><title>ContentInteger</title>
<path fill="none" stroke="black" d="M764.495,-410C764.495,-410 873.505,-410 873.505,-410 879.505,-410 885.505,-416 885.505,-422 885.505,-422 885.505,-498 885.505,-498 885.505,-504 879.505,-510 873.505,-510 873.505,-510 764.495,-510 764.495,-510 758.495,-510 752.495,-504 752.495,-498 752.495,-498 752.495,-422 752.495,-422 752.495,-416 758.495,-410 764.495,-410"/>
<text text-anchor="middle" x="819" y="-492" font-family="Times,serif" font-size="14.00">ContentInteger</text>
<polyline fill="none" stroke="black" points="752.495,-485.2 885.505,-485.2 "/>
<text text-anchor="start" x="760.495" y="-467.2" font-family="Times,serif" font-size="14.00">id :integer</text>
<text text-anchor="start" x="760.495" y="-450.4" font-family="Times,serif" font-size="14.00">value :integer</text>
<text text-anchor="start" x="760.495" y="-433.6" font-family="Times,serif" font-size="14.00">created_at :datetime</text>
<text text-anchor="start" x="760.495" y="-416.8" font-family="Times,serif" font-size="14.00">updated_at :datetime</text>
</g>
<!-- ContentInteger&#45;&gt;Content -->
<g id="edge13" class="edge"><title>ContentInteger&#45;&gt;Content</title>
<path fill="none" stroke="#9e24ba" d="M877.255,-404.871C883.969,-400.094 890.945,-395.682 898,-392 953.429,-363.067 995.861,-405.548 1034,-356 1079.54,-296.832 1074.46,-250.753 1034,-188 998.533,-132.994 928.464,-104.947 872.312,-90.8268"/>
<ellipse fill="none" stroke="#9e24ba" cx="873.854" cy="-407.383" rx="4.00002" ry="4.00002"/>
<ellipse fill="#9e24ba" stroke="#9e24ba" cx="868.374" cy="-89.8699" rx="4.00001" ry="4.00001"/>
</g>
<!-- ContentString -->
<g id="node9" class="node"><title>ContentString</title>
<path fill="none" stroke="black" d="M919.495,-410C919.495,-410 1028.51,-410 1028.51,-410 1034.51,-410 1040.51,-416 1040.51,-422 1040.51,-422 1040.51,-498 1040.51,-498 1040.51,-504 1034.51,-510 1028.51,-510 1028.51,-510 919.495,-510 919.495,-510 913.495,-510 907.495,-504 907.495,-498 907.495,-498 907.495,-422 907.495,-422 907.495,-416 913.495,-410 919.495,-410"/>
<text text-anchor="middle" x="974" y="-492" font-family="Times,serif" font-size="14.00">ContentString</text>
<polyline fill="none" stroke="black" points="907.495,-485.2 1040.51,-485.2 "/>
<text text-anchor="start" x="915.495" y="-467.2" font-family="Times,serif" font-size="14.00">id :integer</text>
<text text-anchor="start" x="915.495" y="-450.4" font-family="Times,serif" font-size="14.00">value :string</text>
<text text-anchor="start" x="915.495" y="-433.6" font-family="Times,serif" font-size="14.00">created_at :datetime</text>
<text text-anchor="start" x="915.495" y="-416.8" font-family="Times,serif" font-size="14.00">updated_at :datetime</text>
</g>
<!-- ContentString&#45;&gt;Content -->
<g id="edge15" class="edge"><title>ContentString&#45;&gt;Content</title>
<path fill="none" stroke="#68fb94" d="M1034.96,-403.557C1046.82,-389.333 1057.56,-373.159 1064,-356 1090.24,-286.095 1105.76,-249.894 1064,-188 1021.61,-125.175 937.042,-97.8996 872.819,-86.063"/>
<ellipse fill="none" stroke="#68fb94" cx="1032.06" cy="-406.923" rx="4.00002" ry="4.00002"/>
<ellipse fill="#68fb94" stroke="#68fb94" cx="868.634" cy="-85.3235" rx="4.00001" ry="4.00001"/>
</g>
<!-- ContentText -->
<g id="node10" class="node"><title>ContentText</title>
<path fill="none" stroke="black" d="M1072.49,-410C1072.49,-410 1181.51,-410 1181.51,-410 1187.51,-410 1193.51,-416 1193.51,-422 1193.51,-422 1193.51,-498 1193.51,-498 1193.51,-504 1187.51,-510 1181.51,-510 1181.51,-510 1072.49,-510 1072.49,-510 1066.49,-510 1060.49,-504 1060.49,-498 1060.49,-498 1060.49,-422 1060.49,-422 1060.49,-416 1066.49,-410 1072.49,-410"/>
<text text-anchor="middle" x="1127" y="-492" font-family="Times,serif" font-size="14.00">ContentText</text>
<polyline fill="none" stroke="black" points="1060.49,-485.2 1193.51,-485.2 "/>
<text text-anchor="start" x="1068.49" y="-467.2" font-family="Times,serif" font-size="14.00">id :integer</text>
<text text-anchor="start" x="1068.49" y="-450.4" font-family="Times,serif" font-size="14.00">value :text</text>
<text text-anchor="start" x="1068.49" y="-433.6" font-family="Times,serif" font-size="14.00">created_at :datetime</text>
<text text-anchor="start" x="1068.49" y="-416.8" font-family="Times,serif" font-size="14.00">updated_at :datetime</text>
</g>
<!-- ContentText&#45;&gt;Content -->
<g id="edge17" class="edge"><title>ContentText&#45;&gt;Content</title>
<path fill="none" stroke="#0c3cb2" d="M1135.08,-401.673C1140.21,-341.806 1138.49,-248.38 1090,-188 1037.39,-122.482 942.247,-95.6363 872.978,-84.6361"/>
<ellipse fill="none" stroke="#0c3cb2" cx="1134.68" cy="-405.908" rx="4" ry="4"/>
<ellipse fill="#0c3cb2" stroke="#0c3cb2" cx="868.618" cy="-83.9731" rx="4.00001" ry="4.00001"/>
</g>
<!-- DataType -->
<g id="node11" class="node"><title>DataType</title>
<path fill="none" stroke="black" d="M11.543,-393.2C11.543,-393.2 124.457,-393.2 124.457,-393.2 130.457,-393.2 136.457,-399.2 136.457,-405.2 136.457,-405.2 136.457,-514.8 136.457,-514.8 136.457,-520.8 130.457,-526.8 124.457,-526.8 124.457,-526.8 11.543,-526.8 11.543,-526.8 5.54297,-526.8 -0.457031,-520.8 -0.457031,-514.8 -0.457031,-514.8 -0.457031,-405.2 -0.457031,-405.2 -0.457031,-399.2 5.54297,-393.2 11.543,-393.2"/>
<text text-anchor="middle" x="68" y="-508.8" font-family="Times,serif" font-size="14.00">DataType</text>
<polyline fill="none" stroke="black" points="-0.457031,-502 136.457,-502 "/>
<text text-anchor="start" x="7.54297" y="-484" font-family="Times,serif" font-size="14.00">id :integer</text>
<text text-anchor="start" x="7.54297" y="-467.2" font-family="Times,serif" font-size="14.00">friendly_name :string</text>
<text text-anchor="start" x="7.54297" y="-450.4" font-family="Times,serif" font-size="14.00">name :string</text>
<text text-anchor="start" x="7.54297" y="-433.6" font-family="Times,serif" font-size="14.00">help :text</text>
<text text-anchor="start" x="7.54297" y="-416.8" font-family="Times,serif" font-size="14.00">created_at :datetime</text>
<text text-anchor="start" x="7.54297" y="-400" font-family="Times,serif" font-size="14.00">updated_at :datetime</text>
</g>
<!-- DataType&#45;&gt;Property -->
<g id="edge19" class="edge"><title>DataType&#45;&gt;Property</title>
<path fill="none" stroke="#ac6cac" d="M90.1565,-385.409C92.1303,-378.853 94.1446,-372.163 96.1579,-365.476"/>
<ellipse fill="none" stroke="#ac6cac" cx="88.9755" cy="-389.331" rx="4.00001" ry="4.00001"/>
<polygon fill="#ac6cac" stroke="#ac6cac" points="96.2189,-365.273 103.411,-356.995 97.6604,-360.485 99.1019,-355.697 99.1019,-355.697 99.1019,-355.697 97.6604,-360.485 94.793,-354.4 96.2189,-365.273 96.2189,-365.273"/>
</g>
<!-- Thing&#45;&gt;Content -->
<g id="edge22" class="edge"><title>Thing&#45;&gt;Content</title>
<path fill="none" stroke="#488b6c" d="M322.969,-215.876C333.872,-205.401 346.111,-195.415 359,-188 468.024,-125.281 612.712,-97.422 703.339,-85.463"/>
<ellipse fill="none" stroke="#488b6c" cx="319.897" cy="-218.917" rx="4.00002" ry="4.00002"/>
<polygon fill="#488b6c" stroke="#488b6c" points="703.38,-85.4578 713.872,-88.6474 708.339,-84.8209 713.299,-84.1841 713.299,-84.1841 713.299,-84.1841 708.339,-84.8209 712.725,-79.7207 703.38,-85.4578 703.38,-85.4578"/>
</g>
<!-- ActiveRecord::Base -->
<g id="node14" class="node"><title>ActiveRecord::Base</title>
<ellipse fill="none" stroke="black" cx="557" cy="-607" rx="88.2033" ry="18"/>
<text text-anchor="middle" x="557" y="-601.4" font-family="Times,serif" font-size="14.00">ActiveRecord::Base</text>
</g>
<!-- ActiveRecord::Base&#45;&gt;Collection -->
<g id="edge3" class="edge"><title>ActiveRecord::Base&#45;&gt;Collection</title>
<path fill="none" stroke="black" d="M522.906,-590.282C504.233,-581.956 480.567,-571.856 459,-564 407.081,-545.088 388.691,-554.123 340,-528 336.186,-525.954 332.383,-523.711 328.622,-521.327"/>
<polyline fill="none" stroke="black" points="324.228,-518.466 328.418,-521.194 "/>
</g>
<!-- ActiveRecord::Base&#45;&gt;Content -->
<g id="edge4" class="edge"><title>ActiveRecord::Base&#45;&gt;Content</title>
<path fill="none" stroke="black" d="M539.553,-589.243C479.376,-529.435 289.666,-322.871 392,-188 430.074,-137.82 603.493,-104.167 708.126,-88.0382"/>
<polyline fill="none" stroke="black" points="713.365,-87.2363 708.423,-87.9928 "/>
</g>
<!-- ActiveRecord::Base&#45;&gt;ContentBoolean -->
<g id="edge6" class="edge"><title>ActiveRecord::Base&#45;&gt;ContentBoolean</title>
<path fill="none" stroke="black" d="M552.34,-588.565C539.461,-540.377 502.98,-403.879 482.466,-327.125"/>
<polyline fill="none" stroke="black" points="481.138,-322.158 482.429,-326.988 "/>
</g>
<!-- ActiveRecord::Base&#45;&gt;ContentDatetime -->
<g id="edge8" class="edge"><title>ActiveRecord::Base&#45;&gt;ContentDatetime</title>
<path fill="none" stroke="black" d="M560.246,-588.565C569.218,-540.377 594.632,-403.879 608.923,-327.125"/>
<polyline fill="none" stroke="black" points="609.848,-322.158 608.932,-327.073 "/>
</g>
<!-- ActiveRecord::Base&#45;&gt;ContentFile -->
<g id="edge10" class="edge"><title>ActiveRecord::Base&#45;&gt;ContentFile</title>
<path fill="none" stroke="black" d="M568.262,-588.936C592.379,-552.494 650.978,-464.476 702,-392 711.279,-378.82 721.258,-364.921 731.032,-351.457"/>
<polyline fill="none" stroke="black" points="734.057,-347.293 731.118,-351.338 "/>
</g>
<!-- ActiveRecord::Base&#45;&gt;ContentFixnum -->
<g id="edge12" class="edge"><title>ActiveRecord::Base&#45;&gt;ContentFixnum</title>
<path fill="none" stroke="black" d="M588.381,-590.062C613.186,-576.26 647.443,-554.386 671,-528 716.549,-476.982 689.299,-434.352 743,-392 793.446,-352.215 827.913,-389.061 883,-356 896.094,-348.141 908.278,-337.344 918.886,-326.135"/>
<polyline fill="none" stroke="black" points="922.422,-322.321 919.022,-325.988 "/>
</g>
<!-- ActiveRecord::Base&#45;&gt;ContentInteger -->
<g id="edge14" class="edge"><title>ActiveRecord::Base&#45;&gt;ContentInteger</title>
<path fill="none" stroke="black" d="M597.063,-590.889C632.951,-576.671 686.479,-553.759 730,-528 737.724,-523.428 745.572,-518.313 753.245,-513"/>
<polyline fill="none" stroke="black" points="757.488,-510.031 753.392,-512.898 "/>
</g>
<!-- ActiveRecord::Base&#45;&gt;ContentString -->
<g id="edge16" class="edge"><title>ActiveRecord::Base&#45;&gt;ContentString</title>
<path fill="none" stroke="black" d="M635.101,-598.41C705.746,-589.162 811.092,-569.317 894,-528 902.209,-523.909 910.299,-518.816 917.997,-513.278"/>
<polyline fill="none" stroke="black" points="922.232,-510.158 918.206,-513.124 "/>
</g>
<!-- ActiveRecord::Base&#45;&gt;ContentText -->
<g id="edge18" class="edge"><title>ActiveRecord::Base&#45;&gt;ContentText</title>
<path fill="none" stroke="black" d="M645.61,-606.294C747.478,-603.459 917.537,-588.842 1049,-528 1057.47,-524.078 1065.74,-518.961 1073.54,-513.301"/>
<polyline fill="none" stroke="black" points="1077.81,-510.105 1073.81,-513.097 "/>
</g>
<!-- ActiveRecord::Base&#45;&gt;DataType -->
<g id="edge20" class="edge"><title>ActiveRecord::Base&#45;&gt;DataType</title>
<path fill="none" stroke="black" d="M526.047,-589.995C507.161,-580.93 482.252,-570.196 459,-564 325.4,-528.397 277.32,-581.909 150,-528 147,-526.73 144.023,-525.315 141.08,-523.781"/>
<polyline fill="none" stroke="black" points="136.483,-521.275 140.874,-523.668 "/>
</g>
<!-- ActiveRecord::Base&#45;&gt;Property -->
<g id="edge21" class="edge"><title>ActiveRecord::Base&#45;&gt;Property</title>
<path fill="none" stroke="black" d="M526.016,-590.111C507.118,-581.087 482.209,-570.356 459,-564 399.344,-547.663 228.819,-569.549 183,-528 170.303,-516.486 152.078,-429.968 139.252,-360.856"/>
<polyline fill="none" stroke="black" points="138.338,-355.911 139.247,-360.828 "/>
</g>
<!-- ActiveRecord::Base&#45;&gt;Thing -->
<g id="edge23" class="edge"><title>ActiveRecord::Base&#45;&gt;Thing</title>
<path fill="none" stroke="black" d="M520.673,-590.389C468.728,-568.037 379.291,-529.425 378,-528 335.333,-480.931 357.552,-451.002 334,-392 325.315,-370.243 314.473,-346.879 304.583,-326.663"/>
<polyline fill="none" stroke="black" points="302.357,-322.133 304.562,-326.62 "/>
</g>
</g>
</svg>
