<?xml version="1.0" encoding="UTF-8" standalone="no"?>
<!DOCTYPE svg PUBLIC "-//W3C//DTD SVG 1.1//EN"
 "http://www.w3.org/Graphics/SVG/1.1/DTD/svg11.dtd">
<!-- Generated by graphviz version 2.34.0 (20130916.1407)
 -->
<!-- Title: models_diagram Pages: 1 -->
<svg width="1324pt" height="382pt"
 viewBox="0.00 0.00 1324.00 382.00" xmlns="http://www.w3.org/2000/svg" xmlns:xlink="http://www.w3.org/1999/xlink">
<g id="graph0" class="graph" transform="scale(1 1) rotate(0) translate(4 378)">
<title>models_diagram</title>
<polygon fill="white" stroke="white" points="-4,4 -4,-378 1320,-378 1320,4 -4,4"/>
<!-- _diagram_info -->
<g id="node1" class="node"><title>_diagram_info</title>
<text text-anchor="start" x="252.312" y="-357" font-family="Times,serif" font-size="13.00">Models diagram</text>
<text text-anchor="start" x="252.312" y="-341.4" font-family="Times,serif" font-size="13.00">Date: Sep 16 2013 &#45; 16:02</text>
<text text-anchor="start" x="252.312" y="-325.8" font-family="Times,serif" font-size="13.00">Migration version: 20130916135233</text>
<text text-anchor="start" x="252.312" y="-310.2" font-family="Times,serif" font-size="13.00">Generated by RailRoady 1.1.1</text>
<text text-anchor="start" x="252.312" y="-294.6" font-family="Times,serif" font-size="13.00">http://railroady.prestonlee.com</text>
</g>
<!-- Collection -->
<g id="node2" class="node"><title>Collection</title>
<ellipse fill="none" stroke="black" cx="277" cy="-234" rx="50.9029" ry="18"/>
<text text-anchor="middle" x="277" y="-228.4" font-family="Times,serif" font-size="14.00">Collection</text>
</g>
<!-- Property -->
<g id="node12" class="node"><title>Property</title>
<ellipse fill="none" stroke="black" cx="170" cy="-162" rx="43.942" ry="18"/>
<text text-anchor="middle" x="170" y="-156.4" font-family="Times,serif" font-size="14.00">Property</text>
</g>
<!-- Collection&#45;&gt;Property -->
<g id="edge2" class="edge"><title>Collection&#45;&gt;Property</title>
<path fill="none" stroke="#d73a7d" d="M246.661,-213.152C232.376,-203.807 215.361,-192.675 200.994,-183.276"/>
<ellipse fill="none" stroke="#d73a7d" cx="250.435" cy="-215.621" rx="4.00002" ry="4.00002"/>
<polygon fill="#d73a7d" stroke="#d73a7d" points="200.807,-183.154 194.902,-173.914 196.623,-180.417 192.439,-177.68 192.439,-177.68 192.439,-177.68 196.623,-180.417 189.975,-181.445 200.807,-183.154 200.807,-183.154"/>
</g>
<!-- Thing -->
<g id="node14" class="node"><title>Thing</title>
<ellipse fill="none" stroke="black" cx="418" cy="-162" rx="34.1558" ry="18"/>
<text text-anchor="middle" x="418" y="-156.4" font-family="Times,serif" font-size="14.00">Thing</text>
</g>
<!-- Collection&#45;&gt;Thing -->
<g id="edge1" class="edge"><title>Collection&#45;&gt;Thing</title>
<path fill="none" stroke="#06c9fb" d="M312.787,-215.233C334.863,-204.274 362.991,-190.31 384.608,-179.578"/>
<ellipse fill="none" stroke="#06c9fb" cx="309.116" cy="-217.056" rx="4.00002" ry="4.00002"/>
<polygon fill="#06c9fb" stroke="#06c9fb" points="384.779,-179.493 395.737,-179.077 389.258,-177.269 393.736,-175.046 393.736,-175.046 393.736,-175.046 389.258,-177.269 391.735,-171.015 384.779,-179.493 384.779,-179.493"/>
</g>
<!-- Content -->
<g id="node3" class="node"><title>Content</title>
<ellipse fill="none" stroke="black" cx="731" cy="-90" rx="41.4224" ry="18"/>
<text text-anchor="middle" x="731" y="-84.4" font-family="Times,serif" font-size="14.00">Content</text>
</g>
<!-- ContentBoolean -->
<g id="node4" class="node"><title>ContentBoolean</title>
<ellipse fill="none" stroke="black" cx="731" cy="-162" rx="73.1975" ry="18"/>
<text text-anchor="middle" x="731" y="-156.4" font-family="Times,serif" font-size="14.00">ContentBoolean</text>
</g>
<!-- ContentBoolean&#45;&gt;Content -->
<g id="edge5" class="edge"><title>ContentBoolean&#45;&gt;Content</title>
<path fill="none" stroke="#93d109" d="M731,-135.64C731,-129.348 731,-122.605 731,-116.316"/>
<ellipse fill="none" stroke="#93d109" cx="731" cy="-139.697" rx="4" ry="4"/>
<ellipse fill="#93d109" stroke="#93d109" cx="731" cy="-112.104" rx="4" ry="4"/>
</g>
<!-- ContentDatetime -->
<g id="node5" class="node"><title>ContentDatetime</title>
<ellipse fill="none" stroke="black" cx="900" cy="-162" rx="77.0125" ry="18"/>
<text text-anchor="middle" x="900" y="-156.4" font-family="Times,serif" font-size="14.00">ContentDatetime</text>
</g>
<!-- ContentDatetime&#45;&gt;Content -->
<g id="edge7" class="edge"><title>ContentDatetime&#45;&gt;Content</title>
<path fill="none" stroke="#1ed033" d="M856.246,-142.877C828.638,-131.442 793.403,-116.847 767.341,-106.053"/>
<ellipse fill="none" stroke="#1ed033" cx="860.05" cy="-144.453" rx="4.00002" ry="4.00002"/>
<ellipse fill="#1ed033" stroke="#1ed033" cx="763.604" cy="-104.504" rx="4.00002" ry="4.00002"/>
</g>
<!-- ContentFile -->
<g id="node6" class="node"><title>ContentFile</title>
<ellipse fill="none" stroke="black" cx="1052" cy="-162" rx="56.4569" ry="18"/>
<text text-anchor="middle" x="1052" y="-156.4" font-family="Times,serif" font-size="14.00">ContentFile</text>
</g>
<!-- ContentFile&#45;&gt;Content -->
<g id="edge9" class="edge"><title>ContentFile&#45;&gt;Content</title>
<path fill="none" stroke="#ce554f" d="M1002.22,-147.911C996.753,-146.554 991.265,-145.225 986,-144 912.841,-126.985 827.258,-109.736 776.178,-99.7208"/>
<ellipse fill="none" stroke="#ce554f" cx="1006.3" cy="-148.935" rx="4.00001" ry="4.00001"/>
<ellipse fill="#ce554f" stroke="#ce554f" cx="772.209" cy="-98.9445" rx="4.00001" ry="4.00001"/>
</g>
<!-- ContentFixnum -->
<g id="node7" class="node"><title>ContentFixnum</title>
<ellipse fill="none" stroke="black" cx="1198" cy="-162" rx="71.4985" ry="18"/>
<text text-anchor="middle" x="1198" y="-156.4" font-family="Times,serif" font-size="14.00">ContentFixnum</text>
</g>
<!-- ContentFixnum&#45;&gt;Content -->
<g id="edge11" class="edge"><title>ContentFixnum&#45;&gt;Content</title>
<path fill="none" stroke="#424696" d="M1138,-147.916C1130.94,-146.521 1123.82,-145.182 1117,-144 995.709,-122.972 851.798,-105.057 778.723,-96.4557"/>
<ellipse fill="none" stroke="#424696" cx="1142.33" cy="-148.785" rx="4.00001" ry="4.00001"/>
<ellipse fill="#424696" stroke="#424696" cx="774.568" cy="-95.9688" rx="4.00001" ry="4.00001"/>
</g>
<!-- ContentInteger -->
<g id="node8" class="node"><title>ContentInteger</title>
<ellipse fill="none" stroke="black" cx="1248" cy="-234" rx="68.4393" ry="18"/>
<text text-anchor="middle" x="1248" y="-228.4" font-family="Times,serif" font-size="14.00">ContentInteger</text>
</g>
<!-- ContentInteger&#45;&gt;Content -->
<g id="edge13" class="edge"><title>ContentInteger&#45;&gt;Content</title>
<path fill="none" stroke="#f439ca" d="M1267.3,-209.634C1281.11,-189.983 1294.57,-162.251 1278,-144 1244.86,-107.493 908.593,-95.3863 780.337,-92.0776"/>
<ellipse fill="none" stroke="#f439ca" cx="1264.83" cy="-212.998" rx="4.00002" ry="4.00002"/>
<ellipse fill="#f439ca" stroke="#f439ca" cx="776.194" cy="-91.9732" rx="4" ry="4"/>
</g>
<!-- ContentString -->
<g id="node9" class="node"><title>ContentString</title>
<ellipse fill="none" stroke="black" cx="487" cy="-234" rx="65.3376" ry="18"/>
<text text-anchor="middle" x="487" y="-228.4" font-family="Times,serif" font-size="14.00">ContentString</text>
</g>
<!-- ContentString&#45;&gt;Content -->
<g id="edge15" class="edge"><title>ContentString&#45;&gt;Content</title>
<path fill="none" stroke="#c58e68" d="M511.745,-211.438C534.784,-192.088 570.644,-163.771 605,-144 632.774,-128.017 666.304,-114.149 691.791,-104.612"/>
<ellipse fill="none" stroke="#c58e68" cx="508.651" cy="-214.059" rx="4.00002" ry="4.00002"/>
<ellipse fill="#c58e68" stroke="#c58e68" cx="695.674" cy="-103.179" rx="4.00001" ry="4.00001"/>
</g>
<!-- ContentText -->
<g id="node10" class="node"><title>ContentText</title>
<ellipse fill="none" stroke="black" cx="629" cy="-234" rx="58.4558" ry="18"/>
<text text-anchor="middle" x="629" y="-228.4" font-family="Times,serif" font-size="14.00">ContentText</text>
</g>
<!-- ContentText&#45;&gt;Content -->
<g id="edge17" class="edge"><title>ContentText&#45;&gt;Content</title>
<path fill="none" stroke="#3f933e" d="M616.752,-208.769C609.012,-189.738 602.59,-163.315 615,-144 630.444,-119.964 659.79,-106.693 685.1,-99.4419"/>
<ellipse fill="none" stroke="#3f933e" cx="618.382" cy="-212.51" rx="4.00002" ry="4.00002"/>
<ellipse fill="#3f933e" stroke="#3f933e" cx="689.288" cy="-98.3244" rx="4.00001" ry="4.00001"/>
</g>
<!-- DataType -->
<g id="node11" class="node"><title>DataType</title>
<ellipse fill="none" stroke="black" cx="159" cy="-234" rx="48.1508" ry="18"/>
<text text-anchor="middle" x="159" y="-228.4" font-family="Times,serif" font-size="14.00">DataType</text>
</g>
<!-- DataType&#45;&gt;Property -->
<g id="edge19" class="edge"><title>DataType&#45;&gt;Property</title>
<path fill="none" stroke="#58efb8" d="M162.985,-207.64C163.884,-201.92 164.841,-195.828 165.751,-190.042"/>
<ellipse fill="none" stroke="#58efb8" cx="162.34" cy="-211.745" rx="4.00001" ry="4.00001"/>
<polygon fill="#58efb8" stroke="#58efb8" points="165.76,-189.983 171.758,-180.803 166.536,-185.044 167.312,-180.104 167.312,-180.104 167.312,-180.104 166.536,-185.044 162.867,-179.406 165.76,-189.983 165.76,-189.983"/>
</g>
<!-- PropertyValidation -->
<g id="node13" class="node"><title>PropertyValidation</title>
<ellipse fill="none" stroke="black" cx="83" cy="-18" rx="83.4806" ry="18"/>
<text text-anchor="middle" x="83" y="-12.4" font-family="Times,serif" font-size="14.00">PropertyValidation</text>
</g>
<!-- Property&#45;&gt;PropertyValidation -->
<g id="edge21" class="edge"><title>Property&#45;&gt;PropertyValidation</title>
<path fill="none" stroke="#034f4d" d="M137.293,-142.487C124.445,-133.635 110.714,-121.914 102,-108 89.9278,-88.7244 85.4246,-62.985 83.7953,-44.1461"/>
<ellipse fill="none" stroke="#034f4d" cx="140.963" cy="-144.905" rx="4.00002" ry="4.00002"/>
<ellipse fill="#034f4d" stroke="#034f4d" cx="83.5088" cy="-40.0144" rx="4" ry="4"/>
</g>
<!-- ValidationType -->
<g id="node15" class="node"><title>ValidationType</title>
<ellipse fill="none" stroke="black" cx="181" cy="-90" rx="69.3473" ry="18"/>
<text text-anchor="middle" x="181" y="-84.4" font-family="Times,serif" font-size="14.00">ValidationType</text>
</g>
<!-- Property&#45;&gt;ValidationType -->
<g id="edge22" class="edge"><title>Property&#45;&gt;ValidationType</title>
<path fill="none" stroke="#519732" d="M167.468,-135.64C168.146,-129.348 169.206,-122.605 170.507,-116.316"/>
<ellipse fill="none" stroke="#519732" cx="167.132" cy="-139.71" rx="4" ry="4"/>
<ellipse fill="#519732" stroke="#519732" cx="171.511" cy="-112" rx="4.00001" ry="4.00001"/>
</g>
<!-- Thing&#45;&gt;Content -->
<g id="edge25" class="edge"><title>Thing&#45;&gt;Content</title>
<path fill="none" stroke="#57f487" d="M456.748,-152.334C514.653,-139.384 623.543,-115.032 685.267,-101.228"/>
<ellipse fill="none" stroke="#57f487" cx="452.772" cy="-153.224" rx="4.00001" ry="4.00001"/>
<polygon fill="#57f487" stroke="#57f487" points="685.361,-101.207 696.102,-103.416 690.24,-100.116 695.12,-99.0243 695.12,-99.0243 695.12,-99.0243 690.24,-100.116 694.138,-94.6328 685.361,-101.207 685.361,-101.207"/>
</g>
<!-- ValidationType&#45;&gt;Property -->
<g id="edge28" class="edge"><title>ValidationType&#45;&gt;Property</title>
<path fill="none" stroke="#cf9e02" d="M183.292,-118.471C182.672,-123.675 181.808,-129.111 180.776,-134.29"/>
<polygon fill="#cf9e02" stroke="#cf9e02" points="183.313,-118.236 188.68,-108.674 183.756,-113.256 184.198,-108.275 184.198,-108.275 184.198,-108.275 183.756,-113.256 179.716,-107.877 183.313,-118.236 183.313,-118.236"/>
<polygon fill="#cf9e02" stroke="#cf9e02" points="180.772,-134.307 174.154,-143.051 179.657,-139.181 178.541,-144.055 178.541,-144.055 178.541,-144.055 179.657,-139.181 182.928,-145.059 180.772,-134.307 180.772,-134.307"/>
</g>
<!-- ValidationType&#45;&gt;PropertyValidation -->
<g id="edge27" class="edge"><title>ValidationType&#45;&gt;PropertyValidation</title>
<path fill="none" stroke="#3727e6" d="M151.76,-68.1145C139.968,-59.6912 126.341,-49.9576 114.344,-41.3884"/>
<ellipse fill="none" stroke="#3727e6" cx="155.016" cy="-70.4397" rx="4.00002" ry="4.00002"/>
<polygon fill="#3727e6" stroke="#3727e6" points="114.083,-41.2022 108.561,-31.728 110.014,-38.296 105.946,-35.3898 105.946,-35.3898 105.946,-35.3898 110.014,-38.296 103.33,-39.0516 114.083,-41.2022 114.083,-41.2022"/>
</g>
<!-- ActiveRecord::Base -->
<g id="node16" class="node"><title>ActiveRecord::Base</title>
<ellipse fill="none" stroke="black" cx="558" cy="-331" rx="88.2033" ry="18"/>
<text text-anchor="middle" x="558" y="-325.4" font-family="Times,serif" font-size="14.00">ActiveRecord::Base</text>
</g>
<!-- ActiveRecord::Base&#45;&gt;Collection -->
<g id="edge3" class="edge"><title>ActiveRecord::Base&#45;&gt;Collection</title>
<path fill="none" stroke="black" d="M523.943,-314.18C505.281,-305.824 481.613,-295.728 460,-288 434.457,-278.867 366.521,-259.68 321.002,-247.072"/>
<polyline fill="none" stroke="black" points="316.118,-245.72 320.937,-247.054 "/>
</g>
<!-- ActiveRecord::Base&#45;&gt;Content -->
<g id="edge4" class="edge"><title>ActiveRecord::Base&#45;&gt;Content</title>
<path fill="none" stroke="black" d="M607.762,-316.089C639.092,-304.468 677.069,-284.446 696,-252 704.063,-238.18 703.155,-230.311 696,-216 684.074,-192.149 659.926,-203.851 648,-180 640.845,-165.689 640.312,-158.032 648,-144 658.063,-125.635 677.497,-112.711 695.031,-104.225"/>
<polyline fill="none" stroke="black" points="699.917,-101.949 695.384,-104.061 "/>
</g>
<!-- ActiveRecord::Base&#45;&gt;ContentBoolean -->
<g id="edge6" class="edge"><title>ActiveRecord::Base&#45;&gt;ContentBoolean</title>
<path fill="none" stroke="black" d="M622.46,-318.577C660.675,-308.148 706.17,-288.521 730,-252 742.813,-232.364 740.788,-204.739 737.014,-185.493"/>
<polyline fill="none" stroke="black" points="735.914,-180.3 736.95,-185.192 "/>
</g>
<!-- ActiveRecord::Base&#45;&gt;ContentDatetime -->
<g id="edge8" class="edge"><title>ActiveRecord::Base&#45;&gt;ContentDatetime</title>
<path fill="none" stroke="black" d="M599.37,-315.092C638.577,-300.501 698.775,-276.893 749,-252 792.788,-230.297 841.064,-200.797 870.963,-181.825"/>
<polyline fill="none" stroke="black" points="875.239,-179.104 871.02,-181.789 "/>
</g>
<!-- ActiveRecord::Base&#45;&gt;ContentFile -->
<g id="edge10" class="edge"><title>ActiveRecord::Base&#45;&gt;ContentFile</title>
<path fill="none" stroke="black" d="M602.861,-315.365C650.38,-299.818 727.564,-274.437 794,-252 870.539,-226.151 959.569,-195.256 1010.5,-177.501"/>
<polyline fill="none" stroke="black" points="1015.31,-175.825 1010.59,-177.471 "/>
</g>
<!-- ActiveRecord::Base&#45;&gt;ContentFixnum -->
<g id="edge12" class="edge"><title>ActiveRecord::Base&#45;&gt;ContentFixnum</title>
<path fill="none" stroke="black" d="M610.124,-316.405C669.787,-300.842 770.442,-274.586 857,-252 958.983,-225.389 1078.12,-194.293 1145.15,-176.796"/>
<polyline fill="none" stroke="black" points="1150.28,-175.457 1145.44,-176.72 "/>
</g>
<!-- ActiveRecord::Base&#45;&gt;ContentInteger -->
<g id="edge14" class="edge"><title>ActiveRecord::Base&#45;&gt;ContentInteger</title>
<path fill="none" stroke="black" d="M628.921,-320.236C763.413,-301.719 1053.64,-261.76 1183.22,-243.919"/>
<polyline fill="none" stroke="black" points="1188.52,-243.19 1183.56,-243.872 "/>
</g>
<!-- ActiveRecord::Base&#45;&gt;ContentString -->
<g id="edge16" class="edge"><title>ActiveRecord::Base&#45;&gt;ContentString</title>
<path fill="none" stroke="black" d="M545.307,-313.016C533.393,-297.075 515.536,-273.182 502.725,-256.041"/>
<polyline fill="none" stroke="black" points="499.583,-251.837 502.577,-255.842 "/>
</g>
<!-- ActiveRecord::Base&#45;&gt;ContentText -->
<g id="edge18" class="edge"><title>ActiveRecord::Base&#45;&gt;ContentText</title>
<path fill="none" stroke="black" d="M570.693,-313.016C582.607,-297.075 600.464,-273.182 613.275,-256.041"/>
<polyline fill="none" stroke="black" points="616.417,-251.837 613.423,-255.842 "/>
</g>
<!-- ActiveRecord::Base&#45;&gt;DataType -->
<g id="edge20" class="edge"><title>ActiveRecord::Base&#45;&gt;DataType</title>
<path fill="none" stroke="black" d="M526.537,-314.05C507.68,-305.121 482.975,-294.507 460,-288 354.953,-258.249 323.639,-275.41 217,-252 211.315,-250.752 205.371,-249.247 199.546,-247.654"/>
<polyline fill="none" stroke="black" points="194.69,-246.3 199.506,-247.643 "/>
</g>
<!-- ActiveRecord::Base&#45;&gt;Property -->
<g id="edge23" class="edge"><title>ActiveRecord::Base&#45;&gt;Property</title>
<path fill="none" stroke="black" d="M527.516,-314.072C508.591,-304.915 483.48,-294.059 460,-288 382.58,-268.02 155.635,-311.299 102,-252 91.2672,-240.134 94.9777,-230.377 102,-216 109.68,-200.277 124.526,-187.862 138.393,-179.012"/>
<polyline fill="none" stroke="black" points="142.655,-176.38 138.401,-179.007 "/>
</g>
<!-- ActiveRecord::Base&#45;&gt;PropertyValidation -->
<g id="edge24" class="edge"><title>ActiveRecord::Base&#45;&gt;PropertyValidation</title>
<path fill="none" stroke="black" d="M527.522,-314.049C508.599,-304.884 483.488,-294.028 460,-288 380.411,-267.575 148.663,-311.506 92,-252 36.9192,-194.155 61.3984,-87.0646 75.5173,-41.0026"/>
<polyline fill="none" stroke="black" points="77.0151,-36.2158 75.5219,-40.9877 "/>
</g>
<!-- ActiveRecord::Base&#45;&gt;Thing -->
<g id="edge26" class="edge"><title>ActiveRecord::Base&#45;&gt;Thing</title>
<path fill="none" stroke="black" d="M519.583,-314.665C480.808,-298.312 424.987,-272.059 413,-252 400.882,-231.721 404.993,-203.982 410.288,-184.89"/>
<polyline fill="none" stroke="black" points="411.8,-179.747 410.389,-184.544 "/>
</g>
<!-- ActiveRecord::Base&#45;&gt;ValidationType -->
<g id="edge29" class="edge"><title>ActiveRecord::Base&#45;&gt;ValidationType</title>
<path fill="none" stroke="black" d="M522.724,-314.407C490.512,-299.693 441.966,-276.318 402,-252 326.876,-206.289 244.751,-142.427 205.096,-110.62"/>
<polyline fill="none" stroke="black" points="200.932,-107.273 204.829,-110.406 "/>
</g>
</g>
</svg>
