<?xml version="1.0" encoding="UTF-8" standalone="no"?>
<!DOCTYPE svg PUBLIC "-//W3C//DTD SVG 1.1//EN"
 "http://www.w3.org/Graphics/SVG/1.1/DTD/svg11.dtd">
<!-- Generated by graphviz version 2.34.0 (20130915.1124)
 -->
<!-- Title: models_diagram Pages: 1 -->
<svg width="1082pt" height="310pt"
 viewBox="0.00 0.00 1082.00 310.00" xmlns="http://www.w3.org/2000/svg" xmlns:xlink="http://www.w3.org/1999/xlink">
<g id="graph0" class="graph" transform="scale(1 1) rotate(0) translate(4 306)">
<title>models_diagram</title>
<polygon fill="white" stroke="white" points="-4,4 -4,-306 1078,-306 1078,4 -4,4"/>
<!-- _diagram_info -->
<g id="node1" class="node"><title>_diagram_info</title>
<text text-anchor="start" x="170.312" y="-285" font-family="Times,serif" font-size="13.00">Models diagram</text>
<text text-anchor="start" x="170.312" y="-269.4" font-family="Times,serif" font-size="13.00">Date: Sep 15 2013 &#45; 12:35</text>
<text text-anchor="start" x="170.312" y="-253.8" font-family="Times,serif" font-size="13.00">Migration version: 20130913190657</text>
<text text-anchor="start" x="170.312" y="-238.2" font-family="Times,serif" font-size="13.00">Generated by RailRoady 1.1.1</text>
<text text-anchor="start" x="170.312" y="-222.6" font-family="Times,serif" font-size="13.00">http://railroady.prestonlee.com</text>
</g>
<!-- Collection -->
<g id="node2" class="node"><title>Collection</title>
<ellipse fill="none" stroke="black" cx="203" cy="-162" rx="50.9029" ry="18"/>
<text text-anchor="middle" x="203" y="-156.4" font-family="Times,serif" font-size="14.00">Collection</text>
</g>
<!-- Property -->
<g id="node12" class="node"><title>Property</title>
<ellipse fill="none" stroke="black" cx="115" cy="-90" rx="43.942" ry="18"/>
<text text-anchor="middle" x="115" y="-84.4" font-family="Times,serif" font-size="14.00">Property</text>
</g>
<!-- Collection&#45;&gt;Property -->
<g id="edge2" class="edge"><title>Collection&#45;&gt;Property</title>
<path fill="none" stroke="#b23e2e" d="M176.597,-139.997C165.754,-131.373 153.205,-121.39 142.273,-112.695"/>
<ellipse fill="none" stroke="#b23e2e" cx="179.901" cy="-142.626" rx="4.00002" ry="4.00002"/>
<polygon fill="#b23e2e" stroke="#b23e2e" points="142.111,-112.565 137.086,-102.818 138.198,-109.453 134.285,-106.34 134.285,-106.34 134.285,-106.34 138.198,-109.453 131.483,-109.862 142.111,-112.565 142.111,-112.565"/>
</g>
<!-- Thing -->
<g id="node13" class="node"><title>Thing</title>
<ellipse fill="none" stroke="black" cx="211" cy="-90" rx="34.1558" ry="18"/>
<text text-anchor="middle" x="211" y="-84.4" font-family="Times,serif" font-size="14.00">Thing</text>
</g>
<!-- Collection&#45;&gt;Thing -->
<g id="edge1" class="edge"><title>Collection&#45;&gt;Thing</title>
<path fill="none" stroke="#33ba7f" d="M205.898,-135.64C206.552,-129.92 207.248,-123.828 207.91,-118.042"/>
<ellipse fill="none" stroke="#33ba7f" cx="205.432" cy="-139.722" rx="4.00001" ry="4.00001"/>
<polygon fill="#33ba7f" stroke="#33ba7f" points="207.91,-118.04 213.516,-108.615 208.477,-113.072 209.045,-108.104 209.045,-108.104 209.045,-108.104 208.477,-113.072 204.574,-107.593 207.91,-118.04 207.91,-118.04"/>
</g>
<!-- Content -->
<g id="node3" class="node"><title>Content</title>
<ellipse fill="none" stroke="black" cx="696" cy="-18" rx="41.4224" ry="18"/>
<text text-anchor="middle" x="696" y="-12.4" font-family="Times,serif" font-size="14.00">Content</text>
</g>
<!-- ContentBoolean -->
<g id="node4" class="node"><title>ContentBoolean</title>
<ellipse fill="none" stroke="black" cx="375" cy="-90" rx="73.1975" ry="18"/>
<text text-anchor="middle" x="375" y="-84.4" font-family="Times,serif" font-size="14.00">ContentBoolean</text>
</g>
<!-- ContentBoolean&#45;&gt;Content -->
<g id="edge5" class="edge"><title>ContentBoolean&#45;&gt;Content</title>
<path fill="none" stroke="#f1fe89" d="M435.883,-75.7234C498.932,-61.9744 595.903,-40.8281 651.92,-28.6124"/>
<ellipse fill="none" stroke="#f1fe89" cx="431.915" cy="-76.5886" rx="4.00001" ry="4.00001"/>
<ellipse fill="#f1fe89" stroke="#f1fe89" cx="655.971" cy="-27.7292" rx="4.00001" ry="4.00001"/>
</g>
<!-- ContentDatetime -->
<g id="node5" class="node"><title>ContentDatetime</title>
<ellipse fill="none" stroke="black" cx="544" cy="-90" rx="77.0125" ry="18"/>
<text text-anchor="middle" x="544" y="-84.4" font-family="Times,serif" font-size="14.00">ContentDatetime</text>
</g>
<!-- ContentDatetime&#45;&gt;Content -->
<g id="edge7" class="edge"><title>ContentDatetime&#45;&gt;Content</title>
<path fill="none" stroke="#c2b125" d="M584.951,-70.1409C608.684,-59.2114 638.255,-45.5932 660.913,-35.1583"/>
<ellipse fill="none" stroke="#c2b125" cx="580.99" cy="-71.965" rx="4.00002" ry="4.00002"/>
<ellipse fill="#c2b125" stroke="#c2b125" cx="664.681" cy="-33.4233" rx="4.00002" ry="4.00002"/>
</g>
<!-- ContentFile -->
<g id="node6" class="node"><title>ContentFile</title>
<ellipse fill="none" stroke="black" cx="696" cy="-90" rx="56.4569" ry="18"/>
<text text-anchor="middle" x="696" y="-84.4" font-family="Times,serif" font-size="14.00">ContentFile</text>
</g>
<!-- ContentFile&#45;&gt;Content -->
<g id="edge9" class="edge"><title>ContentFile&#45;&gt;Content</title>
<path fill="none" stroke="#9bcf5c" d="M696,-63.6398C696,-57.348 696,-50.6053 696,-44.3156"/>
<ellipse fill="none" stroke="#9bcf5c" cx="696" cy="-67.6966" rx="4" ry="4"/>
<ellipse fill="#9bcf5c" stroke="#9bcf5c" cx="696" cy="-40.1043" rx="4" ry="4"/>
</g>
<!-- ContentFixnum -->
<g id="node7" class="node"><title>ContentFixnum</title>
<ellipse fill="none" stroke="black" cx="842" cy="-90" rx="71.4985" ry="18"/>
<text text-anchor="middle" x="842" y="-84.4" font-family="Times,serif" font-size="14.00">ContentFixnum</text>
</g>
<!-- ContentFixnum&#45;&gt;Content -->
<g id="edge11" class="edge"><title>ContentFixnum&#45;&gt;Content</title>
<path fill="none" stroke="#758ea8" d="M803.028,-70.3149C780.328,-59.4311 751.972,-45.836 730.151,-35.3739"/>
<ellipse fill="none" stroke="#758ea8" cx="806.713" cy="-72.0817" rx="4.00002" ry="4.00002"/>
<ellipse fill="#758ea8" stroke="#758ea8" cx="726.332" cy="-33.543" rx="4.00002" ry="4.00002"/>
</g>
<!-- ContentInteger -->
<g id="node8" class="node"><title>ContentInteger</title>
<ellipse fill="none" stroke="black" cx="719" cy="-162" rx="68.4393" ry="18"/>
<text text-anchor="middle" x="719" y="-156.4" font-family="Times,serif" font-size="14.00">ContentInteger</text>
</g>
<!-- ContentInteger&#45;&gt;Content -->
<g id="edge13" class="edge"><title>ContentInteger&#45;&gt;Content</title>
<path fill="none" stroke="#9a9a35" d="M777.003,-147.683C835.373,-134.007 917.434,-113.911 922,-108 931.781,-95.3377 931.939,-84.5389 922,-72 900.243,-44.5506 803.837,-29.9423 744.186,-23.3922"/>
<ellipse fill="none" stroke="#9a9a35" cx="772.83" cy="-148.658" rx="4.00001" ry="4.00001"/>
<ellipse fill="#9a9a35" stroke="#9a9a35" cx="740.002" cy="-22.9456" rx="4" ry="4"/>
</g>
<!-- ContentString -->
<g id="node9" class="node"><title>ContentString</title>
<ellipse fill="none" stroke="black" cx="873" cy="-162" rx="65.3376" ry="18"/>
<text text-anchor="middle" x="873" y="-156.4" font-family="Times,serif" font-size="14.00">ContentString</text>
</g>
<!-- ContentString&#45;&gt;Content -->
<g id="edge15" class="edge"><title>ContentString&#45;&gt;Content</title>
<path fill="none" stroke="#e4501a" d="M909.177,-140.996C920.922,-132.489 932.573,-121.403 939,-108 945.918,-93.5728 949.036,-84.461 939,-72 915.088,-42.3106 808.558,-28.3629 744.755,-22.566"/>
<ellipse fill="none" stroke="#e4501a" cx="905.592" cy="-143.447" rx="4.00002" ry="4.00002"/>
<ellipse fill="#e4501a" stroke="#e4501a" cx="740.416" cy="-22.1843" rx="4" ry="4"/>
</g>
<!-- ContentText -->
<g id="node10" class="node"><title>ContentText</title>
<ellipse fill="none" stroke="black" cx="1016" cy="-162" rx="58.4558" ry="18"/>
<text text-anchor="middle" x="1016" y="-156.4" font-family="Times,serif" font-size="14.00">ContentText</text>
</g>
<!-- ContentText&#45;&gt;Content -->
<g id="edge17" class="edge"><title>ContentText&#45;&gt;Content</title>
<path fill="none" stroke="#28d1af" d="M1005.93,-136.514C996.202,-116.029 979.489,-87.7053 956,-72 892.255,-29.3785 801.483,-19.776 745.781,-18.273"/>
<ellipse fill="none" stroke="#28d1af" cx="1007.65" cy="-140.298" rx="4.00002" ry="4.00002"/>
<ellipse fill="#28d1af" stroke="#28d1af" cx="741.488" cy="-18.1846" rx="4" ry="4"/>
</g>
<!-- DataType -->
<g id="node11" class="node"><title>DataType</title>
<ellipse fill="none" stroke="black" cx="48" cy="-162" rx="48.1508" ry="18"/>
<text text-anchor="middle" x="48" y="-156.4" font-family="Times,serif" font-size="14.00">DataType</text>
</g>
<!-- DataType&#45;&gt;Property -->
<g id="edge19" class="edge"><title>DataType&#45;&gt;Property</title>
<path fill="none" stroke="#f0fc9e" d="M69.1223,-138.932C76.5189,-131.204 84.8523,-122.498 92.3674,-114.646"/>
<ellipse fill="none" stroke="#f0fc9e" cx="66.3054" cy="-141.875" rx="4.00002" ry="4.00002"/>
<polygon fill="#f0fc9e" stroke="#f0fc9e" points="92.6301,-114.372 102.796,-110.259 96.0874,-110.759 99.5447,-107.147 99.5447,-107.147 99.5447,-107.147 96.0874,-110.759 96.2938,-104.036 92.6301,-114.372 92.6301,-114.372"/>
</g>
<!-- Thing&#45;&gt;Content -->
<g id="edge22" class="edge"><title>Thing&#45;&gt;Content</title>
<path fill="none" stroke="#10de08" d="M245.03,-75.9183C249.678,-74.4354 254.424,-73.0741 259,-72 396.35,-39.7627 562.851,-26.4587 645.039,-21.5454"/>
<ellipse fill="none" stroke="#10de08" cx="241.14" cy="-77.2253" rx="4.00001" ry="4.00001"/>
<polygon fill="#10de08" stroke="#10de08" points="645.13,-21.5402 655.374,-25.4526 650.121,-21.2502 655.113,-20.9602 655.113,-20.9602 655.113,-20.9602 650.121,-21.2502 654.852,-16.4678 645.13,-21.5402 645.13,-21.5402"/>
</g>
<!-- ActiveRecord::Base -->
<g id="node14" class="node"><title>ActiveRecord::Base</title>
<ellipse fill="none" stroke="black" cx="476" cy="-259" rx="88.2033" ry="18"/>
<text text-anchor="middle" x="476" y="-253.4" font-family="Times,serif" font-size="14.00">ActiveRecord::Base</text>
</g>
<!-- ActiveRecord::Base&#45;&gt;Collection -->
<g id="edge3" class="edge"><title>ActiveRecord::Base&#45;&gt;Collection</title>
<path fill="none" stroke="black" d="M441.905,-242.285C423.232,-233.959 399.566,-223.859 378,-216 334.221,-200.045 283.114,-184.963 247.475,-174.997"/>
<polyline fill="none" stroke="black" points="242.331,-173.565 247.148,-174.906 "/>
</g>
<!-- ActiveRecord::Base&#45;&gt;Content -->
<g id="edge4" class="edge"><title>ActiveRecord::Base&#45;&gt;Content</title>
<path fill="none" stroke="black" d="M442.066,-242.213C397.992,-219.586 323.032,-173.336 292,-108 285.135,-93.5474 281.448,-84.027 292,-72 315.347,-45.3904 549.181,-27.9902 650.065,-21.6661"/>
<polyline fill="none" stroke="black" points="655.351,-21.3373 650.361,-21.6479 "/>
</g>
<!-- ActiveRecord::Base&#45;&gt;ContentBoolean -->
<g id="edge6" class="edge"><title>ActiveRecord::Base&#45;&gt;ContentBoolean</title>
<path fill="none" stroke="black" d="M465.76,-241.068C447.233,-210.435 408.193,-145.884 387.886,-112.306"/>
<polyline fill="none" stroke="black" points="385.267,-107.977 387.855,-112.255 "/>
</g>
<!-- ActiveRecord::Base&#45;&gt;ContentDatetime -->
<g id="edge8" class="edge"><title>ActiveRecord::Base&#45;&gt;ContentDatetime</title>
<path fill="none" stroke="black" d="M483.021,-240.757C495.441,-210.256 521.264,-146.836 534.982,-113.147"/>
<polyline fill="none" stroke="black" points="536.915,-108.399 535.03,-113.03 "/>
</g>
<!-- ActiveRecord::Base&#45;&gt;ContentFile -->
<g id="edge10" class="edge"><title>ActiveRecord::Base&#45;&gt;ContentFile</title>
<path fill="none" stroke="black" d="M492.272,-241.291C515.533,-217.912 560.223,-174.847 603,-144 621.759,-130.473 644.259,-117.572 662.428,-107.886"/>
<polyline fill="none" stroke="black" points="666.949,-105.494 662.529,-107.832 "/>
</g>
<!-- ActiveRecord::Base&#45;&gt;ContentFixnum -->
<g id="edge12" class="edge"><title>ActiveRecord::Base&#45;&gt;ContentFixnum</title>
<path fill="none" stroke="black" d="M502.424,-241.576C526.824,-226.201 563.885,-202.313 595,-180 616.097,-164.871 617.748,-155.547 641,-144 665.999,-131.585 734.175,-114.822 784.221,-103.499"/>
<polyline fill="none" stroke="black" points="789.311,-102.352 784.433,-103.451 "/>
</g>
<!-- ActiveRecord::Base&#45;&gt;ContentInteger -->
<g id="edge14" class="edge"><title>ActiveRecord::Base&#45;&gt;ContentInteger</title>
<path fill="none" stroke="black" d="M515.042,-242.737C559.571,-225.328 632.078,-196.982 677.576,-179.194"/>
<polyline fill="none" stroke="black" points="682.44,-177.293 677.783,-179.114 "/>
</g>
<!-- ActiveRecord::Base&#45;&gt;ContentString -->
<g id="edge16" class="edge"><title>ActiveRecord::Base&#45;&gt;ContentString</title>
<path fill="none" stroke="black" d="M531.201,-244.791C607.664,-226.493 744.87,-193.661 820.095,-175.66"/>
<polyline fill="none" stroke="black" points="825.402,-174.39 820.54,-175.554 "/>
</g>
<!-- ActiveRecord::Base&#45;&gt;ContentText -->
<g id="edge18" class="edge"><title>ActiveRecord::Base&#45;&gt;ContentText</title>
<path fill="none" stroke="black" d="M546.535,-248.061C638.914,-234.646 805.738,-209.053 947,-180 953.645,-178.633 960.618,-177.07 967.472,-175.456"/>
<polyline fill="none" stroke="black" points="972.683,-174.216 967.819,-175.374 "/>
</g>
<!-- ActiveRecord::Base&#45;&gt;DataType -->
<g id="edge20" class="edge"><title>ActiveRecord::Base&#45;&gt;DataType</title>
<path fill="none" stroke="black" d="M444.569,-241.935C425.723,-232.966 401.019,-222.351 378,-216 262.148,-184.035 227.772,-203.944 110,-180 103.376,-178.653 96.4162,-176.992 89.6502,-175.241"/>
<polyline fill="none" stroke="black" points="84.5228,-173.888 89.3573,-175.164 "/>
</g>
<!-- ActiveRecord::Base&#45;&gt;Property -->
<g id="edge21" class="edge"><title>ActiveRecord::Base&#45;&gt;Property</title>
<path fill="none" stroke="black" d="M444.525,-242.092C425.664,-233.177 400.959,-222.563 378,-216 276.407,-186.957 223.199,-248.795 143,-180 123.732,-163.472 117.562,-133.826 115.674,-113.317"/>
<polyline fill="none" stroke="black" points="115.281,-108.314 115.672,-113.298 "/>
</g>
<!-- ActiveRecord::Base&#45;&gt;Thing -->
<g id="edge23" class="edge"><title>ActiveRecord::Base&#45;&gt;Thing</title>
<path fill="none" stroke="black" d="M440.44,-242.417C394.196,-222.039 317.894,-187.989 306,-180 289.95,-169.219 252.917,-133.092 230.119,-110.316"/>
<polyline fill="none" stroke="black" points="226.312,-106.504 229.846,-110.042 "/>
</g>
</g>
</svg>
