<?xml version="1.0" encoding="UTF-8" standalone="no"?>
<!DOCTYPE svg PUBLIC "-//W3C//DTD SVG 1.1//EN"
 "http://www.w3.org/Graphics/SVG/1.1/DTD/svg11.dtd">
<!-- Generated by graphviz version 2.34.0 (20130916.1407)
 -->
<!-- Title: models_diagram Pages: 1 -->
<svg width="1442pt" height="830pt"
 viewBox="0.00 0.00 1441.51 830.00" xmlns="http://www.w3.org/2000/svg" xmlns:xlink="http://www.w3.org/1999/xlink">
<g id="graph0" class="graph" transform="scale(1 1) rotate(0) translate(4 826)">
<title>models_diagram</title>
<polygon fill="white" stroke="white" points="-4,4 -4,-826 1437.51,-826 1437.51,4 -4,4"/>
<!-- _diagram_info -->
<g id="node1" class="node"><title>_diagram_info</title>
<text text-anchor="start" x="337.82" y="-805" font-family="Times,serif" font-size="13.00">Models diagram</text>
<text text-anchor="start" x="337.82" y="-789.4" font-family="Times,serif" font-size="13.00">Date: Sep 16 2013 &#45; 16:02</text>
<text text-anchor="start" x="337.82" y="-773.8" font-family="Times,serif" font-size="13.00">Migration version: 20130916135233</text>
<text text-anchor="start" x="337.82" y="-758.2" font-family="Times,serif" font-size="13.00">Generated by RailRoady 1.1.1</text>
<text text-anchor="start" x="337.82" y="-742.6" font-family="Times,serif" font-size="13.00">http://railroady.prestonlee.com</text>
</g>
<!-- Collection -->
<g id="node2" class="node"><title>Collection</title>
<path fill="none" stroke="black" d="M285.002,-573.6C285.002,-573.6 394.013,-573.6 394.013,-573.6 400.013,-573.6 406.013,-579.6 406.013,-585.6 406.013,-585.6 406.013,-678.4 406.013,-678.4 406.013,-684.4 400.013,-690.4 394.013,-690.4 394.013,-690.4 285.002,-690.4 285.002,-690.4 279.002,-690.4 273.002,-684.4 273.002,-678.4 273.002,-678.4 273.002,-585.6 273.002,-585.6 273.002,-579.6 279.002,-573.6 285.002,-573.6"/>
<text text-anchor="middle" x="339.508" y="-672.4" font-family="Times,serif" font-size="14.00">Collection</text>
<polyline fill="none" stroke="black" points="273.002,-665.6 406.013,-665.6 "/>
<text text-anchor="start" x="281.002" y="-647.6" font-family="Times,serif" font-size="14.00">id :integer</text>
<text text-anchor="start" x="281.002" y="-630.8" font-family="Times,serif" font-size="14.00">name :string</text>
<text text-anchor="start" x="281.002" y="-614" font-family="Times,serif" font-size="14.00">slug :string</text>
<text text-anchor="start" x="281.002" y="-597.2" font-family="Times,serif" font-size="14.00">created_at :datetime</text>
<text text-anchor="start" x="281.002" y="-580.4" font-family="Times,serif" font-size="14.00">updated_at :datetime</text>
</g>
<!-- Property -->
<g id="node12" class="node"><title>Property</title>
<path fill="none" stroke="black" d="M133.833,-360.4C133.833,-360.4 245.182,-360.4 245.182,-360.4 251.182,-360.4 257.182,-366.4 257.182,-372.4 257.182,-372.4 257.182,-515.6 257.182,-515.6 257.182,-521.6 251.182,-527.6 245.182,-527.6 245.182,-527.6 133.833,-527.6 133.833,-527.6 127.833,-527.6 121.833,-521.6 121.833,-515.6 121.833,-515.6 121.833,-372.4 121.833,-372.4 121.833,-366.4 127.833,-360.4 133.833,-360.4"/>
<text text-anchor="middle" x="189.508" y="-509.6" font-family="Times,serif" font-size="14.00">Property</text>
<polyline fill="none" stroke="black" points="121.833,-502.8 257.182,-502.8 "/>
<text text-anchor="start" x="129.833" y="-484.8" font-family="Times,serif" font-size="14.00">id :integer</text>
<text text-anchor="start" x="129.833" y="-468" font-family="Times,serif" font-size="14.00">name :string</text>
<text text-anchor="start" x="129.833" y="-451.2" font-family="Times,serif" font-size="14.00">slug :string</text>
<text text-anchor="start" x="129.833" y="-434.4" font-family="Times,serif" font-size="14.00">help :text</text>
<text text-anchor="start" x="129.833" y="-417.6" font-family="Times,serif" font-size="14.00">data_type_id :integer</text>
<text text-anchor="start" x="129.833" y="-400.8" font-family="Times,serif" font-size="14.00">collection_id :integer</text>
<text text-anchor="start" x="129.833" y="-384" font-family="Times,serif" font-size="14.00">created_at :datetime</text>
<text text-anchor="start" x="129.833" y="-367.2" font-family="Times,serif" font-size="14.00">updated_at :datetime</text>
</g>
<!-- Collection&#45;&gt;Property -->
<g id="edge2" class="edge"><title>Collection&#45;&gt;Property</title>
<path fill="none" stroke="#eec3b3" d="M287.835,-566.926C279.757,-556.909 271.278,-546.394 262.827,-535.916"/>
<ellipse fill="none" stroke="#eec3b3" cx="290.563" cy="-570.309" rx="4.00002" ry="4.00002"/>
<polygon fill="#eec3b3" stroke="#eec3b3" points="262.655,-535.702 259.88,-525.093 259.516,-531.81 256.377,-527.918 256.377,-527.918 256.377,-527.918 259.516,-531.81 252.874,-530.743 262.655,-535.702 262.655,-535.702"/>
</g>
<!-- Thing -->
<g id="node14" class="node"><title>Thing</title>
<path fill="none" stroke="black" d="M474.833,-394C474.833,-394 586.182,-394 586.182,-394 592.182,-394 598.182,-400 598.182,-406 598.182,-406 598.182,-482 598.182,-482 598.182,-488 592.182,-494 586.182,-494 586.182,-494 474.833,-494 474.833,-494 468.833,-494 462.833,-488 462.833,-482 462.833,-482 462.833,-406 462.833,-406 462.833,-400 468.833,-394 474.833,-394"/>
<text text-anchor="middle" x="530.508" y="-476" font-family="Times,serif" font-size="14.00">Thing</text>
<polyline fill="none" stroke="black" points="462.833,-469.2 598.182,-469.2 "/>
<text text-anchor="start" x="470.833" y="-451.2" font-family="Times,serif" font-size="14.00">id :integer</text>
<text text-anchor="start" x="470.833" y="-434.4" font-family="Times,serif" font-size="14.00">collection_id :integer</text>
<text text-anchor="start" x="470.833" y="-417.6" font-family="Times,serif" font-size="14.00">created_at :datetime</text>
<text text-anchor="start" x="470.833" y="-400.8" font-family="Times,serif" font-size="14.00">updated_at :datetime</text>
</g>
<!-- Collection&#45;&gt;Thing -->
<g id="edge1" class="edge"><title>Collection&#45;&gt;Thing</title>
<path fill="none" stroke="#48cec6" d="M404.506,-567.704C426.675,-546.115 451.295,-522.139 472.847,-501.151"/>
<ellipse fill="none" stroke="#48cec6" cx="401.499" cy="-570.632" rx="4.00002" ry="4.00002"/>
<polygon fill="#48cec6" stroke="#48cec6" points="472.867,-501.132 483.171,-497.379 476.449,-497.644 480.031,-494.155 480.031,-494.155 480.031,-494.155 476.449,-497.644 476.891,-490.932 472.867,-501.132 472.867,-501.132"/>
</g>
<!-- Content -->
<g id="node3" class="node"><title>Content</title>
<path fill="none" stroke="black" d="M774.054,-172.8C774.054,-172.8 900.961,-172.8 900.961,-172.8 906.961,-172.8 912.961,-178.8 912.961,-184.8 912.961,-184.8 912.961,-311.2 912.961,-311.2 912.961,-317.2 906.961,-323.2 900.961,-323.2 900.961,-323.2 774.054,-323.2 774.054,-323.2 768.054,-323.2 762.054,-317.2 762.054,-311.2 762.054,-311.2 762.054,-184.8 762.054,-184.8 762.054,-178.8 768.054,-172.8 774.054,-172.8"/>
<text text-anchor="middle" x="837.508" y="-305.2" font-family="Times,serif" font-size="14.00">Content</text>
<polyline fill="none" stroke="black" points="762.054,-298.4 912.961,-298.4 "/>
<text text-anchor="start" x="770.054" y="-280.4" font-family="Times,serif" font-size="14.00">id :integer</text>
<text text-anchor="start" x="770.054" y="-263.6" font-family="Times,serif" font-size="14.00">thing_id :integer</text>
<text text-anchor="start" x="770.054" y="-246.8" font-family="Times,serif" font-size="14.00">property_id :integer</text>
<text text-anchor="start" x="770.054" y="-230" font-family="Times,serif" font-size="14.00">contentable_id :integer</text>
<text text-anchor="start" x="770.054" y="-213.2" font-family="Times,serif" font-size="14.00">contentable_type :string</text>
<text text-anchor="start" x="770.054" y="-196.4" font-family="Times,serif" font-size="14.00">created_at :datetime</text>
<text text-anchor="start" x="770.054" y="-179.6" font-family="Times,serif" font-size="14.00">updated_at :datetime</text>
</g>
<!-- ContentBoolean -->
<g id="node4" class="node"><title>ContentBoolean</title>
<path fill="none" stroke="black" d="M783.002,-394C783.002,-394 892.013,-394 892.013,-394 898.013,-394 904.013,-400 904.013,-406 904.013,-406 904.013,-482 904.013,-482 904.013,-488 898.013,-494 892.013,-494 892.013,-494 783.002,-494 783.002,-494 777.002,-494 771.002,-488 771.002,-482 771.002,-482 771.002,-406 771.002,-406 771.002,-400 777.002,-394 783.002,-394"/>
<text text-anchor="middle" x="837.508" y="-476" font-family="Times,serif" font-size="14.00">ContentBoolean</text>
<polyline fill="none" stroke="black" points="771.002,-469.2 904.013,-469.2 "/>
<text text-anchor="start" x="779.002" y="-451.2" font-family="Times,serif" font-size="14.00">id :integer</text>
<text text-anchor="start" x="779.002" y="-434.4" font-family="Times,serif" font-size="14.00">value :boolean</text>
<text text-anchor="start" x="779.002" y="-417.6" font-family="Times,serif" font-size="14.00">created_at :datetime</text>
<text text-anchor="start" x="779.002" y="-400.8" font-family="Times,serif" font-size="14.00">updated_at :datetime</text>
</g>
<!-- ContentBoolean&#45;&gt;Content -->
<g id="edge5" class="edge"><title>ContentBoolean&#45;&gt;Content</title>
<path fill="none" stroke="#ba6601" d="M837.508,-385.616C837.508,-368.723 837.508,-349.895 837.508,-331.748"/>
<ellipse fill="none" stroke="#ba6601" cx="837.508" cy="-389.795" rx="4" ry="4"/>
<ellipse fill="#ba6601" stroke="#ba6601" cx="837.508" cy="-327.467" rx="4" ry="4"/>
</g>
<!-- ContentDatetime -->
<g id="node5" class="node"><title>ContentDatetime</title>
<path fill="none" stroke="black" d="M934.002,-394C934.002,-394 1043.01,-394 1043.01,-394 1049.01,-394 1055.01,-400 1055.01,-406 1055.01,-406 1055.01,-482 1055.01,-482 1055.01,-488 1049.01,-494 1043.01,-494 1043.01,-494 934.002,-494 934.002,-494 928.002,-494 922.002,-488 922.002,-482 922.002,-482 922.002,-406 922.002,-406 922.002,-400 928.002,-394 934.002,-394"/>
<text text-anchor="middle" x="988.508" y="-476" font-family="Times,serif" font-size="14.00">ContentDatetime</text>
<polyline fill="none" stroke="black" points="922.002,-469.2 1055.01,-469.2 "/>
<text text-anchor="start" x="930.002" y="-451.2" font-family="Times,serif" font-size="14.00">id :integer</text>
<text text-anchor="start" x="930.002" y="-434.4" font-family="Times,serif" font-size="14.00">value :datetime</text>
<text text-anchor="start" x="930.002" y="-417.6" font-family="Times,serif" font-size="14.00">created_at :datetime</text>
<text text-anchor="start" x="930.002" y="-400.8" font-family="Times,serif" font-size="14.00">updated_at :datetime</text>
</g>
<!-- ContentDatetime&#45;&gt;Content -->
<g id="edge7" class="edge"><title>ContentDatetime&#45;&gt;Content</title>
<path fill="none" stroke="#c8bb2d" d="M945.258,-387.434C931.329,-369.539 915.597,-349.326 900.544,-329.987"/>
<ellipse fill="none" stroke="#c8bb2d" cx="947.752" cy="-390.638" rx="4.00002" ry="4.00002"/>
<ellipse fill="#c8bb2d" stroke="#c8bb2d" cx="897.926" cy="-326.623" rx="4.00002" ry="4.00002"/>
</g>
<!-- ContentFile -->
<g id="node6" class="node"><title>ContentFile</title>
<path fill="none" stroke="black" d="M1085.34,-368.8C1085.34,-368.8 1231.67,-368.8 1231.67,-368.8 1237.67,-368.8 1243.67,-374.8 1243.67,-380.8 1243.67,-380.8 1243.67,-507.2 1243.67,-507.2 1243.67,-513.2 1237.67,-519.2 1231.67,-519.2 1231.67,-519.2 1085.34,-519.2 1085.34,-519.2 1079.34,-519.2 1073.34,-513.2 1073.34,-507.2 1073.34,-507.2 1073.34,-380.8 1073.34,-380.8 1073.34,-374.8 1079.34,-368.8 1085.34,-368.8"/>
<text text-anchor="middle" x="1158.51" y="-501.2" font-family="Times,serif" font-size="14.00">ContentFile</text>
<polyline fill="none" stroke="black" points="1073.34,-494.4 1243.67,-494.4 "/>
<text text-anchor="start" x="1081.34" y="-476.4" font-family="Times,serif" font-size="14.00">id :integer</text>
<text text-anchor="start" x="1081.34" y="-459.6" font-family="Times,serif" font-size="14.00">value_file_name :string</text>
<text text-anchor="start" x="1081.34" y="-442.8" font-family="Times,serif" font-size="14.00">value_content_type :string</text>
<text text-anchor="start" x="1081.34" y="-426" font-family="Times,serif" font-size="14.00">value_file_size :integer</text>
<text text-anchor="start" x="1081.34" y="-409.2" font-family="Times,serif" font-size="14.00">value_updated_at :datetime</text>
<text text-anchor="start" x="1081.34" y="-392.4" font-family="Times,serif" font-size="14.00">created_at :datetime</text>
<text text-anchor="start" x="1081.34" y="-375.6" font-family="Times,serif" font-size="14.00">updated_at :datetime</text>
</g>
<!-- ContentFile&#45;&gt;Content -->
<g id="edge9" class="edge"><title>ContentFile&#45;&gt;Content</title>
<path fill="none" stroke="#7d5102" d="M1069.28,-363.941C1067.36,-362.595 1065.43,-361.28 1063.51,-360 1018.7,-330.175 964.718,-303.363 920.748,-283.564"/>
<ellipse fill="none" stroke="#7d5102" cx="1072.57" cy="-366.296" rx="4.00002" ry="4.00002"/>
<ellipse fill="#7d5102" stroke="#7d5102" cx="916.872" cy="-281.831" rx="4.00002" ry="4.00002"/>
</g>
<!-- ContentFixnum -->
<g id="node7" class="node"><title>ContentFixnum</title>
<path fill="none" stroke="black" d="M1274,-394C1274,-394 1383.01,-394 1383.01,-394 1389.01,-394 1395.01,-400 1395.01,-406 1395.01,-406 1395.01,-482 1395.01,-482 1395.01,-488 1389.01,-494 1383.01,-494 1383.01,-494 1274,-494 1274,-494 1268,-494 1262,-488 1262,-482 1262,-482 1262,-406 1262,-406 1262,-400 1268,-394 1274,-394"/>
<text text-anchor="middle" x="1328.51" y="-476" font-family="Times,serif" font-size="14.00">ContentFixnum</text>
<polyline fill="none" stroke="black" points="1262,-469.2 1395.01,-469.2 "/>
<text text-anchor="start" x="1270" y="-451.2" font-family="Times,serif" font-size="14.00">id :integer</text>
<text text-anchor="start" x="1270" y="-434.4" font-family="Times,serif" font-size="14.00">value :integer</text>
<text text-anchor="start" x="1270" y="-417.6" font-family="Times,serif" font-size="14.00">created_at :datetime</text>
<text text-anchor="start" x="1270" y="-400.8" font-family="Times,serif" font-size="14.00">updated_at :datetime</text>
</g>
<!-- ContentFixnum&#45;&gt;Content -->
<g id="edge11" class="edge"><title>ContentFixnum&#45;&gt;Content</title>
<path fill="none" stroke="#8443b0" d="M1286.38,-387.914C1276.25,-377.437 1264.77,-367.44 1252.51,-360 1148.79,-297.065 1009.31,-269.293 921.404,-257.408"/>
<ellipse fill="none" stroke="#8443b0" cx="1289.14" cy="-390.852" rx="4.00002" ry="4.00002"/>
<ellipse fill="#8443b0" stroke="#8443b0" cx="917.29" cy="-256.865" rx="4.00001" ry="4.00001"/>
</g>
<!-- ContentInteger -->
<g id="node8" class="node"><title>ContentInteger</title>
<path fill="none" stroke="black" d="M1313,-582C1313,-582 1422.01,-582 1422.01,-582 1428.01,-582 1434.01,-588 1434.01,-594 1434.01,-594 1434.01,-670 1434.01,-670 1434.01,-676 1428.01,-682 1422.01,-682 1422.01,-682 1313,-682 1313,-682 1307,-682 1301,-676 1301,-670 1301,-670 1301,-594 1301,-594 1301,-588 1307,-582 1313,-582"/>
<text text-anchor="middle" x="1367.51" y="-664" font-family="Times,serif" font-size="14.00">ContentInteger</text>
<polyline fill="none" stroke="black" points="1301,-657.2 1434.01,-657.2 "/>
<text text-anchor="start" x="1309" y="-639.2" font-family="Times,serif" font-size="14.00">id :integer</text>
<text text-anchor="start" x="1309" y="-622.4" font-family="Times,serif" font-size="14.00">value :integer</text>
<text text-anchor="start" x="1309" y="-605.6" font-family="Times,serif" font-size="14.00">created_at :datetime</text>
<text text-anchor="start" x="1309" y="-588.8" font-family="Times,serif" font-size="14.00">updated_at :datetime</text>
</g>
<!-- ContentInteger&#45;&gt;Content -->
<g id="edge13" class="edge"><title>ContentInteger&#45;&gt;Content</title>
<path fill="none" stroke="#50cd75" d="M1397.28,-574.429C1424.29,-514.402 1452.96,-420.098 1403.51,-360 1343.42,-286.985 1063.94,-261.289 921.476,-252.833"/>
<ellipse fill="none" stroke="#50cd75" cx="1395.51" cy="-578.302" rx="4.00002" ry="4.00002"/>
<ellipse fill="#50cd75" stroke="#50cd75" cx="917.122" cy="-252.58" rx="4" ry="4"/>
</g>
<!-- ContentString -->
<g id="node9" class="node"><title>ContentString</title>
<path fill="none" stroke="black" d="M513.002,-582C513.002,-582 622.013,-582 622.013,-582 628.013,-582 634.013,-588 634.013,-594 634.013,-594 634.013,-670 634.013,-670 634.013,-676 628.013,-682 622.013,-682 622.013,-682 513.002,-682 513.002,-682 507.002,-682 501.002,-676 501.002,-670 501.002,-670 501.002,-594 501.002,-594 501.002,-588 507.002,-582 513.002,-582"/>
<text text-anchor="middle" x="567.508" y="-664" font-family="Times,serif" font-size="14.00">ContentString</text>
<polyline fill="none" stroke="black" points="501.002,-657.2 634.013,-657.2 "/>
<text text-anchor="start" x="509.002" y="-639.2" font-family="Times,serif" font-size="14.00">id :integer</text>
<text text-anchor="start" x="509.002" y="-622.4" font-family="Times,serif" font-size="14.00">value :string</text>
<text text-anchor="start" x="509.002" y="-605.6" font-family="Times,serif" font-size="14.00">created_at :datetime</text>
<text text-anchor="start" x="509.002" y="-588.8" font-family="Times,serif" font-size="14.00">updated_at :datetime</text>
</g>
<!-- ContentString&#45;&gt;Content -->
<g id="edge15" class="edge"><title>ContentString&#45;&gt;Content</title>
<path fill="none" stroke="#0e4057" d="M591.933,-574.138C621.963,-505.612 672.392,-395.267 700.508,-360 716.177,-340.345 735.889,-321.879 755.439,-305.861"/>
<ellipse fill="none" stroke="#0e4057" cx="590.156" cy="-578.203" rx="4.00002" ry="4.00002"/>
<ellipse fill="#0e4057" stroke="#0e4057" cx="758.662" cy="-303.26" rx="4.00002" ry="4.00002"/>
</g>
<!-- ContentText -->
<g id="node10" class="node"><title>ContentText</title>
<path fill="none" stroke="black" d="M664.002,-582C664.002,-582 773.013,-582 773.013,-582 779.013,-582 785.013,-588 785.013,-594 785.013,-594 785.013,-670 785.013,-670 785.013,-676 779.013,-682 773.013,-682 773.013,-682 664.002,-682 664.002,-682 658.002,-682 652.002,-676 652.002,-670 652.002,-670 652.002,-594 652.002,-594 652.002,-588 658.002,-582 664.002,-582"/>
<text text-anchor="middle" x="718.508" y="-664" font-family="Times,serif" font-size="14.00">ContentText</text>
<polyline fill="none" stroke="black" points="652.002,-657.2 785.013,-657.2 "/>
<text text-anchor="start" x="660.002" y="-639.2" font-family="Times,serif" font-size="14.00">id :integer</text>
<text text-anchor="start" x="660.002" y="-622.4" font-family="Times,serif" font-size="14.00">value :text</text>
<text text-anchor="start" x="660.002" y="-605.6" font-family="Times,serif" font-size="14.00">created_at :datetime</text>
<text text-anchor="start" x="660.002" y="-588.8" font-family="Times,serif" font-size="14.00">updated_at :datetime</text>
</g>
<!-- ContentText&#45;&gt;Content -->
<g id="edge17" class="edge"><title>ContentText&#45;&gt;Content</title>
<path fill="none" stroke="#82ef4e" d="M709.028,-573.814C702.232,-517.097 698.826,-428.933 728.508,-360 735.209,-344.438 745.171,-329.837 756.394,-316.661"/>
<ellipse fill="none" stroke="#82ef4e" cx="709.552" cy="-577.979" rx="4.00001" ry="4.00001"/>
<ellipse fill="#82ef4e" stroke="#82ef4e" cx="759.35" cy="-313.309" rx="4.00002" ry="4.00002"/>
</g>
<!-- DataType -->
<g id="node11" class="node"><title>DataType</title>
<path fill="none" stroke="black" d="M130.051,-565.2C130.051,-565.2 242.965,-565.2 242.965,-565.2 248.965,-565.2 254.965,-571.2 254.965,-577.2 254.965,-577.2 254.965,-686.8 254.965,-686.8 254.965,-692.8 248.965,-698.8 242.965,-698.8 242.965,-698.8 130.051,-698.8 130.051,-698.8 124.051,-698.8 118.051,-692.8 118.051,-686.8 118.051,-686.8 118.051,-577.2 118.051,-577.2 118.051,-571.2 124.051,-565.2 130.051,-565.2"/>
<text text-anchor="middle" x="186.508" y="-680.8" font-family="Times,serif" font-size="14.00">DataType</text>
<polyline fill="none" stroke="black" points="118.051,-674 254.965,-674 "/>
<text text-anchor="start" x="126.051" y="-656" font-family="Times,serif" font-size="14.00">id :integer</text>
<text text-anchor="start" x="126.051" y="-639.2" font-family="Times,serif" font-size="14.00">friendly_name :string</text>
<text text-anchor="start" x="126.051" y="-622.4" font-family="Times,serif" font-size="14.00">name :string</text>
<text text-anchor="start" x="126.051" y="-605.6" font-family="Times,serif" font-size="14.00">help :text</text>
<text text-anchor="start" x="126.051" y="-588.8" font-family="Times,serif" font-size="14.00">created_at :datetime</text>
<text text-anchor="start" x="126.051" y="-572" font-family="Times,serif" font-size="14.00">updated_at :datetime</text>
</g>
<!-- DataType&#45;&gt;Property -->
<g id="edge19" class="edge"><title>DataType&#45;&gt;Property</title>
<path fill="none" stroke="#d28c28" d="M187.699,-557.119C187.802,-550.775 187.906,-544.307 188.01,-537.841"/>
<ellipse fill="none" stroke="#d28c28" cx="187.634" cy="-561.162" rx="4" ry="4"/>
<polygon fill="#d28c28" stroke="#d28c28" points="188.013,-537.696 192.673,-527.77 188.093,-532.697 188.174,-527.697 188.174,-527.697 188.174,-527.697 188.093,-532.697 183.675,-527.625 188.013,-537.696 188.013,-537.696"/>
</g>
<!-- PropertyValidation -->
<g id="node13" class="node"><title>PropertyValidation</title>
<path fill="none" stroke="black" d="M18.8886,-1.2C18.8886,-1.2 162.127,-1.2 162.127,-1.2 168.127,-1.2 174.127,-7.2 174.127,-13.2 174.127,-13.2 174.127,-122.8 174.127,-122.8 174.127,-128.8 168.127,-134.8 162.127,-134.8 162.127,-134.8 18.8886,-134.8 18.8886,-134.8 12.8886,-134.8 6.88864,-128.8 6.88864,-122.8 6.88864,-122.8 6.88864,-13.2 6.88864,-13.2 6.88864,-7.2 12.8886,-1.2 18.8886,-1.2"/>
<text text-anchor="middle" x="90.5078" y="-116.8" font-family="Times,serif" font-size="14.00">PropertyValidation</text>
<polyline fill="none" stroke="black" points="6.88864,-110 174.127,-110 "/>
<text text-anchor="start" x="14.8886" y="-92" font-family="Times,serif" font-size="14.00">id :integer</text>
<text text-anchor="start" x="14.8886" y="-75.2" font-family="Times,serif" font-size="14.00">validation_type_id :integer</text>
<text text-anchor="start" x="14.8886" y="-58.4" font-family="Times,serif" font-size="14.00">property_id :integer</text>
<text text-anchor="start" x="14.8886" y="-41.6" font-family="Times,serif" font-size="14.00">value :string</text>
<text text-anchor="start" x="14.8886" y="-24.8" font-family="Times,serif" font-size="14.00">created_at :datetime</text>
<text text-anchor="start" x="14.8886" y="-8" font-family="Times,serif" font-size="14.00">updated_at :datetime</text>
</g>
<!-- Property&#45;&gt;PropertyValidation -->
<g id="edge21" class="edge"><title>Property&#45;&gt;PropertyValidation</title>
<path fill="none" stroke="#545f51" d="M122.369,-353.16C117.342,-343.646 112.913,-333.842 109.508,-324 89.2867,-265.56 85.446,-195.218 86.1465,-143.229"/>
<ellipse fill="none" stroke="#545f51" cx="124.401" cy="-356.868" rx="4.00002" ry="4.00002"/>
<ellipse fill="#545f51" stroke="#545f51" cx="86.2229" cy="-139.047" rx="4" ry="4"/>
</g>
<!-- ValidationType -->
<g id="node15" class="node"><title>ValidationType</title>
<path fill="none" stroke="black" d="M130.451,-172.8C130.451,-172.8 256.565,-172.8 256.565,-172.8 262.565,-172.8 268.565,-178.8 268.565,-184.8 268.565,-184.8 268.565,-311.2 268.565,-311.2 268.565,-317.2 262.565,-323.2 256.565,-323.2 256.565,-323.2 130.451,-323.2 130.451,-323.2 124.451,-323.2 118.451,-317.2 118.451,-311.2 118.451,-311.2 118.451,-184.8 118.451,-184.8 118.451,-178.8 124.451,-172.8 130.451,-172.8"/>
<text text-anchor="middle" x="193.508" y="-305.2" font-family="Times,serif" font-size="14.00">ValidationType</text>
<polyline fill="none" stroke="black" points="118.451,-298.4 268.565,-298.4 "/>
<text text-anchor="start" x="126.451" y="-280.4" font-family="Times,serif" font-size="14.00">id :integer</text>
<text text-anchor="start" x="126.451" y="-263.6" font-family="Times,serif" font-size="14.00">friendly_name :string</text>
<text text-anchor="start" x="126.451" y="-246.8" font-family="Times,serif" font-size="14.00">name :string</text>
<text text-anchor="start" x="126.451" y="-230" font-family="Times,serif" font-size="14.00">help :text</text>
<text text-anchor="start" x="126.451" y="-213.2" font-family="Times,serif" font-size="14.00">requires_value :boolean</text>
<text text-anchor="start" x="126.451" y="-196.4" font-family="Times,serif" font-size="14.00">created_at :datetime</text>
<text text-anchor="start" x="126.451" y="-179.6" font-family="Times,serif" font-size="14.00">updated_at :datetime</text>
</g>
<!-- Property&#45;&gt;ValidationType -->
<g id="edge22" class="edge"><title>Property&#45;&gt;ValidationType</title>
<path fill="none" stroke="#e31bf1" d="M184.644,-352.085C184.76,-345.15 184.923,-338.172 185.13,-331.296"/>
<ellipse fill="none" stroke="#e31bf1" cx="184.587" cy="-356.164" rx="4" ry="4"/>
<ellipse fill="#e31bf1" stroke="#e31bf1" cx="185.262" cy="-327.276" rx="4" ry="4"/>
</g>
<!-- Thing&#45;&gt;Content -->
<g id="edge25" class="edge"><title>Thing&#45;&gt;Content</title>
<path fill="none" stroke="#6c71ca" d="M598.457,-388.958C611.826,-378.987 625.923,-368.917 639.508,-360 675.649,-336.276 717.175,-312.501 752.834,-293.076"/>
<ellipse fill="none" stroke="#6c71ca" cx="595.157" cy="-391.437" rx="4.00002" ry="4.00002"/>
<polygon fill="#6c71ca" stroke="#6c71ca" points="752.975,-292.999 763.911,-292.19 757.371,-290.616 761.767,-288.234 761.767,-288.234 761.767,-288.234 757.371,-290.616 759.622,-284.277 752.975,-292.999 752.975,-292.999"/>
</g>
<!-- ValidationType&#45;&gt;Property -->
<g id="edge28" class="edge"><title>ValidationType&#45;&gt;Property</title>
<path fill="none" stroke="#83d3b8" d="M198.464,-333.654C198.395,-339.093 198.296,-344.584 198.169,-350.058"/>
<polygon fill="#83d3b8" stroke="#83d3b8" points="198.467,-333.278 203.059,-323.32 198.513,-328.278 198.559,-323.278 198.559,-323.278 198.559,-323.278 198.513,-328.278 194.059,-323.237 198.467,-333.278 198.467,-333.278"/>
<polygon fill="#83d3b8" stroke="#83d3b8" points="198.166,-350.167 193.403,-360.045 198.034,-355.166 197.901,-360.164 197.901,-360.164 197.901,-360.164 198.034,-355.166 202.4,-360.283 198.166,-350.167 198.166,-350.167"/>
</g>
<!-- ValidationType&#45;&gt;PropertyValidation -->
<g id="edge27" class="edge"><title>ValidationType&#45;&gt;PropertyValidation</title>
<path fill="none" stroke="#f5087b" d="M146.341,-165.489C142.179,-158.295 137.978,-151.037 133.85,-143.902"/>
<ellipse fill="none" stroke="#f5087b" cx="148.42" cy="-169.081" rx="4.00002" ry="4.00002"/>
<polygon fill="#f5087b" stroke="#f5087b" points="133.675,-143.6 132.562,-132.691 131.171,-139.272 128.667,-134.945 128.667,-134.945 128.667,-134.945 131.171,-139.272 124.772,-137.199 133.675,-143.6 133.675,-143.6"/>
</g>
<!-- ActiveRecord::Base -->
<g id="node16" class="node"><title>ActiveRecord::Base</title>
<ellipse fill="none" stroke="black" cx="643.508" cy="-779" rx="88.2033" ry="18"/>
<text text-anchor="middle" x="643.508" y="-773.4" font-family="Times,serif" font-size="14.00">ActiveRecord::Base</text>
</g>
<!-- ActiveRecord::Base&#45;&gt;Collection -->
<g id="edge3" class="edge"><title>ActiveRecord::Base&#45;&gt;Collection</title>
<path fill="none" stroke="black" d="M609.455,-762.167C590.795,-753.807 567.127,-743.712 545.508,-736 491.055,-716.575 471.634,-726.991 420.508,-700 416.68,-697.979 412.866,-695.758 409.096,-693.39"/>
<polyline fill="none" stroke="black" points="404.693,-690.546 408.894,-693.259 "/>
</g>
<!-- ActiveRecord::Base&#45;&gt;Content -->
<g id="edge4" class="edge"><title>ActiveRecord::Base&#45;&gt;Content</title>
<path fill="none" stroke="black" d="M698.579,-764.897C732.355,-753.71 772.944,-733.872 793.508,-700 824.876,-648.332 814.989,-620.499 793.508,-564 785.9,-543.99 769.116,-548.01 761.508,-528 734.973,-458.207 739.429,-431.328 761.508,-360 764.922,-348.97 769.852,-338.061 775.585,-327.637"/>
<polyline fill="none" stroke="black" points="778.089,-323.2 775.631,-327.554 "/>
</g>
<!-- ActiveRecord::Base&#45;&gt;ContentBoolean -->
<g id="edge6" class="edge"><title>ActiveRecord::Base&#45;&gt;ContentBoolean</title>
<path fill="none" stroke="black" d="M711.956,-767.579C752.641,-757.538 801.28,-737.968 827.508,-700 868.207,-641.084 861.502,-554.92 851.027,-499.397"/>
<polyline fill="none" stroke="black" points="850.069,-494.455 851.021,-499.364 "/>
</g>
<!-- ActiveRecord::Base&#45;&gt;ContentDatetime -->
<g id="edge8" class="edge"><title>ActiveRecord::Base&#45;&gt;ContentDatetime</title>
<path fill="none" stroke="black" d="M709.933,-767.027C755.883,-756.518 815.992,-736.624 857.508,-700 918.737,-645.986 955.287,-556.483 973.645,-499.156"/>
<polyline fill="none" stroke="black" points="975.257,-494.056 973.75,-498.823 "/>
</g>
<!-- ActiveRecord::Base&#45;&gt;ContentFile -->
<g id="edge10" class="edge"><title>ActiveRecord::Base&#45;&gt;ContentFile</title>
<path fill="none" stroke="black" d="M714.673,-768.309C772.349,-758.045 854.016,-737.879 916.508,-700 991.307,-654.661 1058.2,-580.171 1102.6,-523.377"/>
<polyline fill="none" stroke="black" points="1105.75,-519.319 1102.68,-523.265 "/>
</g>
<!-- ActiveRecord::Base&#45;&gt;ContentFixnum -->
<g id="edge12" class="edge"><title>ActiveRecord::Base&#45;&gt;ContentFixnum</title>
<path fill="none" stroke="black" d="M720.857,-770.197C795.846,-760.601 911.578,-740.345 1004.51,-700 1127.55,-646.582 1151.48,-616.235 1252.51,-528 1262.99,-518.843 1273.53,-508.354 1283.27,-497.983"/>
<polyline fill="none" stroke="black" points="1286.83,-494.171 1283.42,-497.828 "/>
</g>
<!-- ActiveRecord::Base&#45;&gt;ContentInteger -->
<g id="edge14" class="edge"><title>ActiveRecord::Base&#45;&gt;ContentInteger</title>
<path fill="none" stroke="black" d="M730.397,-775.171C846.618,-769.433 1058.04,-752.119 1230.51,-700 1252.66,-693.307 1275.65,-683.375 1296.33,-673.197"/>
<polyline fill="none" stroke="black" points="1300.98,-670.884 1296.5,-673.11 "/>
</g>
<!-- ActiveRecord::Base&#45;&gt;ContentString -->
<g id="edge16" class="edge"><title>ActiveRecord::Base&#45;&gt;ContentString</title>
<path fill="none" stroke="black" d="M634.641,-761.083C625.091,-742.863 609.406,-712.938 595.598,-686.594"/>
<polyline fill="none" stroke="black" points="593.222,-682.06 595.543,-686.489 "/>
</g>
<!-- ActiveRecord::Base&#45;&gt;ContentText -->
<g id="edge18" class="edge"><title>ActiveRecord::Base&#45;&gt;ContentText</title>
<path fill="none" stroke="black" d="M652.258,-761.083C661.682,-742.863 677.161,-712.938 690.787,-686.594"/>
<polyline fill="none" stroke="black" points="693.132,-682.06 690.835,-686.501 "/>
</g>
<!-- ActiveRecord::Base&#45;&gt;DataType -->
<g id="edge20" class="edge"><title>ActiveRecord::Base&#45;&gt;DataType</title>
<path fill="none" stroke="black" d="M612.53,-762.088C593.634,-753.056 568.726,-742.324 545.508,-736 423.599,-702.794 378.799,-751.696 263.508,-700 262.305,-699.461 261.108,-698.896 259.915,-698.309"/>
<polyline fill="none" stroke="black" points="255.347,-695.93 259.782,-698.239 "/>
</g>
<!-- ActiveRecord::Base&#45;&gt;Property -->
<g id="edge23" class="edge"><title>ActiveRecord::Base&#45;&gt;Property</title>
<path fill="none" stroke="black" d="M613.062,-761.922C594.151,-752.71 569.04,-741.85 545.508,-736 498.334,-724.274 142.435,-735.758 109.508,-700 67.3972,-654.269 91.2792,-586.557 123.611,-532.4"/>
<polyline fill="none" stroke="black" points="126.357,-527.865 123.767,-532.142 "/>
</g>
<!-- ActiveRecord::Base&#45;&gt;PropertyValidation -->
<g id="edge24" class="edge"><title>ActiveRecord::Base&#45;&gt;PropertyValidation</title>
<path fill="none" stroke="black" d="M613.072,-761.883C594.164,-752.657 569.054,-741.795 545.508,-736 495.511,-723.695 118.523,-737.749 83.5078,-700 -59.0117,-546.353 15.3663,-270.006 62.0738,-140.118"/>
<polyline fill="none" stroke="black" points="63.8613,-135.18 62.1591,-139.882 "/>
</g>
<!-- ActiveRecord::Base&#45;&gt;Thing -->
<g id="edge26" class="edge"><title>ActiveRecord::Base&#45;&gt;Thing</title>
<path fill="none" stroke="black" d="M608.414,-762.34C565.647,-742.904 498.214,-710.979 491.508,-700 454.003,-638.6 478.929,-553.84 502.699,-499.219"/>
<polyline fill="none" stroke="black" points="504.846,-494.358 502.826,-498.931 "/>
</g>
<!-- ActiveRecord::Base&#45;&gt;ValidationType -->
<g id="edge29" class="edge"><title>ActiveRecord::Base&#45;&gt;ValidationType</title>
<path fill="none" stroke="black" d="M607.5,-762.355C557.039,-740.374 471.106,-702.708 468.508,-700 423.481,-653.073 445.394,-621.232 414.508,-564 368.56,-478.861 303.874,-389.242 256.353,-327.458"/>
<polyline fill="none" stroke="black" points="253.249,-323.429 256.301,-327.39 "/>
</g>
</g>
</svg>
